<?xml version="1.0" standalone="no"?><!DOCTYPE svg PUBLIC "-//W3C//DTD SVG 1.1//EN" "http://www.w3.org/Graphics/SVG/1.1/DTD/svg11.dtd"><svg class="icon" style="" viewBox="0 0 1024 1024" version="1.1" xmlns="http://www.w3.org/2000/svg" p-id="6924" xmlns:xlink="http://www.w3.org/1999/xlink" width="16" height="16"><defs><style type="text/css"><![CDATA[

]]></style></defs><path d="M517.087367 23.011086c88.943728 0 177.884386 0.153496 266.825045-0.233314 9.155521-0.039909 15.899108 2.221598 22.245653 8.621355 13.585413 13.706163 27.189246 27.469632 41.717124 40.144302 11.55108 10.082636 22.107507 20.86112 30.495548 33.57877 8.644891 13.102413 17.044188 26.797319 13.335726 43.450604-1.74269 7.835456-5.461385 15.362896-9.075703 22.635533-12.94687 26.034956-34.574447 45.500287-52.365648 67.857481-17.433044 21.913079-35.599799 43.25106-53.667294 64.649416-17.055444 20.191878-34.491559 40.057321-51.584865 60.211337-12.978593 15.299451-25.687032 30.831192-38.523385 46.254463-5.812379 6.986111-11.447726 14.141068-17.575284 20.843724-2.448772 2.675946-6.115278 4.202719-9.03477 6.496971-2.623757 2.059915-5.197372 4.26514-7.419993 6.739495-4.822842 5.363148-9.18315 11.158131-14.223956 16.294105-1.410116 1.435699-4.993734 2.301416-6.809079 1.555425-24.550139-10.07445-49.823755-17.789155-76.013231-21.894659-47.237861-7.40362-93.549629-4.152577-138.040936 14.618952-5.263887 2.221598-8.576329 1.818415-11.716856-2.839675-5.972015-8.863878-15.820314-13.525038-23.14514-20.744463-13.217023-13.025665-25.117051-27.382651-37.552268-41.198308-12.18553-13.538341-24.396643-27.058262-36.520775-40.652885-18.574031-20.827351-37.008892-41.774429-55.643298-62.541405-13.136182-14.640442-26.608008-28.977985-39.746236-43.61638-14.125719-15.740496-28.078499-31.637558-42.029232-47.536666-9.023514-10.284227-18.499329-20.2543-26.657126-31.191396-6.191003-8.300037-12.791327-16.71366-13.84124-27.942399-0.887206-9.487072 4.431939-16.683984 9.619078-22.551622 11.43033-12.932544 24.2718-24.685215 37.07029-36.33351 17.502629-15.929808 36.117592-30.691 52.990888-47.240931 6.885827-6.753821 13.646811-7.513114 21.983687-7.502881C340.483136 23.053042 428.786275 23.011086 517.087367 23.011086zM521.760806 340.962555c45.063335-52.9387 89.88824-105.59906 135.625934-159.328775-3.976568-0.209778-6.277984-0.436952-8.576329-0.436952-83.566254-0.007163-167.132508-0.23536-250.695692 0.303922-11.253298 0.070608-18.97005-2.926656-26.021653-11.519358-5.857405-7.136537-13.574157-12.754488-20.466124-19.044752 0.272199-0.254803 0.545422-0.508583 0.819668-0.765433C408.826688 213.70522 465.207789 277.237185 521.760806 340.962555z" p-id="6925" fill="#f00"></path><path d="M433.405479 836.716546c20.543895 10.999518 42.23594 18.787902 65.351404 21.969361 51.78134 7.126304 95.487771-7.644097 129.551588-48.287773 15.388479-18.362206 26.637684-39.065737 35.651988-61.10366 0.621147-1.515516 1.301645-3.006474 3.416819-4.047176-2.292206 7.348362-4.336772 14.783705-6.910387 22.030759-10.265808 28.931936-24.886807 55.042617-48.320519 75.704193-17.98563 15.858176-38.731116 25.998117-62.144362 29.937846-39.544645 6.655584-77.021188-1.335415-112.86965-18.247596-4.558829-2.15099-8.723685-5.129834-13.771655-8.142447-22.339798 27.142174-44.887326 54.53915-68.549236 83.292008-11.06501-9.849322-21.812795-19.184945-32.275077-28.828582-5.216815-4.810562-10.590196-9.69378-14.718213-15.390525-12.620435-17.418718-25.775037-34.606169-36.657898-53.097312-12.301164-20.893866-19.960611-43.985794-24.529673-67.88818-5.753027-30.100552-6.423293-60.205197-1.237177-90.601484 5.205559-30.517037 13.591553-60.008722 28.482705-87.037309 12.402471-22.511713 25.780153-44.707225 45.314045-62.296835 6.437619-5.799076 11.667737-12.983709 18.325367-18.47784 9.121751-7.526417 18.681478-14.691607 28.755927-20.871353 22.325471-13.697977 46.119387-24.352641 71.266114-31.900547 56.964386-17.098423 113.538893-16.786315 169.70203 3.599991 18.526959 6.726192 36.158525 15.061021 53.021587 25.462928 13.589506 8.381901 26.328645 17.467837 38.138622 29.081339-3.267417 4.095271-6.40692 8.032954-9.621125 12.066827 24.51637 32.250518 52.146661 62.670342 61.872163 103.465466-0.478907 0.281409-0.958838 0.562818-1.436722 0.846274-10.270924-16.340153-20.231787-32.882921-30.901801-48.955992-10.724249-16.154935-21.957081-32.007995-38.108946-44.24469 2.520403-3.228531 4.947685-6.335289 7.568373-9.692756-19.503193-21.466917-43.112913-36.818557-69.066005-49.015344-30.002314-14.098089-61.71662-21.170159-94.641497-21.295002-18.138102-0.068562-36.623106 1.263783-54.376445 4.825912-61.165058 12.274558-112.393813 42.169425-153.923672 88.989777-21.533432 24.276916-37.293371 51.604308-47.25321 82.201164-10.907421 33.513278-12.766768 67.917856-7.40055 102.71129 0.231267 1.49812 1.208525 2.87856 2.390443 4.110621 2.116197-133.798309 69.581752-219.252563 195.568141-256.151961 85.067444-24.915459 162.248268 1.493004 220.582861 53.153594-18.082844 22.014386-36.169781 44.047192-54.268998 66.067718-63.059198 76.726475-126.132722 153.439648-189.137685 230.213195-1.338485 1.633197-1.899256 3.900843-2.828418 5.869684-0.812505-0.277316-1.734504-0.384763-2.410909-0.845251-27.873838-18.996656-48.690956-43.556005-59.770292-75.773777-0.645706-1.882883-1.388627-3.730974-2.086521-5.597485-0.650823 0.021489-1.303692 0.041956-1.956561 0.062422-0.281409 1.966795-1.109264 4.044106-0.744967 5.881964 1.064238 5.358031 2.166339 10.781554 4.030803 15.897062 8.978489 24.62177 24.217564 44.887326 44.274366 61.550845C424.332846 845.881276 424.534438 845.639776 433.405479 836.716546z" p-id="6926" fill="#FDD849"></path><path d="M774.485715 640.947837c9.861602 26.744107 14.326287 54.30993 13.878079 82.480526-0.860601 54.383608-17.832134 103.458303-50.362015 147.104359-18.4717 24.785499-40.491203 45.991474-66.018599 63.365166-33.526581 22.822798-70.066799 38.878472-110.301152 45.270043-17.374716 2.759857-35.057447 5.0142-52.597939 4.996804-36.592406-0.040932-71.649853-8.156774-104.440677-24.864294-9.03784-4.601808-17.919115-9.508561-26.25906-15.595186 0.706081 0.204661 1.478677 0.287549 2.111081 0.627287 47.335075 25.593911 97.94166 33.434483 150.98269 27.455305 57.3031-6.460132 108.905362-27.202549 153.799852-63.455217 50.212612-40.550555 80.155575-92.682889 89.37761-156.926052 5.187139-36.146245 6.618744-72.003917-0.152473-108.000759C774.353708 642.614803 774.485715 641.768529 774.485715 640.947837z" p-id="6927" fill="#FDD849"></path></svg>