<?xml version="1.0" standalone="no"?><!DOCTYPE svg PUBLIC "-//W3C//DTD SVG 1.1//EN" "http://www.w3.org/Graphics/SVG/1.1/DTD/svg11.dtd"><svg width="200" height="200" viewBox="0 0 200 200" version="1.1" xmlns="http://www.w3.org/2000/svg" xmlns:xlink="http://www.w3.org/1999/xlink"><defs><style type="text/css"><![CDATA[
@font-face { font-family: ifont; src: url("http://at.alicdn.com/t/font_1442373896_4754455.eot?#iefix") format("embedded-opentype"), url("http://at.alicdn.com/t/font_1442373896_4754455.woff") format("woff"), url("http://at.alicdn.com/t/font_1442373896_4754455.ttf") format("truetype"), url("http://at.alicdn.com/t/font_1442373896_4754455.svg#ifont") format("svg"); }

]]></style></defs><g class="transform-group"><g transform="scale(0.1953125, 0.1953125)"><path d="M835.831386 125.474736 190.58464 125.474736c-68.421322 0-125.57195 56.766888-125.57195 125.18821l0 520.730848c0 68.421322 57.150628 123.607202 125.57195 123.607202l177.856757 0c17.132192 0 31.021527-14.078647 31.021527-31.210839s-13.889335-31.210839-31.021527-31.210839L190.58464 832.579319c-34.21015 0-63.150272-26.974351-63.150272-61.185524L127.434367 250.662947c0-34.21015 28.939099-62.766532 63.150272-62.766532l645.246747 0c34.21015 0 61.129242 28.556383 61.129242 62.766532l0 520.730848c0 34.21015-26.919093 61.185524-61.129242 61.185524L657.974629 832.579319c-17.132192 0-31.021527 14.078647-31.021527 31.210839s13.889335 31.210839 31.021527 31.210839l177.856757 0c68.421322 0 123.55092-55.18588 123.55092-123.607202L959.382307 250.662947C959.382307 182.242647 904.252709 125.474736 835.831386 125.474736zM830.445726 624.774483l0-227.491201c0-17.132192-13.566994-31.021527-30.699186-31.021527s-30.699186 13.889335-30.699186 31.021527l0 195.842387L593.863473 593.125669c-17.132192 0-31.021527 13.566994-31.021527 30.699186s13.889335 30.699186 31.021527 30.699186l206.810183 0C817.805848 654.524041 830.445726 641.906675 830.445726 624.774483zM482.186997 593.125669l-78.587869 0c-17.132192 0-31.021527 13.566994-31.021527 30.699186s13.889335 30.699186 31.021527 30.699186l78.587869 0c17.132192 0 31.021527-13.566994 31.021527-30.699186S499.31919 593.125669 482.186997 593.125669zM296.057833 593.125669l-78.587869 0c-17.132192 0-31.021527 13.566994-31.021527 30.699186s13.889335 30.699186 31.021527 30.699186l78.587869 0c17.132192 0 31.021527-13.566994 31.021527-30.699186S313.190025 593.125669 296.057833 593.125669zM484.255099 365.951693l-78.587869 0c-17.132192 0-31.021527 13.566994-31.021527 30.699186s13.889335 30.699186 31.021527 30.699186l78.587869 0c17.132192 0 31.021527-13.566994 31.021527-30.699186S501.387291 365.951693 484.255099 365.951693zM593.863473 427.350065l78.587869 0c17.132192 0 31.021527-13.566994 31.021527-30.699186s-13.889335-30.699186-31.021527-30.699186l-78.587869 0c-17.132192 0-31.021527 13.566994-31.021527 30.699186S576.73128 427.350065 593.863473 427.350065zM296.057833 365.951693l-78.587869 0c-17.132192 0-31.021527 13.566994-31.021527 30.699186s13.889335 30.699186 31.021527 30.699186l78.587869 0c17.132192 0 31.021527-13.566994 31.021527-30.699186S313.190025 365.951693 296.057833 365.951693z" fill="#15b2ee"></path></g></g></svg>