<?xml version="1.0" standalone="no"?><!DOCTYPE svg PUBLIC "-//W3C//DTD SVG 1.1//EN" "http://www.w3.org/Graphics/SVG/1.1/DTD/svg11.dtd"><svg width="200" height="200" viewBox="0 0 200 200" version="1.1" xmlns="http://www.w3.org/2000/svg" xmlns:xlink="http://www.w3.org/1999/xlink"><defs><style type="text/css"><![CDATA[
@font-face { font-family: ifont; src: url("http://at.alicdn.com/t/font_1442373896_4754455.eot?#iefix") format("embedded-opentype"), url("http://at.alicdn.com/t/font_1442373896_4754455.woff") format("woff"), url("http://at.alicdn.com/t/font_1442373896_4754455.ttf") format("truetype"), url("http://at.alicdn.com/t/font_1442373896_4754455.svg#ifont") format("svg"); }

]]></style></defs><g class="transform-group"><g transform="scale(0.1953125, 0.1953125)"><path d="M892.866194 415.555511c0-62.931948-51.164185-114.096133-113.993804-114.096133s-113.993804 51.164185-113.993804 114.096133c0 56.280604 40.522035 103.453982 96.393325 112.151894l2.046567 0.306985-0.511642 194.219247c0 0.716299 0.102328 1.023284 0.102328 1.023284l0.102328 0.716299c0 106.830818-86.979115 193.707605-193.809933 193.707605-104.784251 0-191.558709-85.341861-193.502948-190.22844L375.698611 531.902868l2.148896-0.204657c115.119416-10.437494 207.21495-105.091236 214.275607-220.005996 0.306985-1.432597 0.409313-2.251224 0.409313-3.172179l0.102328-8.390926c0.102328-1.023284 0.102328-1.841911 0.102328-2.762866l-0.204657-205.884681-0.409313-2.353553c-0.102328-11.870091-9.618867-21.284301-21.079644-21.284301l-102.32837 0c-11.563106 0-20.977316 9.41421-20.977316 21.079644 0 11.563106 9.41421 21.079644 20.977316 21.079644l81.862696 0-0.511642 185.521335c0 0.716299 0.102328 1.023284 0.102328 1.023284l0.102328 0.716299c0 106.830818-86.979115 193.707605-193.809933 193.707605-104.784251 0-191.558709-85.341861-193.502948-190.22844L162.957929 110.105326l81.351054 0c11.665434 0 21.079644-9.41421 21.079644-21.079644 0-11.665434-9.41421-21.079644-21.079644-21.079644l-102.32837 0c-10.437494 0-19.44239 7.776956-20.772659 18.21445l-0.204657 1.534926c0 0.511642 0 0.920955 0 1.432597l0.102328 0.920955-0.306985 211.001099c0 119.621865 90.662936 219.08504 210.898771 231.262117l2.148896 0.204657-0.306985 195.344859c0 130.366344 103.556311 232.694714 235.662236 232.694714 124.533626 0 227.987609-97.518937 235.662236-222.052563 0.306985-1.432597 0.409313-2.251224 0.409313-3.172179l0.102328-8.80024c0.102328-0.818627 0.102328-1.534926 0.102328-2.251224l-0.204657-197.596083 1.739582-0.409313C857.562906 513.279105 892.866194 467.845308 892.866194 415.555511L892.866194 415.555511zM778.770061 488.617967c-40.215049 0-72.960128-32.745078-72.960128-72.960128 0-40.215049 32.745078-72.960128 72.960128-72.960128 40.215049 0 72.960128 32.745078 72.960128 72.960128C851.730189 455.872889 818.98511 488.617967 778.770061 488.617967L778.770061 488.617967z" fill="#15b2ee"></path></g></g></svg>