<?xml version="1.0" standalone="no"?><!DOCTYPE svg PUBLIC "-//W3C//DTD SVG 1.1//EN" "http://www.w3.org/Graphics/SVG/1.1/DTD/svg11.dtd"><svg width="200" height="200" viewBox="0 0 200 200" version="1.1" xmlns="http://www.w3.org/2000/svg" xmlns:xlink="http://www.w3.org/1999/xlink"><defs><style type="text/css"><![CDATA[
@font-face { font-family: ifont; src: url("http://at.alicdn.com/t/font_1442373896_4754455.eot?#iefix") format("embedded-opentype"), url("http://at.alicdn.com/t/font_1442373896_4754455.woff") format("woff"), url("http://at.alicdn.com/t/font_1442373896_4754455.ttf") format("truetype"), url("http://at.alicdn.com/t/font_1442373896_4754455.svg#ifont") format("svg"); }

]]></style></defs><g class="transform-group"><g transform="scale(0.1953125, 0.1953125)"><path d="M435.69922 382.617257 435.69922 245.48604l152.97302 0L588.67224 382.617257l85.764316-85.767386c29.871331-29.868261 29.871331-78.295204 0-108.166535L566.268998 80.516802c-29.868261-29.871331-78.299297-29.871331-108.166535 0L349.935927 188.683337c-29.871331 29.871331-29.871331 78.299297 0 108.166535L435.69922 382.617257zM244.484224 589.674057 244.484224 436.70206 381.615441 436.70206l-85.767386-85.764316c-29.868261-29.871331-78.295204-29.871331-108.166535 0L79.513962 459.104279c-29.871331 29.868261-29.871331 78.299297 0 108.166535l108.166535 108.166535c29.871331 29.871331 78.299297 29.871331 108.166535 0l85.767386-85.764316L244.484224 589.673034zM588.67224 643.758859l0 137.131217L435.69922 780.890077 435.69922 643.758859l-85.764316 85.767386c-29.871331 29.868261-29.871331 78.295204 0 108.166535l108.166535 108.166535c29.868261 29.871331 78.299297 29.871331 108.166535 0l108.166535-108.166535c29.871331-29.871331 29.871331-78.299297 0-108.166535L588.67224 643.758859zM944.857499 459.104279 836.690964 350.937744c-29.871331-29.871331-78.299297-29.871331-108.166535 0l-85.767386 85.764316 137.131217 0 0 152.97302L642.757043 589.67508l85.767386 85.764316c29.868261 29.871331 78.295204 29.871331 108.166535 0l108.166535-108.166535C974.72883 537.403576 974.72883 488.972541 944.857499 459.104279z" fill="#15b2ee"></path></g></g></svg>