<?xml version="1.0" standalone="no"?><!DOCTYPE svg PUBLIC "-//W3C//DTD SVG 1.1//EN" "http://www.w3.org/Graphics/SVG/1.1/DTD/svg11.dtd"><svg width="200" height="200" viewBox="0 0 200 200" version="1.1" xmlns="http://www.w3.org/2000/svg" xmlns:xlink="http://www.w3.org/1999/xlink"><defs><style type="text/css"><![CDATA[
@font-face { font-family: ifont; src: url("http://at.alicdn.com/t/font_1442373896_4754455.eot?#iefix") format("embedded-opentype"), url("http://at.alicdn.com/t/font_1442373896_4754455.woff") format("woff"), url("http://at.alicdn.com/t/font_1442373896_4754455.ttf") format("truetype"), url("http://at.alicdn.com/t/font_1442373896_4754455.svg#ifont") format("svg"); }

]]></style></defs><g class="transform-group"><g transform="scale(0.1953125, 0.1953125)"><path d="M856.570069 864.01878c-2.656865-4.934178-64.776896-121.266903-105.51549-170.039351-18.028726-21.571212-37.891954-42.699614-64.334085-42.699614-22.64661 0-42.509838 15.371861-65.346224 33.210811-23.722008 18.408278-37.449143 20.369297-42.509838 22.962903-1.201915-1.328432-115.067552-134.93078-145.05217-194.836757-18.914347-37.828695-5.31373-51.619089 54.971799-82.995398 55.035058-28.656185 54.275954-69.078486 44.34434-89.511042-3.985297-6.009575-98.683552-148.784432-145.305205-195.406085-13.157807-13.094548-29.984618-20.116263-48.772448-20.116263-52.947521 0-107.539768 55.667645-113.23305 61.613961-37.765436 37.765436-91.788355 178.389498-45.482996 332.108108 46.368618 153.908386 143.660479 295.797622 297.442347 433.764819 53.137297 47.69705 110.765961 71.925127 171.304525 71.925127 95.647135 0 168.774178-61.360927 188.89044-80.085498 35.108571-32.831259 26.758425-67.93983 18.598054-79.895722zM354.296093 178.231351c42.826131 42.762873 136.448988 183.639969 137.081575 183.639969 1.012139 3.985297-2.783382 14.359722-24.481112 25.619768-14.612757 7.71756-31.376309 16.763552-46.558394 27.897081l-145.748015-209.765807c19.104124-16.320741 45.356479-33.590363 64.460602-33.590363 6.26261 0 10.943753 1.897761 15.245344 6.199351zM509.469653 916.839784c-147.076448-132.02088-239.876942-266.95166-283.715212-412.256865-37.385884-124.050286-0.253035-236.777266 26.631907-275.428324l144.356324 207.67827c-19.040865 23.026162-27.011459 53.769884-5.376988 97.038826 32.578224 65.093189 146.633637 198.822054 152.832988 205.843768 2.973158 3.036417 14.233205 12.588479 35.17183 12.588479 5.819799 0 11.892633-0.94888 18.091985-2.467089l138.410008 206.033544c-24.734147 11.639598-54.086178 20.685591-86.790919 20.685591-48.519413 0-95.457359-20.053004-139.611923-59.716201zM805.646826 909.248741c-6.958456 6.515645-21.69773 19.040865-41.750734 31.502826l-136.765282-203.313421c7.654301-4.301591 15.43512-9.235768 23.468973-15.498378 11.829375-9.235768 29.794842-23.215938 36.12071-23.215938 1.961019 0 8.603181 2.530347 27.833822 25.619768 37.512402 45.040185 99.505915 160.866842 101.277158 164.029776 0.189776 0 3.415969 8.160371-10.184649 20.875367z" fill="#15b2ee"></path></g></g></svg>