<?xml version="1.0" encoding="utf-8"?>
<!-- Generator: Adobe Illustrator 16.0.0, SVG Export Plug-In . SVG Version: 6.00 Build 0)  -->
<!DOCTYPE svg PUBLIC "-//W3C//DTD SVG 1.1//EN" "http://www.w3.org/Graphics/SVG/1.1/DTD/svg11.dtd">
<svg version="1.1" id="图层_1" xmlns="http://www.w3.org/2000/svg" xmlns:xlink="http://www.w3.org/1999/xlink" x="0px" y="0px"
	 width="1024px" height="1024px" viewBox="0 0 1024 1024" enable-background="new 0 0 1024 1024" xml:space="preserve">
<g>
	<path fill="#999999" d="M892.116,688.801h-25.342V158h25.342c14.014,0,25.343-11.313,25.343-25.276
		c0-13.963-11.329-25.276-25.343-25.276H131.491c-14.004,0-25.358,11.313-25.358,25.276c0,13.964,11.354,25.276,25.358,25.276
		h25.351v530.801h-25.351c-14.004,0-25.358,11.313-25.358,25.276s11.354,25.276,25.358,25.276h242.718L240.245,872.897
		c-9.995,9.962-9.995,26.116,0,36.078c9.987,9.963,26.19,9.963,36.177,0l170.141-169.622h39.89v101.104
		c0,13.964,11.346,25.276,25.351,25.276c14.004,0,25.358-11.313,25.358-25.276V739.354h39.883l170.149,169.622
		c9.979,9.963,26.182,9.963,36.16,0c10.012-9.962,10.012-26.116,0-36.078L649.398,739.354h242.718
		c14.014,0,25.343-11.313,25.343-25.276S906.13,688.801,892.116,688.801z M816.058,688.801H588.752c-0.56-0.017-1.07-0.017-1.613,0
		H436.469c-0.543-0.017-1.062-0.017-1.605,0H207.551V158h608.507V688.801z"/>
	<path fill="#999999" d="M379.083,479.115l56.382-56.217l81.781,81.526c5.393,5.385,12.531,7.739,19.604,7.443
		c7.098,0.296,14.293-2.075,19.711-7.476l125.229-124.833c10.274-10.259,10.274-26.89,0-37.148
		c-10.309-10.242-26.973-10.242-37.265,0L536.652,449.953l-81.782-81.526c-2.618-2.602-5.656-4.495-8.9-5.78
		c-9.74-4.512-21.596-2.98-29.632,5.039l-74.511,74.281c-10.284,10.258-10.284,26.874,0,37.148
		C352.119,489.357,368.8,489.357,379.083,479.115z"/>
</g>
</svg>
