<?xml version="1.0" encoding="utf-8"?>
<!-- Generator: Adobe Illustrator 16.0.0, SVG Export Plug-In . SVG Version: 6.00 Build 0)  -->
<!DOCTYPE svg PUBLIC "-//W3C//DTD SVG 1.1//EN" "http://www.w3.org/Graphics/SVG/1.1/DTD/svg11.dtd">
<svg version="1.1" id="图层_1" xmlns="http://www.w3.org/2000/svg" xmlns:xlink="http://www.w3.org/1999/xlink" x="0px" y="0px"
	 width="1024px" height="1024px" viewBox="0 0 1024 1024" enable-background="new 0 0 1024 1024" xml:space="preserve">
<g id="data">
	<path fill-rule="evenodd" clip-rule="evenodd" fill="#999999" d="M876.683,876.296c0-3.495-0.644-6.827-1.558-10.036
		c-17.33-130.126-102.42-238.8-218.943-288.906c67.741-46.381,112.258-124.24,112.258-212.528
		c0-142.169-115.252-257.42-257.411-257.42c-142.161,0-257.403,115.251-257.403,257.42c0,88.324,44.535,166.211,112.33,212.563
		c-115.421,49.678-199.973,156.812-218.37,285.361c-1.666,4.192-2.652,8.763-2.652,13.547l0.34,3.405
		c0,20.27,16.425,36.703,36.703,36.703c20.269,0,36.703-16.434,36.703-36.703l-0.045-0.447h0.915
		c17.401-142.223,136.263-252.868,282.097-257.492c3.136,0.106,6.21,0.466,9.382,0.466c3.181,0,6.272-0.359,9.418-0.466
		c145.843,4.604,264.732,115.27,282.133,257.492h1.003l0.054,0.447c0,20.27,16.417,36.703,36.703,36.703
		c20.251,0,36.685-16.434,36.685-36.703L876.683,876.296z M510.965,548.75c-101.541,0-183.862-82.312-183.862-183.854
		c0-101.541,82.321-183.871,183.862-183.871s183.854,82.33,183.854,183.871C694.819,466.438,612.506,548.75,510.965,548.75z"/>
</g>
</svg>
