<?xml version="1.0" encoding="utf-8"?>
<!-- Generator: Adobe Illustrator 16.0.0, SVG Export Plug-In . SVG Version: 6.00 Build 0)  -->
<!DOCTYPE svg PUBLIC "-//W3C//DTD SVG 1.1//EN" "http://www.w3.org/Graphics/SVG/1.1/DTD/svg11.dtd">
<svg version="1.1" id="图层_1" xmlns="http://www.w3.org/2000/svg" xmlns:xlink="http://www.w3.org/1999/xlink" x="0px" y="0px"
	 width="1024px" height="1024px" viewBox="0 0 1024 1024" enable-background="new 0 0 1024 1024" xml:space="preserve">
<g id="history">
	<path fill-rule="evenodd" clip-rule="evenodd" fill="#999999" d="M510.993,107.496c-223.395,0-404.5,181.097-404.5,404.509
		c0,70.485,18.088,136.715,49.785,194.418c4.498,15.225,18.429,26.409,35.117,26.409c20.305,0,36.759-16.463,36.759-36.769
		l-0.332-3.429c0-15.404-9.488-28.547-22.926-34.022l5.951-5.96c-20.251-42.873-31.903-90.611-31.903-141.186
		c0-183.089,148.421-331.51,331.511-331.51c183.089,0,331.51,148.421,331.51,331.51s-148.421,331.51-331.51,331.51
		c-72.909,0-140.064-23.86-194.795-63.753c-6.715-7.271-16.257-11.903-26.939-11.903c-20.305,0-36.769,16.464-36.769,36.769
		l0.332,3.43c0,16.643,11.14,30.539,26.32,35.081c65.791,46.355,145.782,73.896,232.39,73.896
		c223.394,0,404.509-181.097,404.509-404.491C915.502,288.592,734.387,107.496,510.993,107.496z M511.388,254.929
		c-20.306,0-36.76,16.463-36.76,36.769l-0.332,214.813c-0.278,1.832-0.557,3.645-0.557,5.548c0,5.117,1.059,9.982,2.944,14.417
		c5.188,14.003,18.563,24.039,34.372,24.039c3.636,0,7.074-0.682,10.386-1.669l211.114,0.322c20.306,0,36.769-16.463,36.769-36.768
		c0-20.306-16.463-36.769-36.769-36.769l-184.669-0.287l0.27-183.646C548.156,271.393,531.702,254.929,511.388,254.929z"/>
</g>
</svg>
