<?xml version="1.0" encoding="utf-8"?>
<!-- Generator: Adobe Illustrator 16.0.0, SVG Export Plug-In . SVG Version: 6.00 Build 0)  -->
<!DOCTYPE svg PUBLIC "-//W3C//DTD SVG 1.1//EN" "http://www.w3.org/Graphics/SVG/1.1/DTD/svg11.dtd">
<svg version="1.1" id="图层_1" xmlns="http://www.w3.org/2000/svg" xmlns:xlink="http://www.w3.org/1999/xlink" x="0px" y="0px"
	 width="1024px" height="1024px" viewBox="0 0 1024 1024" enable-background="new 0 0 1024 1024" xml:space="preserve">
<g>
	<path fill="#57DDDF" d="M258.987,539.812V107.5h-50.563v432.312C150.728,551.523,107.3,602.527,107.3,663.688
		c0,61.146,43.427,112.152,101.125,123.871V916.5h50.563V787.559c57.697-11.719,101.125-62.726,101.125-123.871
		C360.112,602.527,316.684,551.523,258.987,539.812z M233.706,739.433c-41.831,0-75.745-33.906-75.745-75.745
		s33.914-75.745,75.745-75.745c41.839,0,75.753,33.906,75.753,75.745S275.545,739.433,233.706,739.433z"/>
	<path fill="#57DDDF" d="M815.175,539.813V107.5h-50.563v432.313c-57.692,11.712-101.125,62.716-101.125,123.875
		c0,61.146,43.436,112.152,101.125,123.871V916.5h50.563V787.559C872.864,775.84,916.3,724.833,916.3,663.688
		C916.3,602.528,872.866,551.524,815.175,539.813z M789.894,739.433c-41.823,0-75.745-33.906-75.745-75.745
		s33.922-75.745,75.745-75.745c41.839,0,75.762,33.906,75.762,75.745S831.732,739.433,789.894,739.433z"/>
	<path fill="#57DDDF" d="M537.081,236.441V107.5h-50.563v128.941c-57.698,11.719-101.125,62.726-101.125,123.872
		s43.427,112.153,101.125,123.872V916.5h50.563V484.184c57.689-11.719,101.125-62.726,101.125-123.872
		S594.771,248.16,537.081,236.441z M511.8,436.058c-41.831,0-75.745-33.906-75.745-75.745s33.914-75.745,75.745-75.745
		c41.839,0,75.762,33.906,75.762,75.745S553.639,436.058,511.8,436.058z"/>
</g>
</svg>
