<?xml version="1.0" encoding="utf-8"?>
<!-- Generator: Adobe Illustrator 16.0.0, SVG Export Plug-In . SVG Version: 6.00 Build 0)  -->
<!DOCTYPE svg PUBLIC "-//W3C//DTD SVG 1.1//EN" "http://www.w3.org/Graphics/SVG/1.1/DTD/svg11.dtd">
<svg version="1.1" id="图层_1" xmlns="http://www.w3.org/2000/svg" xmlns:xlink="http://www.w3.org/1999/xlink" x="0px" y="0px"
	 width="1024px" height="1024px" viewBox="0 0 1024 1024" enable-background="new 0 0 1024 1024" xml:space="preserve">
<g id="chart2">
	<path fill-rule="evenodd" clip-rule="evenodd" fill="#999999" d="M537.082,107.5c0,189.296,0,379.218,0,379.218s90.919,0,379.218,0
		C916.3,277.277,746.509,107.5,537.082,107.5z M587.052,161.832c140.922,21.512,252.4,132.496,274.636,273.173
		c-110.456,0-274.045,1.152-274.045,1.152S587.052,291.629,587.052,161.832z M486.518,158.062
		c-209.434,0-379.218,169.777-379.218,379.22c0,209.442,169.785,379.218,379.218,379.218c209.426,0,379.218-169.775,379.218-379.218
		c-102.127,0-379.521-0.182-379.521-0.182S486.518,259.319,486.518,158.062z M811.357,587.612
		C787.13,745.227,650.912,865.937,486.518,865.937c-181.511,0-328.656-147.144-328.656-328.654
		c0-163.968,120.069-299.886,277.082-324.641c0,168.311,0.749,375.038,0.749,375.038S640.973,587.612,811.357,587.612z"/>
</g>
</svg>
