<?xml version="1.0" encoding="utf-8"?>
<!-- Generator: Adobe Illustrator 16.0.0, SVG Export Plug-In . SVG Version: 6.00 Build 0)  -->
<!DOCTYPE svg PUBLIC "-//W3C//DTD SVG 1.1//EN" "http://www.w3.org/Graphics/SVG/1.1/DTD/svg11.dtd">
<svg version="1.1" id="图层_1" xmlns="http://www.w3.org/2000/svg" xmlns:xlink="http://www.w3.org/1999/xlink" x="0px" y="0px"
	 width="1024px" height="1024px" viewBox="0 0 1024 1024" enable-background="new 0 0 1024 1024" xml:space="preserve">
<g id="blood">
	<path fill-rule="evenodd" clip-rule="evenodd" fill="#999999" d="M753.481,175.793H569.24c0.711-3.575,1.105-7.269,1.105-11.061
		c0-31.682-25.677-57.358-57.338-57.358c-31.682,0-57.359,25.677-57.359,57.358c0,3.792,0.415,7.486,1.116,11.061H270.499
		c-44.451,0-80.487,36.046-80.487,80.507v418.573c0,44.461,36.037,80.507,80.487,80.507h16.107v64.39
		c0,26.685,21.618,48.313,48.292,48.313v48.292h48.302v-48.292h16.098c26.674,0,48.302-21.628,48.302-48.313v-64.39h305.881
		c44.46,0,80.507-36.046,80.507-80.507V256.3C833.988,211.839,797.941,175.793,753.481,175.793z M513.008,134.829
		c16.502,0,29.884,13.392,29.884,29.904c0,3.911-0.79,7.644-2.173,11.061h-55.433c-1.373-3.417-2.173-7.15-2.173-11.061
		C483.113,148.22,496.495,134.829,513.008,134.829z M785.676,546.094c0,26.664-21.607,48.292-48.272,48.292H286.606
		c-26.675,0-48.302-21.628-48.302-48.292v-16.117h169.042c13.342,0,24.156-10.805,24.156-24.137s-10.814-24.156-24.156-24.156
		H238.304v-64.39h169.042c13.342,0,24.156-10.804,24.156-24.156c0-13.333-10.814-24.136-24.156-24.136H238.304v-96.604
		c0-26.684,21.627-48.292,48.302-48.292h450.797c26.665,0,48.272,21.608,48.272,48.292V546.094z"/>
</g>
</svg>
