<?xml version="1.0" encoding="utf-8"?>
<!-- Generator: Adobe Illustrator 16.0.0, SVG Export Plug-In . SVG Version: 6.00 Build 0)  -->
<!DOCTYPE svg PUBLIC "-//W3C//DTD SVG 1.1//EN" "http://www.w3.org/Graphics/SVG/1.1/DTD/svg11.dtd">
<svg version="1.1" id="图层_1" xmlns="http://www.w3.org/2000/svg" xmlns:xlink="http://www.w3.org/1999/xlink" x="0px" y="0px"
	 width="1024px" height="1024px" viewBox="0 0 1024 1024" enable-background="new 0 0 1024 1024" xml:space="preserve">
<path fill-rule="evenodd" clip-rule="evenodd" fill="#FFFFFF" d="M523.486,492.584c-0.621-0.104-1.241-0.104-1.81-0.104
	c-4.549,0-6.771,1.912-9.252,4.91c-2.533-2.998-4.704-4.91-9.304-4.91c-0.568,0-1.189,0-1.809,0.104
	c-3.98,0.361-9.097,3.928-9.097,10.803v2.274c0,6.564,5.531,14.68,20.21,24.811c14.628-10.131,20.159-18.246,20.159-24.811v-2.274
	C532.583,496.512,527.466,492.945,523.486,492.584z M519.091,520.042l-2.181-6.005l-2.852,9.874l-3.406-15.813l-2.527,10.363h-8.425
	l6.258-2.494l4.814-17.089l3.696,16.487l1.961-8.304l3.642,10.64l4.542,2.34H519.091z"/>
<path fill-rule="evenodd" clip-rule="evenodd" fill="#999999" d="M734.601,132.877c-12.446-2.074-24.874-2.074-36.264-2.074
	c-91.159,0-135.701,38.318-185.419,98.399c-50.756-60.081-94.261-98.399-186.457-98.399c-11.39,0-23.827,0-36.254,2.074
	c-79.759,7.241-182.308,78.712-182.308,216.487v45.58c0,131.552,110.836,294.182,405.019,497.205
	c293.155-203.023,403.981-365.653,403.981-497.205v-45.58C916.898,211.589,814.35,140.119,734.601,132.877z M646.515,683.138
	L602.813,562.8l-57.146,197.876l-68.251-316.884l-50.648,207.681H257.935l125.417-49.982l96.472-342.462l74.064,330.406
	l39.298-166.407l72.978,213.219l91.021,46.891H646.515z"/>
</svg>
