<?xml version="1.0" encoding="utf-8"?>
<!-- Generator: Adobe Illustrator 16.0.0, SVG Export Plug-In . SVG Version: 6.00 Build 0)  -->
<!DOCTYPE svg PUBLIC "-//W3C//DTD SVG 1.1//EN" "http://www.w3.org/Graphics/SVG/1.1/DTD/svg11.dtd">
<svg version="1.1" id="图层_1" xmlns="http://www.w3.org/2000/svg" xmlns:xlink="http://www.w3.org/1999/xlink" x="0px" y="0px"
	 width="1024px" height="1024px" viewBox="0 0 1024 1024" enable-background="new 0 0 1024 1024" xml:space="preserve">
<g id="lifesaver">
	<path fill-rule="evenodd" clip-rule="evenodd" fill="#9999FF" d="M510.8,106.5c-223.4,0-404.5,181.1-404.5,404.5
		s181.1,404.5,404.5,404.5c223.4,0,404.5-181.1,404.5-404.5S734.2,106.5,510.8,106.5z M803.032,311.581l-110.046,63.533
		c-13.135-17.579-28.721-33.166-46.3-46.3l63.582-110.128C746.692,243.588,778.13,275.174,803.032,311.581z M687.769,511
		c0,97.734-79.234,176.968-176.969,176.968S333.831,608.734,333.831,511c0-97.751,79.234-176.969,176.969-176.969
		S687.769,413.25,687.769,511z M510.8,157.063c55.929,0,108.614,13.315,155.621,36.424l-63.302,109.667
		c-28.244-12.575-59.434-19.685-92.319-19.685c-26.269,0-51.369,4.674-74.839,12.854l-63.713-110.342
		C414.843,167.695,461.472,157.063,510.8,157.063z M328.071,208.711l62.973,109.075c-19.669,12.229-37.346,27.272-52.406,44.719
		l-110.54-63.812C255.239,262.599,289.375,232.265,328.071,208.711z M156.862,511c0-61.953,15.999-120.119,43.962-170.764
		l109.47,63.203c-17.216,32.029-27.026,68.651-27.026,107.561c0,31.963,6.65,62.347,18.55,89.949l-109.931,63.483
		C169.503,618.001,156.862,565.99,156.862,511z M217.103,708.247l109.931-63.467c13.974,19.158,30.828,35.996,49.986,49.97
		l-63.549,110.079C275.401,779.219,242.713,746.316,217.103,708.247z M510.8,864.938c-54.99,0-106.853-12.903-153.284-35.288
		l63.318-109.684c27.618,11.899,58.002,18.565,89.965,18.565c38.909,0,75.531-9.81,107.561-27.025l63.088,109.288
		C630.869,848.824,572.769,864.938,510.8,864.938z M723.156,793.802l-63.861-110.639c17.446-15.077,32.49-32.754,44.719-52.406
		l109.371,63.138C789.897,732.672,759.201,766.595,723.156,793.802z M725.477,585.84c8.181-23.471,12.854-48.587,12.854-74.839
		c0-32.902-7.127-64.076-19.685-92.319l109.864-63.417c23.108,46.991,36.227,99.809,36.227,155.737
		c0,49.311-10.139,96.237-28.358,138.882L725.477,585.84z"/>
</g>
</svg>
