<?xml version="1.0" encoding="utf-8"?>
<!-- Generator: Adobe Illustrator 16.0.0, SVG Export Plug-In . SVG Version: 6.00 Build 0)  -->
<!DOCTYPE svg PUBLIC "-//W3C//DTD SVG 1.1//EN" "http://www.w3.org/Graphics/SVG/1.1/DTD/svg11.dtd">
<svg version="1.1" id="图层_1" xmlns="http://www.w3.org/2000/svg" xmlns:xlink="http://www.w3.org/1999/xlink" x="0px" y="0px"
	 width="1024px" height="1024px" viewBox="0 0 1024 1024" enable-background="new 0 0 1024 1024" xml:space="preserve">
<g id="Shape_480">
	<path fill-rule="evenodd" clip-rule="evenodd" fill="#999999" d="M885.768,357.185c-20.567-49.109-49.899-92.968-88.191-131.576
		c-38.154-38.451-81.718-67.644-131.123-88.034C617.166,117.186,565.57,107,511.526,107c-53.748,0-105.167,10.185-154.443,30.732
		c-49.425,20.548-92.988,49.879-130.965,87.876c-37.849,37.681-67.032,81.401-87.58,131.123
		c-20.686,49.898-31.029,101.317-31.029,154.453c0,46.642,7.076,90.047,21.298,129.741c14.212,39.852,35.075,75.361,62.867,106.409
		c5.714,6.633,11.428,11.725,16.985,15.14c5.566,3.533,10.827,5.251,15.603,5.251c1.53,0,3.859-0.475,6.79-1.086
		c3.089-0.77,6.81-1.994,11.291-3.396c-35.223-44.471-60.726-86.336-76.151-126.029c-15.604-39.694-23.331-81.697-23.331-126.03
		c0-48.655,9.435-95.436,28.107-140.696c18.692-45.26,45.409-85.25,80.01-120.01c34.759-34.582,74.591-61.327,119.704-80
		c45.092-18.692,92.05-28.107,141.001-28.107c49.109,0,96.047,9.257,140.715,27.792c44.629,18.534,84.323,45.398,119.378,80.315
		c34.74,34.76,61.485,74.611,80.316,119.694c18.83,45.103,28.266,92.061,28.266,140.874c0,48.32-9.436,95.139-28.266,140.538
		c-18.831,45.398-45.576,85.25-80.316,119.694c-34.759,34.759-74.611,61.465-119.871,80.315
		c-45.24,18.83-92.041,28.246-140.222,28.246c-59.156,0-106.558-9.416-142.097-28.404c-35.677-19.008-53.432-44.017-53.432-74.749
		c0-6.652,1.233-13.146,3.543-19.462c2.467-6.336,6.355-12.969,11.902-20.232c5.398,5.093,10.195,8.804,14.675,11.271
		c4.323,2.468,8.182,3.554,11.586,3.554c5.398,0,13.6-4.639,24.871-13.916c11.103-9.415,22.235-21.298,33.358-35.825
		c9.1-12.337,16.827-26.272,23.311-41.846c6.494-15.455,9.741-25.324,9.741-29.667c0-2.605-3.869-8.487-11.429-17.587
		c-7.728-9.119-11.586-18.219-11.586-27.653c0-12.356,3.543-28.739,10.649-48.951c7.106-20.39,17.301-44.648,30.9-72.756
		c15.742-31.66,28.404-53.906,38.303-66.735c9.711-12.811,19.768-20.982,30.121-24.535c2.31-0.928,6.336-1.717,11.725-2.329
		c17.745-1.855,31.049-9.573,39.852-23.015c8.015-13.58,15.12-31.029,21.16-52.346c6.04-21.179,9.1-39.22,9.1-54.063
		c0-12.041-1.855-20.232-5.705-24.397c-3.71-4.165-11.566-6.336-23.765-6.336c-19.008,0-35.075,1.382-48.359,4.027
		c-13.284,2.783-23.321,6.632-30.269,11.882c-8.498,6.02-21.939,20.706-40.474,44.333c-18.534,23.469-37.522,50.353-56.836,80.474
		c-35.214,55.129-64.239,113.97-86.8,176.363c-22.709,62.552-33.98,109.371-33.98,140.696c0,6.197,1.392,12.514,4.027,19.304
		c2.783,6.81,7.56,15.771,14.507,26.884c-9.415,11.744-16.363,23.469-20.844,34.917c-4.48,11.429-6.81,22.996-6.81,34.74
		c0,38.924,21.021,70.723,62.877,95.455C387.51,903.645,442.807,916,511.526,916c52.84,0,104.101-10.343,154.157-31.048
		c49.879-20.548,93.896-49.741,131.893-87.58c37.977-37.977,67.348-81.855,87.875-131.596
		c20.687-49.722,31.029-101.298,31.029-154.73C916.48,457.595,906.295,406.334,885.768,357.185z M466.74,637.826
		c-6.336,25.641-16.827,49.109-31.818,70.427c-14.981,21.18-33.822,40.168-56.837,56.689c10.659,6.947,19.936,12.198,28.118,15.909
		c8.181,3.553,14.823,5.408,19.926,5.408c16.837,0,34.602-12.515,53.274-37.523c18.85-25.028,28.107-46.8,28.107-65.176
		c0-6.968-2.763-13.6-8.339-20.094C493.614,656.973,482.807,648.485,466.74,637.826z M621.785,385.47
		c8.054,1.994,14.39,3.08,19.166,3.08c12.356,0,24.259-11.429,35.825-34.444c11.429-22.857,17.173-46.168,17.173-70.111
		c0-13.758-3.573-24.574-10.837-32.272c-7.244-7.718-22.245-15.771-44.767-24.239c0,29.332-4.185,56.669-12.218,82.151
		c-8.191,25.482-19.759,47.55-34.897,66.262C603.586,380.062,613.771,383.319,621.785,385.47z"/>
</g>
</svg>
