<?xml version="1.0" encoding="utf-8"?>
<!-- Generator: Adobe Illustrator 16.0.0, SVG Export Plug-In . SVG Version: 6.00 Build 0)  -->
<!DOCTYPE svg PUBLIC "-//W3C//DTD SVG 1.1//EN" "http://www.w3.org/Graphics/SVG/1.1/DTD/svg11.dtd">
<svg version="1.1" id="图层_1" xmlns="http://www.w3.org/2000/svg" xmlns:xlink="http://www.w3.org/1999/xlink" x="0px" y="0px"
	 width="1024px" height="1024px" viewBox="0 0 1024 1024" enable-background="new 0 0 1024 1024" xml:space="preserve">
<g>
	<path fill="#FF9999" d="M511.8,278.642c0-10.748-8.699-19.455-19.447-19.455c-128.677,0-233.366,104.68-233.366,233.358
		c0,10.748,8.707,19.455,19.446,19.455c10.74,0,19.447-8.707,19.447-19.455c0-107.231,87.242-194.465,194.473-194.465
		C503.101,298.081,511.8,289.374,511.8,278.642z"/>
	<path fill="#FF9999" d="M745.174,512c-10.748,0-19.455,8.69-19.455,19.438c0,107.247-87.233,194.481-194.473,194.481
		c-10.748,0-19.446,8.706-19.446,19.438c0,10.748,8.698,19.455,19.446,19.455c128.67,0,233.366-104.696,233.366-233.374
		C764.612,520.69,755.905,512,745.174,512z"/>
	<path fill="#FF9999" d="M511.8,107.5c-223.4,0-404.5,181.1-404.5,404.5c0,223.4,181.1,404.5,404.5,404.5
		c223.399,0,404.5-181.1,404.5-404.5C916.3,288.6,735.199,107.5,511.8,107.5z M511.8,865.938
		c-195.477,0-353.938-158.469-353.938-353.938S316.323,158.063,511.8,158.063c195.485,0,353.938,158.469,353.938,353.938
		S707.285,865.938,511.8,865.938z"/>
	<path fill="#FF9999" d="M612.925,512c0-55.862-45.279-101.125-101.125-101.125c-55.846,0-101.125,45.263-101.125,101.125
		c0,55.846,45.279,101.125,101.125,101.125C567.646,613.125,612.925,567.846,612.925,512z M486.519,512
		c0-13.958,11.315-25.281,25.281-25.281s25.281,11.324,25.281,25.281c0,13.957-11.315,25.281-25.281,25.281
		S486.519,525.957,486.519,512z"/>
</g>
</svg>
