<?xml version="1.0" encoding="utf-8"?>
<!-- Generator: Adobe Illustrator 16.0.0, SVG Export Plug-In . SVG Version: 6.00 Build 0)  -->
<!DOCTYPE svg PUBLIC "-//W3C//DTD SVG 1.1//EN" "http://www.w3.org/Graphics/SVG/1.1/DTD/svg11.dtd">
<svg version="1.1" id="图层_1" xmlns="http://www.w3.org/2000/svg" xmlns:xlink="http://www.w3.org/1999/xlink" x="0px" y="0px"
	 width="1024px" height="1024px" viewBox="0 0 1024 1024" enable-background="new 0 0 1024 1024" xml:space="preserve">
<g id="anchor">
	<path fill-rule="evenodd" clip-rule="evenodd" fill="#999999" d="M840.606,587.597c-0.016-4.229-0.675-8.477-2.748-12.394
		c-4.395-8.279-12.477-12.46-20.673-12.278c-0.625-0.05-1.169-0.362-1.811-0.362c-5.021,0-9.447,1.844-13.365,4.361l-101.717,24.311
		c-11.127,6.979-14.945,22.434-8.526,34.531c6.419,12.081,20.64,16.229,31.767,9.25l64.618-15.438
		c-14.829,130.34-119.658,233.242-250.87,245.076V436.156h75.844c13.957,0,25.281-11.324,25.281-25.281
		s-11.324-25.281-25.281-25.281h-75.844v-79.432c15.652-4.049,29.726-11.719,41.477-22.121c0.643-0.56,1.351-1.054,1.976-1.63
		c2.798-2.6,5.3-5.464,7.802-8.361c1.514-1.778,3.028-3.522,4.428-5.382c1.926-2.584,3.67-5.234,5.332-7.999
		c1.613-2.634,3.045-5.349,4.428-8.147c1.186-2.485,2.37-4.938,3.391-7.522c1.383-3.588,2.437-7.308,3.424-11.093
		c0.56-2.14,1.268-4.197,1.679-6.403c1.185-6.123,1.909-12.41,1.909-18.878c0-55.846-45.263-101.125-101.125-101.125
		c-55.846,0-101.125,45.279-101.125,101.125c0,6.468,0.732,12.756,1.901,18.878c0.42,2.206,1.12,4.263,1.679,6.403
		c0.987,3.786,2.041,7.505,3.44,11.093c1.004,2.584,2.189,5.037,3.39,7.522c1.366,2.798,2.815,5.514,4.428,8.147
		c1.663,2.765,3.407,5.415,5.316,7.982c1.407,1.876,2.921,3.638,4.452,5.399c2.485,2.913,4.987,5.761,7.785,8.361
		c0.634,0.576,1.333,1.07,1.975,1.63c11.744,10.402,25.816,18.072,41.477,22.121v79.432h-75.844
		c-13.966,0-25.281,11.324-25.281,25.281s11.315,25.281,25.281,25.281h75.844v428.497
		c-131.221-11.834-236.041-114.736-250.87-245.076l64.618,15.438c11.126,6.979,25.339,2.831,31.758-9.25
		c6.419-12.098,2.609-27.553-8.509-34.531L221.99,566.924c-3.925-2.518-8.345-4.361-13.365-4.361c-0.642,0-1.185,0.313-1.819,0.362
		c-8.197-0.182-16.262,3.999-20.656,12.278c-2.082,3.917-2.724,8.164-2.757,12.394c0,0.082-0.049,0.165-0.049,0.247
		C183.344,769.355,330.488,916.5,512,916.5s328.656-147.145,328.656-328.656C840.656,587.762,840.606,587.679,840.606,587.597z
		 M461.438,208.625c0-27.931,22.64-50.563,50.563-50.563c27.915,0,50.563,22.631,50.563,50.563
		c0,27.915-22.647,50.563-50.563,50.563C484.077,259.188,461.438,236.54,461.438,208.625z"/>
</g>
</svg>
