<?xml version="1.0" encoding="utf-8"?>
<!-- Generator: Adobe Illustrator 16.0.0, SVG Export Plug-In . SVG Version: 6.00 Build 0)  -->
<!DOCTYPE svg PUBLIC "-//W3C//DTD SVG 1.1//EN" "http://www.w3.org/Graphics/SVG/1.1/DTD/svg11.dtd">
<svg version="1.1" id="图层_1" xmlns="http://www.w3.org/2000/svg" xmlns:xlink="http://www.w3.org/1999/xlink" x="0px" y="0px"
	 width="1024px" height="1024px" viewBox="0 0 1024 1024" enable-background="new 0 0 1024 1024" xml:space="preserve">
<g id="call_out">
	<path fill-rule="evenodd" clip-rule="evenodd" fill="#999999" d="M706.547,564.6c-68.854,0-128.358,39.464-157.526,96.923
		c-89.532-45.428-160.845-121.587-199.638-214.832c65.263-25.971,111.446-89.592,111.446-164.11
		c0-97.593-79.107-176.691-176.7-176.691c-85.071,0-156.066,60.14-172.884,140.219h-2.406c-0.464,7.933-0.567,15.959-0.773,23.96
		c-0.284,4.151-0.627,8.284-0.627,12.513c0,2.046,0.24,4.039,0.31,6.067c2.406,323.717,247.213,589.614,561.932,625.433
		c11.895,2.51,24.218,3.902,36.868,3.902c14.971,0,29.443-2.08,43.331-5.586c0.842-0.172,1.65-0.396,2.492-0.636
		c7.804-2.08,15.486-4.521,22.826-7.615l-4.744-4.777c0.772-0.997,1.599-1.908,2.286-3.009c10.105-16.603,4.847-38.26-11.74-48.366
		l-2.956-1.427c-12.375-7.545-27.552-6.531-38.655,1.341l-1.031-1.031c-3.695,0.378-7.425,0.602-11.207,0.602
		c-10.261,0-20.144-1.529-29.528-4.263c-56.668-6.309-101.684-19.474-133.069-31.454c0.035,0.052,0.035,0.104,0.069,0.155
		c-2.991-1.135-5.879-2.424-8.834-3.609c-0.739-0.275-1.479-0.585-2.184-0.877C390.565,750.109,276.48,636.153,219.356,493.038
		c-10.115-22.121-37.848-92.204-39.438-196.165c-0.473-4.048-0.773-8.147-0.773-12.315c0-58.473,47.396-105.86,105.86-105.86
		c58.465,0,105.86,47.387,105.86,105.86c0,52.75-38.638,96.373-89.128,104.417l0.017,0.258c-18.047,1.513-32.27,16.475-32.27,34.909
		l0.318,3.266c0,10.648,4.83,20.076,12.298,26.53l-3.721,5.027c0.343,0.009,0.679,0.077,1.031,0.086
		c45.17,120.075,135.836,217.753,250.935,272.325c-0.009,0.241-0.018,0.447-0.034,0.688l0.068-0.103l7.967-3.576
		c2.819,4.572,6.582,8.629,11.481,11.603l2.956,1.427c16.604,10.124,38.261,4.864,48.385-11.739
		c3.3-5.414,4.812-11.396,4.983-17.309c12.822-43.863,52.973-76.057,100.996-76.057c58.302,0,105.568,47.267,105.568,105.586
		c0,11.722-1.977,22.945-5.5,33.481l1.427,1.409c-0.447,0.619-0.979,1.135-1.375,1.806c-9.505,15.605-4.555,35.939,11.018,45.444
		l2.784,1.341c11.516,7.013,25.575,6.119,35.991-1.065l3.507,3.438c14.368-25.576,22.671-55.019,22.671-86.456
		C883.239,643.699,804.123,564.6,706.547,564.6z M906.185,293.238c-1.994-2.002-4.228-3.626-6.532-5.045l-100.29-100.884
		c-13.734-13.75-36.044-13.75-49.776,0c-13.75,13.75-13.75,36.043,0,49.776l47.129,47.421l-196.097-0.258
		c-19.439,0-35.201,15.762-35.201,35.201s15.762,35.201,35.201,35.201l194.498,0.257l-45.53,45.789
		c-13.75,13.75-13.75,36.043,0,49.776c13.732,13.75,36.042,13.75,49.776,0l101.494-102.087c1.805-1.229,3.713-2.217,5.328-3.825
		c7.082-7.073,10.45-16.397,10.244-25.67C916.635,309.626,913.267,300.302,906.185,293.238z"/>
</g>
</svg>
