<?xml version="1.0" encoding="utf-8"?>
<!-- Generator: Adobe Illustrator 16.0.0, SVG Export Plug-In . SVG Version: 6.00 Build 0)  -->
<!DOCTYPE svg PUBLIC "-//W3C//DTD SVG 1.1//EN" "http://www.w3.org/Graphics/SVG/1.1/DTD/svg11.dtd">
<svg version="1.1" id="图层_1" xmlns="http://www.w3.org/2000/svg" xmlns:xlink="http://www.w3.org/1999/xlink" x="0px" y="0px"
	 width="1024px" height="1024px" viewBox="0 0 1024 1024" enable-background="new 0 0 1024 1024" xml:space="preserve">
<g id="location">
	<path fill-rule="evenodd" clip-rule="evenodd" fill="#999999" d="M809.747,290.678c-2.429-16.74-16.938-29.385-34.235-28.818
		c-18.545,0.624-33.085,16.165-32.462,34.71l0.411,3.118c0.312,9.527,4.611,17.954,11.192,23.854l-1.69,1.805
		c18.085,36.188,28.507,76.872,28.507,120.076c0,66.631-24.47,127.337-64.612,174.307c-2.807,1.511-5.515,3.315-7.91,5.695
		l-28.179,29.508c-0.837,0.689-1.593,1.493-2.445,2.166L566.134,774.113c0.36-0.065,0.688-0.164,1.05-0.229l-56.341,59.016
		l-56.374-59.032c0.131,0.017,0.246,0.065,0.369,0.082L342.567,654.556c-5.309-4.316-10.216-9.06-15.181-13.753l-14.688-15.378
		c-0.295-0.296-0.648-0.492-0.952-0.771c-42.662-47.643-68.92-110.245-68.92-179.23c0-148.738,120.576-269.314,269.322-269.314
		c51.426,0,99.282,14.664,140.163,39.667l0.591-0.624c6.384,8.198,16.396,13.4,27.588,13.031
		c18.545-0.624,33.086-16.166,32.462-34.727l-0.394-3.102c-0.46-13.777-9.174-25.315-21.221-30.099
		c-52.106-33.291-113.896-52.779-180.322-52.779c-185.442,0-335.772,150.33-335.772,335.764c0,85.234,31.937,162.819,84.29,221.934
		c1.51,2.773,3.282,5.432,5.629,7.779l218.02,228.269c1.091,1.542,2.232,3.036,3.602,4.414c1.896,1.904,4.005,3.431,6.188,4.792
		c13.104,9.142,31.247,7.943,42.94-3.758c2.856-2.855,4.981-6.138,6.59-9.601l213.99-224.116c2.084-2.085,3.709-4.415,5.137-6.828
		c52.846-59.245,85.144-137.192,85.144-222.885C846.771,388.212,833.248,336.475,809.747,290.678z M375.144,445.176
		c0,74.968,60.756,135.724,135.708,135.724c74.944,0,135.715-60.756,135.715-135.724c0-74.952-60.771-135.707-135.715-135.707
		C435.899,309.469,375.144,370.225,375.144,445.176z M577.293,444.701c0,36.958-29.967,66.926-66.935,66.926
		c-36.967,0-66.935-29.968-66.935-66.926c0-36.976,29.968-66.943,66.935-66.943C547.326,377.758,577.293,407.725,577.293,444.701z"
		/>
</g>
</svg>
