<?xml version="1.0" encoding="utf-8"?>
<!-- Generator: Adobe Illustrator 16.0.0, SVG Export Plug-In . SVG Version: 6.00 Build 0)  -->
<!DOCTYPE svg PUBLIC "-//W3C//DTD SVG 1.1//EN" "http://www.w3.org/Graphics/SVG/1.1/DTD/svg11.dtd">
<svg version="1.1" id="图层_1" xmlns="http://www.w3.org/2000/svg" xmlns:xlink="http://www.w3.org/1999/xlink" x="0px" y="0px"
	 width="1024px" height="1024px" viewBox="0 0 1024 1024" enable-background="new 0 0 1024 1024" xml:space="preserve">
<path fill-rule="evenodd" clip-rule="evenodd" fill="#FFCC66" d="M511.8,107.5c-49.279,0-278.094,250.903-278.094,404.5
	c0,145.055,111.091,264.022,252.813,276.811v102.408c0,13.957,11.324,25.281,25.281,25.281c13.957,0,25.281-11.324,25.281-25.281
	V788.811C678.795,776.022,789.894,657.055,789.894,512C789.894,358.403,559.795,107.5,511.8,107.5z M537.081,738.034v-91.596
	l93.851-93.851c9.414-9.398,9.414-24.655,0-34.07c-9.415-9.397-24.656-9.397-34.071,0l-59.779,59.779V385.594
	c0-13.958-11.324-25.281-25.281-25.281c-13.958,0-25.281,11.324-25.281,25.281v117.83l-59.994-59.993
	c-9.356-9.365-24.532-9.365-33.889,0c-9.366,9.365-9.366,24.524,0,33.89l78,77.999c4.395,4.394,10.123,6.551,15.883,6.814v74.512
	c-0.214,1.843-0.214,3.604,0,5.464v95.924C372.917,725.409,284.269,628.908,284.269,512c0-115.675,168.937-313.498,227.334-350.465
	C570.131,198.98,739.331,397.313,739.331,512C739.331,628.908,650.683,725.409,537.081,738.034z"/>
</svg>
