<?xml version="1.0" encoding="utf-8"?>
<!-- Generator: Adobe Illustrator 16.0.0, SVG Export Plug-In . SVG Version: 6.00 Build 0)  -->
<!DOCTYPE svg PUBLIC "-//W3C//DTD SVG 1.1//EN" "http://www.w3.org/Graphics/SVG/1.1/DTD/svg11.dtd">
<svg version="1.1" id="图层_1" xmlns="http://www.w3.org/2000/svg" xmlns:xlink="http://www.w3.org/1999/xlink" x="0px" y="0px"
	 width="1024px" height="1024px" viewBox="0 0 1024 1024" enable-background="new 0 0 1024 1024" xml:space="preserve">
<g id="heart_health">
	<path fill-rule="evenodd" clip-rule="evenodd" fill="#999999" d="M748.309,489.757c44.576,0,86.019,13.033,121.09,35.202
		c22.274-45.365,32.596-87.65,32.596-127.066v-44.681c0-135.123-100.578-205.212-178.804-212.321
		c-12.19-2.027-24.381-2.027-35.571-2.027c-89.389,0-133.068,37.572-181.831,96.498c-49.763-58.926-92.417-96.498-182.832-96.498
		c-11.19,0-23.38,0-35.571,2.027C209.16,148,108.582,218.089,108.582,353.212v44.681c0,129.014,108.714,288.519,397.207,487.623
		c19.431-13.455,37.861-26.672,55.66-39.758c-25.329-36.624-40.231-80.989-40.231-128.909
		C521.217,591.415,622.875,489.757,748.309,489.757z M265.821,585.096c0,0-187.466-153.185-78.62-308.397
		c108.846-155.212,237.861-34.281,249.972-24.197C76.354,194.05,265.821,585.096,265.821,585.096z M748.23,547.471
		c-93.496,0-169.299,75.803-169.299,169.325s75.803,169.325,169.299,169.325c93.521,0,169.351-75.803,169.351-169.325
		S841.752,547.471,748.23,547.471z M725.271,840.808c-32.017-39.547-69.668-69.668-96.05-79.094l62.138-37.651l30.121,58.373
		c0,0,48.973-118.641,126.171-158.161c-1.896,28.225-9.426,52.711,3.765,82.832C817.529,714.663,747.861,799.392,725.271,840.808z"
		/>
</g>
</svg>
