<?xml version="1.0" encoding="utf-8"?>
<!-- Generator: Adobe Illustrator 16.0.0, SVG Export Plug-In . SVG Version: 6.00 Build 0)  -->
<!DOCTYPE svg PUBLIC "-//W3C//DTD SVG 1.1//EN" "http://www.w3.org/Graphics/SVG/1.1/DTD/svg11.dtd">
<svg version="1.1" id="图层_1" xmlns="http://www.w3.org/2000/svg" xmlns:xlink="http://www.w3.org/1999/xlink" x="0px" y="0px"
	 width="1024px" height="1024px" viewBox="0 0 1024 1024" enable-background="new 0 0 1024 1024" xml:space="preserve">
<g>
	<path fill="#999999" d="M511.862,916.583c-223.047,0-404.5-181.453-404.5-404.481c0-223.047,181.453-404.52,404.5-404.52
		c223.047,0,404.5,181.473,404.5,404.52C916.362,735.13,734.909,916.583,511.862,916.583z M511.862,147.783
		c-200.866,0-364.299,163.433-364.299,364.319c0,200.867,163.433,364.28,364.299,364.28s364.299-163.413,364.299-364.28
		C876.161,311.216,712.729,147.783,511.862,147.783z"/>
</g>
<g>
	<path fill="#999999" d="M634.191,410.501V306.388H484.126v104.113H379.973h-52.076v304.744h306.294v-50.486V560.606h104.153
		V410.501H634.191z M646.46,522.113h-50.741v50.761h-73.1v-50.761h-50.761v-73.119h50.761v-50.722h73.1v50.722h50.741V522.113z"/>
</g>
</svg>
