<?xml version="1.0" encoding="utf-8"?>
<!-- Generator: Adobe Illustrator 16.0.0, SVG Export Plug-In . SVG Version: 6.00 Build 0)  -->
<!DOCTYPE svg PUBLIC "-//W3C//DTD SVG 1.1//EN" "http://www.w3.org/Graphics/SVG/1.1/DTD/svg11.dtd">
<svg version="1.1" id="图层_1" xmlns="http://www.w3.org/2000/svg" xmlns:xlink="http://www.w3.org/1999/xlink" x="0px" y="0px"
	 width="1024px" height="1024px" viewBox="0 0 1024 1024" enable-background="new 0 0 1024 1024" xml:space="preserve">
<g>
	<polygon fill="#999999" points="595.719,398.272 522.619,398.272 522.619,448.994 471.858,448.994 471.858,522.113 
		522.619,522.113 522.619,572.874 595.719,572.874 595.719,522.113 646.46,522.113 646.46,448.994 595.719,448.994 	"/>
	<path fill="#999999" d="M511.862,107.583c-223.047,0-404.5,181.473-404.5,404.52c0,223.028,181.453,404.481,404.5,404.481
		c223.047,0,404.5-181.453,404.5-404.481C916.362,289.055,734.909,107.583,511.862,107.583z M738.345,560.606H634.191v104.152
		v50.486H327.897V410.501h52.076h104.153V306.388h150.065v104.113h104.153V560.606z"/>
</g>
</svg>
