<?xml version="1.0" encoding="utf-8"?>
<!-- Generator: Adobe Illustrator 16.0.0, SVG Export Plug-In . SVG Version: 6.00 Build 0)  -->
<!DOCTYPE svg PUBLIC "-//W3C//DTD SVG 1.1//EN" "http://www.w3.org/Graphics/SVG/1.1/DTD/svg11.dtd">
<svg version="1.1" id="图层_1" xmlns="http://www.w3.org/2000/svg" xmlns:xlink="http://www.w3.org/1999/xlink" x="0px" y="0px"
	 width="1024px" height="1024px" viewBox="0 0 1024 1024" enable-background="new 0 0 1024 1024" xml:space="preserve">
<path fill="#999999" d="M653.732,707.023c-6.701-2.01-13.272-4.01-19.763-6.199c0.19-12.459-6.953-24.405-19.08-29.791
	c-15.091-6.701-29.157-17.653-34.684-47.062c38.632-5.827,75.717-21.16,108.782-45.635c10.148-7.516,14.277-19.844,12.148-31.479
	c59.55-55.331,98.062-141.266,98.062-237.961c0-41.877-7.787-83.313-21.983-121.553c6.912-9.063,9.173-21.341,4.169-32.473
	l-12.81-28.484c-7.215-16.156-26.203-23.28-42.359-16.086c-16.127,7.265-23.361,26.224-16.097,42.37l12.801,28.484
	c4.661,10.329,14.196,16.709,24.655,18.276c12.641,34.412,19.583,71.728,19.583,109.466c0,87.19-34.231,164.545-87.021,213.928
	c-9.635-3.315-20.506-2.512-29.298,3.999c-63.438,46.94-146.922,47.011-210.542-0.061c-8.801-6.501-19.632-7.324-29.268-3.999
	c-52.699-49.383-86.91-126.748-86.91-213.868c0-37.738,6.933-75.054,19.592-109.466c10.449-1.567,20.014-7.897,24.676-18.276
	l12.79-28.484c7.254-16.146,0.061-35.105-16.085-42.37c-16.146-7.194-35.105-0.07-42.38,16.086l-12.79,28.484
	c-5.014,11.132-2.743,23.41,4.189,32.413c-14.227,38.3-22.034,79.736-22.034,121.613c0,96.635,38.461,182.51,97.932,237.84
	c-2.13,11.636,1.999,24.033,12.167,31.539c34.382,25.41,73.125,40.813,113.375,46.067c6.42,51.572,30.483,86.307,73.437,105.336
	c4.219,1.818,8.6,2.692,12.94,2.692c5.063,0,9.917-1.446,14.397-3.757c9.666,3.627,19.24,6.439,28.233,9.143
	c41.325,12.318,62.937,20.456,62.937,56.768c0,53.01-101.438,89.934-192.438,89.934c-80.268,0-200.665-53.08-214.731-120.799
	c23.43-7.436,40.591-29.218,40.591-55.069c0-32.041-26.053-58.094-58.074-58.094c-32.001,0-58.043,26.053-58.043,58.094
	c0,26.846,18.467,49.312,43.314,55.893C281.188,856.356,420.936,916.5,515.059,916.5c93.189,0,224.479-37.858,224.479-121.975
	C739.537,732.674,693.942,719.04,653.732,707.023z M256.843,708.591c0-14.338,11.665-26.043,26.002-26.043
	c14.337,0,26.012,11.705,26.012,26.043c0,14.327-11.675,25.972-26.012,25.972C268.507,734.563,256.843,722.918,256.843,708.591z"/>
</svg>
