<?xml version="1.0" encoding="utf-8"?>
<!-- Generator: Adobe Illustrator 16.0.0, SVG Export Plug-In . SVG Version: 6.00 Build 0)  -->
<!DOCTYPE svg PUBLIC "-//W3C//DTD SVG 1.1//EN" "http://www.w3.org/Graphics/SVG/1.1/DTD/svg11.dtd">
<svg version="1.1" id="图层_1" xmlns="http://www.w3.org/2000/svg" xmlns:xlink="http://www.w3.org/1999/xlink" x="0px" y="0px"
	 width="1024px" height="1024px" viewBox="0 0 1024 1024" enable-background="new 0 0 1024 1024" xml:space="preserve">
<g>
	<path fill="#999999" d="M743.625,825.273c0,44.719-45.715,49.557-65.35,49.557h-65.432V605.156H404.079V874.83h-58.835
		c-19.656,0-65.36-4.838-65.36-49.557V493.665h-41.629v331.608c0,55.391,41.995,91.186,106.989,91.186h58.835h208.765h65.432
		c64.984,0,106.979-35.795,106.979-91.186V493.665h-41.629V825.273z"/>
	<path fill="#999999" d="M735.23,330.95V140.571H621.238v76.367L511.759,107.459L126.153,493.055l29.433,29.433l356.173-356.164
		l356.164,356.164l29.433-29.433L735.23,330.95z M662.867,182.2h30.734v107.122l-30.734-30.754V182.2z"/>
</g>
</svg>
