<?xml version="1.0" encoding="utf-8"?>
<!-- Generator: Adobe Illustrator 16.0.0, SVG Export Plug-In . SVG Version: 6.00 Build 0)  -->
<!DOCTYPE svg PUBLIC "-//W3C//DTD SVG 1.1//EN" "http://www.w3.org/Graphics/SVG/1.1/DTD/svg11.dtd">
<svg version="1.1" id="图层_1" xmlns="http://www.w3.org/2000/svg" xmlns:xlink="http://www.w3.org/1999/xlink" x="0px" y="0px"
	 width="1024px" height="1024px" viewBox="0 0 1024 1024" enable-background="new 0 0 1024 1024" xml:space="preserve">
<g id="microscope">
	<path fill-rule="evenodd" clip-rule="evenodd" fill="#999999" d="M549.398,556.136c0,46.159,37.395,83.573,83.554,83.573h53.674
		c-39.671,51.821-102.009,85.347-172.365,85.347c-120.042,0-217.356-97.314-217.356-217.375c0-41.384,11.726-79.927,31.813-112.789
		l51.518,29.739l16.401-28.429l123.506,71.303l-16.4,28.429l74.266,42.875l97.396-168.719l-74.266-42.875l-15.716,27.26
		l-123.506-71.324l15.715-27.24l-140.27-80.995l-15.756,27.24l-57.542-33.224l0.766-1.35l-59.315-68.785l-97.415,168.719
		l90.605,14.627l0.081-0.181l57.583,33.244l-16.421,28.429l20.773,11.988c-26.757,44.426-42.271,96.388-42.271,152.057
		c0,140.955,98.685,258.659,230.653,288.377v60.927c0,0-26.454,0-66.851,0c-40.376,0-34.816,66.852-34.816,66.852h335.665
		c0,0-4.533-66.852-36.568-66.852c-32.036,0-63.729,0-63.729,0v-61.632c85.871-20.491,157.114-78.416,195.717-155.644h55.004
		c46.14,0,83.574-37.414,83.574-83.573C783.377,556.136,702.2,556.136,549.398,556.136z"/>
</g>
</svg>
