<?xml version="1.0" encoding="utf-8"?>
<!-- Generator: Adobe Illustrator 16.0.0, SVG Export Plug-In . SVG Version: 6.00 Build 0)  -->
<!DOCTYPE svg PUBLIC "-//W3C//DTD SVG 1.1//EN" "http://www.w3.org/Graphics/SVG/1.1/DTD/svg11.dtd">
<svg version="1.1" id="图层_1" xmlns="http://www.w3.org/2000/svg" xmlns:xlink="http://www.w3.org/1999/xlink" x="0px" y="0px"
	 width="1024px" height="1024px" viewBox="0 0 1024 1024" enable-background="new 0 0 1024 1024" xml:space="preserve">
<g>
	<path fill="#CCCCCC" d="M790.165,688.627H233.978c-13.966,0-25.281,11.324-25.281,25.281c0,13.958,11.315,25.281,25.281,25.281
		h556.187c13.958,0,25.281-11.323,25.281-25.281C815.446,699.951,804.123,688.627,790.165,688.627z"/>
	<path fill="#CCCCCC" d="M840.728,107.167H183.416c-41.889,0-75.844,33.955-75.844,75.844v657.304
		c0,41.905,33.955,75.844,75.844,75.844h657.312c41.889,0,75.844-33.938,75.844-75.844V183.011
		C916.571,141.122,882.616,107.167,840.728,107.167z M259.259,157.729h328.656v202.25l74.643-50.563l77.045,50.563v-202.25h75.844
		c27.932,0,50.563,22.631,50.563,50.563v379.21h-606.75V157.729z M158.134,208.292c0-27.931,22.64-50.563,50.563-50.563v429.772
		c-18.665,0-35.733,2.469-50.563,7.374V208.292z M866.009,688.627v126.406c0,24.82-25.61,50.563-50.908,50.563
		c-154.32,0-606.404,0-606.404,0c-27.923,0-50.563-22.614-50.563-50.563V688.627c0-27.914,22.64-50.563,50.563-50.563h657.312
		C866.289,638.064,866.009,660.713,866.009,688.627z"/>
	<path fill="#CCCCCC" d="M790.165,764.471H233.978c-13.966,0-25.281,11.324-25.281,25.281c0,13.958,11.315,25.281,25.281,25.281
		h556.187c13.958,0,25.281-11.323,25.281-25.281C815.446,775.795,804.123,764.471,790.165,764.471z"/>
</g>
</svg>
