<?xml version="1.0" encoding="utf-8"?>
<!-- Generator: Adobe Illustrator 16.0.0, SVG Export Plug-In . SVG Version: 6.00 Build 0)  -->
<!DOCTYPE svg PUBLIC "-//W3C//DTD SVG 1.1//EN" "http://www.w3.org/Graphics/SVG/1.1/DTD/svg11.dtd">
<svg version="1.1" id="图层_1" xmlns="http://www.w3.org/2000/svg" xmlns:xlink="http://www.w3.org/1999/xlink" x="0px" y="0px"
	 width="1024px" height="1024px" viewBox="0 0 1024 1024" enable-background="new 0 0 1024 1024" xml:space="preserve">
<g>
	<path fill="#999999" d="M444.918,222.592C351.774,51.786,89.372,116.079,108.487,334.585c0,150.254,186.19,312.161,282.05,385.583
		c-8.615-13.697-15.681-28.437-20.937-43.957c-14.752-28.325-23.182-60.275-23.182-93.943c0-1.377,0.05-2.752,0.1-4.123
		c-0.025-1.375-0.1-2.738-0.1-4.127c0-0.807,0.05-1.6,0.05-2.398c0-0.577-0.05-1.146-0.05-1.724
		c0-113.084,94.359-207.45,207.451-207.45c35.873,0,69.863,9.526,99.553,26.125c35.861,18.415,65.576,47.601,84.518,83.147
		c26.354-44.917,43.387-91.564,43.387-137.132C800.439,116.079,537.418,51.786,444.918,222.592z"/>
	<g>
		<g>
			<path fill="#999999" d="M667.541,670.484c-54.432,60.797-148.158,65.973-208.95,11.553
				c-60.803-54.412-65.984-148.146-11.565-208.931c54.419-60.803,148.16-65.985,208.949-11.566
				C716.766,515.953,721.947,609.693,667.541,670.484z M500.354,520.838c-28.09,31.387-25.412,79.775,5.976,107.871
				c31.387,28.096,79.768,25.412,107.872-5.963c28.09-31.387,25.412-79.775-5.977-107.871
				C576.838,486.786,528.469,489.457,500.354,520.838z"/>
		</g>
		<g>
			<path fill="#999999" d="M707.717,704.004c-12.371,13.809-26.428,25.318-41.613,34.585l164.211,147.006
				c21.271,19.041,53.961,17.237,73.014-4.035c19.041-21.277,17.23-53.96-4.041-73.001L735.844,662.26
				C728.518,677.116,719.172,691.18,707.717,704.004z"/>
		</g>
	</g>
</g>
</svg>
