<?xml version="1.0" encoding="utf-8"?>
<!-- Generator: Adobe Illustrator 16.0.0, SVG Export Plug-In . SVG Version: 6.00 Build 0)  -->
<!DOCTYPE svg PUBLIC "-//W3C//DTD SVG 1.1//EN" "http://www.w3.org/Graphics/SVG/1.1/DTD/svg11.dtd">
<svg version="1.1" id="图层_1" xmlns="http://www.w3.org/2000/svg" xmlns:xlink="http://www.w3.org/1999/xlink" x="0px" y="0px"
	 width="1024px" height="1024px" viewBox="0 0 1024 1024" enable-background="new 0 0 1024 1024" xml:space="preserve">
<g id="medical_case">
	<path fill-rule="evenodd" clip-rule="evenodd" fill="#999999" d="M440.117,164.773H613.85v58.517h57.924v-28.955h-30.167v-86.866
		H411.148v87.472h-28.942v28.35h57.911V164.773z M845.52,252.245H179.479c-31.971,0-57.911,25.94-57.911,57.924V802.45
		c0,31.984,25.94,57.911,57.911,57.911h57.937v56.106h115.822v-56.106h318.536v56.106h115.835v-56.106h57.911
		c31.971,0,57.91-25.927,57.91-57.911V310.169C903.43,278.185,877.49,252.245,845.52,252.245z M671.761,599.736H555.938v115.835
		H469.06V599.736H353.238V512.87H469.06V397.035h86.879V512.87h115.822V599.736z"/>
</g>
</svg>
