<?xml version="1.0" encoding="utf-8"?>
<!-- Generator: Adobe Illustrator 16.0.0, SVG Export Plug-In . SVG Version: 6.00 Build 0)  -->
<!DOCTYPE svg PUBLIC "-//W3C//DTD SVG 1.1//EN" "http://www.w3.org/Graphics/SVG/1.1/DTD/svg11.dtd">
<svg version="1.1" id="图层_1" xmlns="http://www.w3.org/2000/svg" xmlns:xlink="http://www.w3.org/1999/xlink" x="0px" y="0px"
	 width="1024px" height="1024px" viewBox="0 0 1024 1024" enable-background="new 0 0 1024 1024" xml:space="preserve">
<g id="hospital_chart">
	<path fill-rule="evenodd" clip-rule="evenodd" fill="#999999" d="M698.373,204.562h-49.452
		c-10.195-9.97-24.134-16.177-39.54-16.177h-9.01c-4.628-45.371-42.493-80.885-89.087-80.885c-46.593,0-84.458,35.514-89.086,80.885
		h-6.979c-15.406,0-29.344,6.208-39.558,16.177h-49.434c-44.675,0-97.081,36.229-97.081,80.904v550.111
		c0,44.694,52.406,80.923,97.081,80.923h372.146c44.675,0,97.081-36.229,97.081-80.923V285.466
		C795.454,240.791,743.048,204.562,698.373,204.562z M511.284,151.592c25.356,0,45.897,20.541,45.897,45.897
		s-20.541,45.897-45.897,45.897c-25.337,0-45.897-20.541-45.897-45.897S485.947,151.592,511.284,151.592z M746.904,787.047
		c0,44.693-36.229,80.903-80.904,80.903H358.581c-44.675,0-80.885-36.21-80.885-80.903V317.838c0-44.693,36.21-80.904,80.885-80.904
		h0.828c-0.395,2.652-0.828,5.324-0.828,8.089c0,31.282,25.356,56.638,56.638,56.638h194.162c31.282,0,56.619-25.356,56.619-56.638
		c0-2.765-0.433-5.437-0.809-8.089H666c44.675,0,80.904,36.21,80.904,80.904V787.047z M674.089,528.177H350.493
		c-13.393,0-24.266,10.854-24.266,24.266c0,13.394,10.873,24.266,24.266,24.266h323.596c13.412,0,24.284-10.872,24.284-24.266
		C698.373,539.03,687.501,528.177,674.089,528.177z M674.089,609.062H350.493c-13.393,0-24.266,10.873-24.266,24.285
		c0,13.393,10.873,24.265,24.266,24.265h323.596c13.412,0,24.284-10.872,24.284-24.265
		C698.373,619.935,687.501,609.062,674.089,609.062z M674.089,366.37H350.493c-13.393,0-24.266,10.872-24.266,24.265
		c0,13.412,10.873,24.266,24.266,24.266h323.596c13.412,0,24.284-10.854,24.284-24.266
		C698.373,377.242,687.501,366.37,674.089,366.37z M674.089,447.273H350.493c-13.393,0-24.266,10.854-24.266,24.265
		c0,13.412,10.873,24.285,24.266,24.285h323.596c13.412,0,24.284-10.873,24.284-24.285
		C698.373,458.127,687.501,447.273,674.089,447.273z M480.002,692.712c-54.606,27.972-89.237,111.866-89.237,111.866l-21.293-41.271
		l-43.941,26.617c18.641,6.658,45.277,27.971,67.906,55.942c15.989-29.307,65.253-89.237,89.218-94.561
		C473.344,730.014,478.667,712.688,480.002,692.712z"/>
</g>
</svg>
