<?xml version="1.0" encoding="utf-8"?>
<!-- Generator: Adobe Illustrator 16.0.0, SVG Export Plug-In . SVG Version: 6.00 Build 0)  -->
<!DOCTYPE svg PUBLIC "-//W3C//DTD SVG 1.1//EN" "http://www.w3.org/Graphics/SVG/1.1/DTD/svg11.dtd">
<svg version="1.1" id="图层_1" xmlns="http://www.w3.org/2000/svg" xmlns:xlink="http://www.w3.org/1999/xlink" x="0px" y="0px"
	 width="1024px" height="1024px" viewBox="0 0 1024 1024" enable-background="new 0 0 1024 1024" xml:space="preserve">
<g>
	<path fill="#999999" d="M733.086,107.5h-37.654H328.577h-37.645c-14.391,0-26.064,11.655-26.064,26.055
		c0,14.4,11.673,26.056,26.064,26.056h37.645v573.46c0,101.157,82.282,183.43,183.423,183.43
		c101.158,0,183.432-82.272,183.432-183.43V159.61h37.654c14.391,0,26.047-11.655,26.047-26.056
		C759.133,119.155,747.477,107.5,733.086,107.5z M643.338,733.07c0,72.416-58.922,131.329-131.338,131.329
		c-72.415,0-131.32-58.913-131.32-131.329V489.312c7.759,2.082,14.073,5.03,20.729,8.191c13.526,6.51,28.865,13.894,58.016,13.894
		c29.208,0,44.581-7.384,58.138-13.894c12.645-6.061,23.564-11.297,46.843-11.297s34.206,5.236,46.849,11.297
		c8.75,4.224,18.631,8.552,32.084,11.248V733.07z M643.338,482.237c-7.8-2.083-14.13-4.99-20.82-8.192
		c-13.558-6.51-28.905-13.886-58.112-13.886c-29.2,0-44.556,7.376-58.114,13.886c-12.644,6.053-23.572,11.296-46.867,11.296
		c-23.229,0-34.125-5.243-46.752-11.296c-8.714-4.173-18.589-8.552-31.992-11.238V159.61h262.658V482.237z"/>
	<path fill="#999999" d="M456.565,452.017c23.711,0,42.995-19.284,42.995-42.995s-19.284-42.995-42.995-42.995
		c-23.727,0-43.011,19.284-43.011,42.995S432.839,452.017,456.565,452.017z M456.565,392.073c9.345,0,16.948,7.589,16.948,16.948
		c0,9.36-7.603,16.939-16.948,16.939c-9.36,0-16.964-7.579-16.964-16.939C439.601,399.662,447.206,392.073,456.565,392.073z"/>
	<path fill="#999999" d="M495.935,341.761c23.71,0,43.011-19.285,43.011-42.995c0-23.712-19.301-42.995-43.011-42.995
		c-23.703,0-43.004,19.283-43.004,42.995C452.931,322.476,472.231,341.761,495.935,341.761z M495.935,281.817
		c9.352,0,16.964,7.587,16.964,16.948c0,9.352-7.612,16.939-16.964,16.939c-9.344,0-16.957-7.588-16.957-16.939
		C478.978,289.404,486.591,281.817,495.935,281.817z"/>
	<path fill="#999999" d="M580.209,422.041c23.728,0,43.028-19.275,43.028-42.987c0-23.711-19.301-42.995-43.028-42.995
		c-23.711,0-42.995,19.284-42.995,42.995C537.214,402.766,556.498,422.041,580.209,422.041z M580.209,362.114
		c9.361,0,16.965,7.571,16.965,16.939c0,9.303-7.604,16.948-16.965,16.948c-9.335,0-16.948-7.646-16.948-16.948
		C563.261,369.686,570.874,362.114,580.209,362.114z"/>
</g>
</svg>
