<?xml version="1.0" encoding="utf-8"?>
<!-- Generator: Adobe Illustrator 16.0.0, SVG Export Plug-In . SVG Version: 6.00 Build 0)  -->
<!DOCTYPE svg PUBLIC "-//W3C//DTD SVG 1.1//EN" "http://www.w3.org/Graphics/SVG/1.1/DTD/svg11.dtd">
<svg version="1.1" id="图层_1" xmlns="http://www.w3.org/2000/svg" xmlns:xlink="http://www.w3.org/1999/xlink" x="0px" y="0px"
	 width="1024px" height="1024px" viewBox="0 0 1024 1024" enable-background="new 0 0 1024 1024" xml:space="preserve">
<g>
	<path fill="#CCCCCC" d="M326.037,281.369c103.151,47.025,199.61,56.975,215.462,22.209c10.128-22.19-15.103-57.251-61.496-91.938
		l-189.798,51.921C301.616,269.721,313.579,275.683,326.037,281.369z"/>
	<path fill="#CCCCCC" d="M243.357,235.133l196.096-50.46c-17.195-10.207-35.97-20.078-56.008-29.198
		c-103.151-47.045-199.61-56.995-215.463-22.229C156.888,157.567,188.218,197.328,243.357,235.133z"/>
	<path fill="#CCCCCC" d="M638.609,615.629c111.897-119.706,169.938-247.317,129.586-285.044
		c-25.743-24.085-85.403-5.646-154.282,41.952l-16.188,283.997C611.405,643.701,625.066,630.04,638.609,615.629z"/>
	<path fill="#CCCCCC" d="M481.306,424.379l0.869,0.415l43.433-87.338c-34.707,17.63-118.965,3.83-208.119-36.799
		c-93.813-42.8-161.646-101.039-165.24-138.825l-40.826,82.146l2.132,1.046c-1.797,1.954-3.277,4.106-4.363,6.475
		c-15.853,34.766,54.902,101.079,158.054,148.104C367.771,445.443,461.92,456.045,481.306,424.379z"/>
	<path fill="#CCCCCC" d="M558.319,415.712c-21.913,18.853-44.083,40.056-65.8,63.292
		C380.583,598.689,322.542,726.302,362.895,764.009c28.231,26.414,97.13,1.776,174.281-56.383L558.319,415.712z"/>
	<path fill="#CCCCCC" d="M906.033,468.66l0.987-0.987l-99.716-99.716c8.192,55.652-49.493,164.786-146.209,268.243
		C559.287,745.057,448.258,811.231,394.837,798.754l93.754,93.774l2.428-2.487c1.855,3.355,4.106,6.396,6.85,8.963
		c40.333,37.707,163.779-28.705,275.696-148.42C882.659,633.949,940.503,509.822,906.033,468.66z"/>
</g>
</svg>
