<?xml version="1.0" encoding="utf-8"?>
<!-- Generator: Adobe Illustrator 16.0.0, SVG Export Plug-In . SVG Version: 6.00 Build 0)  -->
<!DOCTYPE svg PUBLIC "-//W3C//DTD SVG 1.1//EN" "http://www.w3.org/Graphics/SVG/1.1/DTD/svg11.dtd">
<svg version="1.1" id="图层_1" xmlns="http://www.w3.org/2000/svg" xmlns:xlink="http://www.w3.org/1999/xlink" x="0px" y="0px"
	 width="1024px" height="1024px" viewBox="0 0 1024 1024" enable-background="new 0 0 1024 1024" xml:space="preserve">
<g id="telephone_xA0_剪贴路径">
	<path fill="#999999" d="M495.607,622.853c-0.777-0.513-90.164-149.634-90.445-151.568c-18.473-40.055-33.39-81.019-2.315-99.227
		L273.836,156.289c-33.407,24.807-127.986,159.375,49.001,464.281c186.414,321.346,363.848,307.967,399.421,286.22L596.537,696.132
		C566.868,713.463,541.813,684.902,495.607,622.853z M808.535,824.978l0.033-0.133c0,0-98.152-164.104-98.219-164.203
		c-7.772-12.999-24.509-17.067-37.557-9.51l-60.115,35.292l126.035,211.237c0,0,60.147-35.11,60.114-35.209l0.132-0.05
		C812.735,854.315,815.911,837.479,808.535,824.978z M479.4,327.323l0.033-0.099c13.792-8.12,17.051-24.89,9.658-37.293l0.05-0.165
		c0,0-100.98-168.9-101.046-168.95c-7.756-13.048-24.542-17.083-37.524-9.525l-60.148,35.292l128.846,215.917
		C419.252,362.482,479.367,327.405,479.4,327.323z"/>
</g>
</svg>
