<?xml version="1.0" encoding="utf-8"?>
<!-- Generator: Adobe Illustrator 16.0.0, SVG Export Plug-In . SVG Version: 6.00 Build 0)  -->
<!DOCTYPE svg PUBLIC "-//W3C//DTD SVG 1.1//EN" "http://www.w3.org/Graphics/SVG/1.1/DTD/svg11.dtd">
<svg version="1.1" id="图层_1" xmlns="http://www.w3.org/2000/svg" xmlns:xlink="http://www.w3.org/1999/xlink" x="0px" y="0px"
	 width="1024px" height="1024px" viewBox="0 0 1024 1024" enable-background="new 0 0 1024 1024" xml:space="preserve">
<g>
	<path fill="#999999" d="M111.208,912.812c4.939,4.918,12.918,4.918,17.859,0l126.608-126.683l18.243,18.241
		c4.746,4.738,11.154,7.429,17.846,7.429c6.697,0,13.122-2.69,17.848-7.429l43.94-43.912l38.545,38.532
		c9.479,9.47,26.238,9.47,35.694,0L747.43,479.358c4.747-4.738,7.414-11.14,7.414-17.876c0-6.677-2.667-13.093-7.414-17.816
		l-32.966-32.965L840.41,284.77l32.95,32.913c9.874,9.88,25.871,9.88,35.722,0c9.875-9.844,9.875-25.813,0-35.693L742.004,114.926
		c-4.939-4.968-11.393-7.426-17.859-7.426c-6.461,0-12.916,2.458-17.861,7.426c-9.867,9.837-9.867,25.814,0,35.695l32.957,32.958
		L613.281,309.517l-32.943-32.966c-4.926-4.918-11.395-7.377-17.863-7.377c-6.453,0-12.904,2.459-17.846,7.377l-319.631,319.64
		c-9.857,9.836-9.857,25.856,0,35.691l38.554,38.532l-43.934,43.956c-9.875,9.837-9.875,25.857,0,35.7l18.212,18.241
		L111.208,894.938C106.281,899.854,106.281,907.842,111.208,912.812z M774.965,219.28l29.744,29.745L678.78,374.956l-29.776-29.746
		L774.965,219.28z M562.477,330.12l131.399,131.362L409.944,745.42L278.566,614.014L562.477,330.12z M299.251,706.159l18.608,18.606
		l-26.097,26.087l-18.605-18.606L299.251,706.159z"/>
	<path fill="#999999" d="M408.632,638.797l-51.72-51.706c-2.467-2.458-5.688-3.718-8.919-3.718c-3.234,0-6.454,1.259-8.928,3.718
		c-4.91,4.927-4.91,12.899,0,17.824l51.706,51.713c4.925,4.972,12.921,4.972,17.859,0
		C413.543,651.704,413.543,643.725,408.632,638.797z"/>
	<path fill="#999999" d="M409.371,609.744c4.939,4.918,12.929,4.918,17.846,0c4.941-4.925,4.941-12.906,0-17.869l-37.547-37.549
		c-2.467-2.466-5.715-3.673-8.936-3.673c-3.234,0-6.452,1.207-8.928,3.673c-4.925,4.963-4.925,12.943,0,17.861L409.371,609.744z"/>
	<path fill="#999999" d="M442.127,577.017c4.926,4.926,12.913,4.926,17.846,0c4.94-4.962,4.94-12.95,0-17.867l-37.568-37.556
		c-2.476-2.452-5.692-3.711-8.928-3.711c-3.221,0-6.452,1.259-8.928,3.711c-4.925,4.925-4.925,12.906,0,17.868L442.127,577.017z"/>
	<path fill="#999999" d="M489.006,558.403c4.938,4.918,12.927,4.918,17.86,0c4.924-4.918,4.924-12.906,0-17.868l-51.706-51.713
		c-2.476-2.452-5.709-3.659-8.927-3.659c-3.234,0-6.47,1.207-8.937,3.659c-4.933,4.971-4.933,12.958,0,17.868L489.006,558.403z"/>
	<path fill="#999999" d="M507.596,511.518c4.94,4.927,12.92,4.927,17.862,0c4.925-4.962,4.925-12.942,0-17.867l-37.554-37.55
		c-2.475-2.467-5.708-3.71-8.928-3.71c-3.233,0-6.469,1.243-8.935,3.71c-4.919,4.919-4.919,12.907,0,17.87L507.596,511.518z"/>
	<path fill="#999999" d="M540.368,478.8c4.911,4.917,12.905,4.917,17.83,0c4.935-4.971,4.935-12.959,0-17.868l-37.556-37.557
		c-2.474-2.511-5.691-3.718-8.926-3.718c-3.233,0-6.46,1.207-8.933,3.718c-4.927,4.918-4.927,12.907,0,17.824L540.368,478.8z"/>
	<path fill="#999999" d="M587.229,460.186c4.94,4.917,12.922,4.917,17.849,0c4.938-4.963,4.938-12.95,0-17.867l-51.691-51.715
		c-2.46-2.46-5.692-3.719-8.919-3.719c-3.233,0-6.468,1.259-8.927,3.719c-4.926,4.918-4.926,12.906,0,17.878L587.229,460.186z"/>
</g>
</svg>
