<?xml version="1.0" encoding="utf-8"?>
<!-- Generator: Adobe Illustrator 16.0.0, SVG Export Plug-In . SVG Version: 6.00 Build 0)  -->
<!DOCTYPE svg PUBLIC "-//W3C//DTD SVG 1.1//EN" "http://www.w3.org/Graphics/SVG/1.1/DTD/svg11.dtd">
<svg version="1.1" id="图层_1" xmlns="http://www.w3.org/2000/svg" xmlns:xlink="http://www.w3.org/1999/xlink" x="0px" y="0px"
	 width="1024px" height="1024px" viewBox="0 0 1024 1024" enable-background="new 0 0 1024 1024" xml:space="preserve">
<g id="speed">
	<path fill-rule="evenodd" clip-rule="evenodd" fill="#999999" d="M379.278,734.417c0,28.833,21.388,52.452,49.115,56.441V677.976
		C400.666,681.984,379.278,705.604,379.278,734.417z M516.393,643.061c44.079,0,79.823-35.706,79.823-79.745
		c0-44.059-35.744-79.784-79.823-79.784s-79.824,35.726-79.824,79.784C436.569,607.354,472.313,643.061,516.393,643.061z
		 M516.393,515.129c23.461,0,42.459,14.199,42.459,31.717c0,17.497-18.998,31.696-42.459,31.696
		c-23.461,0-42.459-14.199-42.459-31.696C473.933,529.328,492.931,515.129,516.393,515.129z M614.622,505.354
		c1.54-3.061,118.708-220.374,118.708-220.374L555.791,457.799C555.791,457.799,600.305,467.002,614.622,505.354z M512.008,258.832
		c53.875,0,103.719,16.944,144.796,45.6l33.296-30.907c-49.727-37.167-111.224-59.423-178.092-59.423
		c-164.624,0-298.085,133.362-298.085,297.907c0,0.514,0.079,1.007,0.079,1.521h1.541v16.372h98.229v-32.724h-54.348
		C267.126,364.29,377.086,258.832,512.008,258.832z M493.879,791.688h32.743V677.146h-32.743V791.688z M754.402,339.051
		c-7.544,10.605-17.596,24.725-27.747,38.964c24.351,38.885,38.668,84.722,38.668,133.994c0,0.514-0.06,1.007-0.06,1.521h44.751
		c0-0.514,0.078-1.007,0.078-1.521C810.093,447.431,789.317,387.85,754.402,339.051z M592.108,677.976v112.883
		c27.747-3.989,49.135-27.608,49.135-56.441C641.243,705.604,619.855,681.984,592.108,677.976z M444.765,791.688h32.743V677.146
		h-32.743V791.688z M542.994,791.688h32.763V677.146h-32.763V791.688z M511.989,107.756c-223.396,0-404.49,180.996-404.49,404.253
		c0,223.237,181.094,404.233,404.49,404.233c223.416,0,404.509-180.996,404.509-404.233
		C916.498,288.751,735.404,107.756,511.989,107.756z M511.969,855.555c-189.823,0-343.744-153.821-343.744-343.546
		c0-189.744,153.92-343.546,343.744-343.546c189.863,0,343.783,153.802,343.783,343.546
		C855.752,701.733,701.832,855.555,511.969,855.555z"/>
</g>
</svg>
