<?xml version="1.0" encoding="utf-8"?>
<!-- Generator: Adobe Illustrator 16.0.0, SVG Export Plug-In . SVG Version: 6.00 Build 0)  -->
<!DOCTYPE svg PUBLIC "-//W3C//DTD SVG 1.1//EN" "http://www.w3.org/Graphics/SVG/1.1/DTD/svg11.dtd">
<svg version="1.1" id="图层_1" xmlns="http://www.w3.org/2000/svg" xmlns:xlink="http://www.w3.org/1999/xlink" x="0px" y="0px"
	 width="1024px" height="1024px" viewBox="0 0 1024 1024" enable-background="new 0 0 1024 1024" xml:space="preserve">
<g>
	<path fill="#999999" d="M830.622,316.948h-88.298c-6.33-50.277-29.027-96.771-65.428-133.17
		c-43.386-43.406-101.093-67.299-162.448-67.299c-61.364,0-119.052,23.894-162.448,67.299c-36.41,36.4-59.087,82.894-65.437,133.17
		H193.75c-47.526,0-86.069,38.523-86.069,86.059v418.696c0,47.517,38.542,86.059,86.069,86.059h636.873
		c47.536,0,86.059-38.542,86.059-86.059V403.006C916.681,355.471,878.158,316.948,830.622,316.948z M514.448,186.479
		c78.069,0,143.265,56.317,157.045,130.468h-314.08C371.194,242.797,436.37,186.479,514.448,186.479z M520.798,780.207
		c-96.654,0-175.003-78.339-175.003-174.994c0-96.635,78.349-174.993,175.003-174.993c96.636,0,174.975,78.358,174.975,174.993
		C695.772,701.868,617.434,780.207,520.798,780.207z"/>
	<polygon fill="#999999" points="555.229,499.082 486.357,499.082 486.357,566.478 417.514,566.478 417.514,636.788 
		486.357,636.788 486.357,705.612 555.229,705.612 555.229,636.788 624.072,636.788 624.072,566.478 555.229,566.478 	"/>
</g>
</svg>
