<?xml version="1.0" encoding="utf-8"?>
<!-- Generator: Adobe Illustrator 16.0.0, SVG Export Plug-In . SVG Version: 6.00 Build 0)  -->
<!DOCTYPE svg PUBLIC "-//W3C//DTD SVG 1.1//EN" "http://www.w3.org/Graphics/SVG/1.1/DTD/svg11.dtd">
<svg version="1.1" id="图层_1" xmlns="http://www.w3.org/2000/svg" xmlns:xlink="http://www.w3.org/1999/xlink" x="0px" y="0px"
	 width="1024px" height="1024px" viewBox="0 0 1024 1024" enable-background="new 0 0 1024 1024" xml:space="preserve">
<g>
	<polygon fill="#999999" points="716.263,659.471 637.932,785.852 671.046,806.377 749.373,679.988 	"/>
	<polygon fill="#999999" points="352.094,433.58 273.763,559.965 631.309,781.747 709.643,655.361 	"/>
	<path fill="#999999" d="M776.921,697.063l-20.925-12.966L677.67,810.479l20.917,12.965c5.581,3.463,12.916,1.735,16.378-3.85
		l65.795-106.16C784.226,707.849,782.502,700.521,776.921,697.063z"/>
	<path fill="#999999" d="M191.297,333.796c-5.583-3.458-12.914-1.743-16.375,3.844l-65.8,106.158
		c-3.458,5.581-1.737,12.92,3.844,16.382l147.553,91.573l78.333-126.384L191.297,333.796z"/>
	<path fill="#999999" d="M848.613,495.079c5.881-27.845,30.93-50.657,44.355-75.005c12.787-23.181,23.025-48.781,23.363-75.599
		c0.194-14.198-4.481-31.253-9.214-44.548c-7.034-19.802-23.755-40.356-38.501-54.883c-7.701-7.598-16.098-14.756-24.836-21.121
		c-15.884-11.588-35.47-23.051-55.462-24.775c-22.45-1.938-40.826,14.712-52.73,32.249c-15.16,22.329-29.352,45.502-41.545,69.598
		c-11.181,22.1-17.192,46.354-8.792,70.554c5.585,16.07,15.188,31.775,28.027,43.078c9.93,8.743,27.587,12.745,32.943,25.852
		c4.353,10.656-4.573,20.632-11.429,27.149c-25.235,23.987-46.658,66.7-28.522,100.621c14.1,26.368,39.061,42.344,62.907,58.882
		c21.857,15.161,44.699,30.405,53.967,56.652c6.807,19.27,5.346,42.652-6.528,59.666c-2.755,3.964-5.695,8.431-9.275,11.98
		c-1.525,1.514-3.173,2.86-4.961,3.926c2.735,1.001,6.133,0.532,9.241,0.528c13.733-0.019,26.197-18.17,33.251-27.925
		c10.363-14.354,18.535-30.101,27.271-45.463c11.942-20.997,23.158-42.618,28.808-66.259c7.556-31.577-7.762-47.13-25.247-72.114
		C864.751,532.477,844.123,516.301,848.613,495.079z"/>
</g>
</svg>
