<?xml version="1.0" encoding="utf-8"?>
<!-- Generator: Adobe Illustrator 16.0.0, SVG Export Plug-In . SVG Version: 6.00 Build 0)  -->
<!DOCTYPE svg PUBLIC "-//W3C//DTD SVG 1.1//EN" "http://www.w3.org/Graphics/SVG/1.1/DTD/svg11.dtd">
<svg version="1.1" id="图层_1" xmlns="http://www.w3.org/2000/svg" xmlns:xlink="http://www.w3.org/1999/xlink" x="0px" y="0px"
	 width="1024px" height="1024px" viewBox="0 0 1024 1024" enable-background="new 0 0 1024 1024" xml:space="preserve">
<g>
	<path fill="#999999" d="M916.835,508.368V398.247c0-52.151-39.54-85.854-100.725-85.854h-79.462
		c-6.832-48.621-29.032-93.538-64.343-128.857C629.283,140.494,572.061,116.8,511.22,116.8c-60.85,0-118.054,23.693-161.086,66.735
		c-35.329,35.32-57.51,80.237-64.353,128.857h-77.203c-61.185,0-100.725,33.703-100.725,85.854v312.22h0.01v110.121
		c0,52.152,39.54,85.854,100.734,85.854H816.11c61.204,0,100.743-33.702,100.743-85.854v-312.22H916.835z M511.22,186.215
		c76.266,0,140.054,54.256,154.981,126.178H356.239C371.176,240.471,434.935,186.215,511.22,186.215z M816.11,867.247H208.597
		c-18.507,0-61.539-4.555-61.539-46.659v-312.22h-0.009V398.247c0-42.104,43.032-46.659,61.529-46.659H816.11
		c18.487,0,61.529,4.555,61.529,46.659v312.22h0.019v110.121C877.658,862.692,834.617,867.247,816.11,867.247z"/>
	<path fill="#999999" d="M517.517,427.911c-95.844,0-173.536,77.701-173.536,173.526c0,95.845,77.692,173.526,173.536,173.526
		c95.824,0,173.507-77.682,173.507-173.526C691.023,505.612,613.341,427.911,517.517,427.911z M619.925,632.747h-68.266v68.247
		h-68.295v-68.247h-68.266v-69.721h68.266v-66.831h68.295v66.831h68.266V632.747z"/>
</g>
</svg>
