<?xml version="1.0" encoding="utf-8"?>
<!-- Generator: Adobe Illustrator 16.0.0, SVG Export Plug-In . SVG Version: 6.00 Build 0)  -->
<!DOCTYPE svg PUBLIC "-//W3C//DTD SVG 1.1//EN" "http://www.w3.org/Graphics/SVG/1.1/DTD/svg11.dtd">
<svg version="1.1" id="图层_1" xmlns="http://www.w3.org/2000/svg" xmlns:xlink="http://www.w3.org/1999/xlink" x="0px" y="0px"
	 width="1024px" height="1024px" viewBox="0 0 1024 1024" enable-background="new 0 0 1024 1024" xml:space="preserve">
<path fill="#999999" d="M512.123,107.313c-223.39,0-404.478,181.11-404.478,404.5c0,223.369,181.088,404.5,404.478,404.5
	s404.5-181.131,404.5-404.5C916.622,288.422,735.513,107.313,512.123,107.313z M752.992,800.673
	c-63.53,59.192-147.373,90.816-240.848,90.816c-96.265,0-183.289-32.561-246.035-96.243l17.762-8.87l-5.667,5.274
	c34.064-34.043,83.711-52.48,148.135-54.66v-12.313c-27.417,0.261-86.741-7.323-154.172-74.646l-19.746-19.658l27.592-3.008
	c2.528-0.305,63.225-8.718,76.584-93.453c0.262-7.148,2.419-51.042,18.743-97.202c24.039-67.78,67.169-107.097,124.771-113.722
	c-0.196,0,6.408-1.155,16.76-1.155c21.946,0,63.987,5.405,98.836,41.801c39.949,41.736,58.604,111.107,55.444,206.304
	c1.918,7.803,13.644,47.141,56.077,56.316l18.547,4.01L735.6,646.413c-1.743,2.703-41.691,64.38-145.41,74.515l2.397,19.833
	c22.404,0.566,66.995,4.62,109.058,25.324c15.976,7.89,28.507,8.304,40.494,19.397C742.139,785.482,763.039,791.345,752.992,800.673
	z"/>
</svg>
