<?xml version="1.0" encoding="utf-8"?>
<!-- Generator: Adobe Illustrator 16.0.0, SVG Export Plug-In . SVG Version: 6.00 Build 0)  -->
<!DOCTYPE svg PUBLIC "-//W3C//DTD SVG 1.1//EN" "http://www.w3.org/Graphics/SVG/1.1/DTD/svg11.dtd">
<svg version="1.1" id="图层_1" xmlns="http://www.w3.org/2000/svg" xmlns:xlink="http://www.w3.org/1999/xlink" x="0px" y="0px"
	 width="1024px" height="1024px" viewBox="0 0 1024 1024" enable-background="new 0 0 1024 1024" xml:space="preserve">
<path fill-rule="evenodd" clip-rule="evenodd" fill="#999999" d="M543.404,273.546c251.303,36.901,265.148-165.983,265.148-165.983
	h-70.247c-4.553,11.227-10.416,21.892-17.172,31.954l-332.299,0.125c-6.809-10.083-12.671-20.789-17.255-32.078H269.057
	l119.882,129.103c0,0-507.21,69.167,78.397,511.836c-262.841,25.362-255.918,163.695-255.918,163.695h73.272
	c2.931-5.155,6.414-9.979,9.865-14.802l130.152-0.063c6.289,11.413,18.295,19.23,32.245,19.23c13.97,0,25.977-7.838,32.265-19.251
	l132.355-0.063c3.493,4.886,6.985,9.75,9.959,14.947h107.855c0,0-63.803-97.627-104.26-118.707
	C729.096,823.053,1098.337,728.19,543.404,273.546z M694.294,171.033c-35.487,33.326-84.717,54.115-139.352,54.115
	c-54.572,0-103.76-20.727-139.237-54.011L694.294,171.033z M284.836,324.667c46.173-53.845,161.877-32.536,273.121,45.134
	l-60.913,5.509c-7.401-14.719-22.484-24.927-40.092-24.927c-20.467,0-37.546,13.742-43.034,32.432l-147.646,13.347
	C263.662,367.66,269.254,342.837,284.836,324.667z M272.425,428.012l144.112-13.014c7.297,15.031,22.577,25.488,40.415,25.488
	c20.706,0,37.961-14.033,43.231-33.055l95.631-8.628c2.766,2.287,5.593,4.428,8.337,6.798c8.523,7.297,16.715,14.74,24.573,22.286
	l-136.93,55.071c-11.31-12.432-27.463-20.374-45.602-20.374c-34.167,0-61.859,27.691-61.859,61.848c0,0.582,0.146,1.103,0.167,1.663
	l-49.365,19.854C303.848,505.577,282.601,464.851,272.425,428.012z M413.585,627.902c-20.925-17.941-39.781-36.777-56.703-55.903
	l36.984-14.864c10.935,17.463,30.207,29.168,52.327,29.168c34.167,0,61.87-27.692,61.87-61.87c0-4.345-0.478-8.586-1.331-12.702
	l146.358-58.855c13.763,14.927,26.299,30.104,37.4,45.321l-55.113,27.296c-8.357-8.814-20.083-14.386-33.18-14.386
	c-25.238,0-45.737,20.478-45.737,45.716c0,2.536,0.374,4.969,0.749,7.38l-137.865,68.293
	C417.431,630.916,415.487,629.523,413.585,627.902z M447.368,654.637l126.14-62.472c7.858,6.403,17.754,10.395,28.689,10.395
	c25.259,0,45.736-20.478,45.736-45.736c0-0.499-0.125-0.957-0.146-1.456l60.872-30.165c12.951,20.831,23.43,41.434,30.705,61.142
	L536.793,708.212C507.397,694.615,477.128,676.591,447.368,654.637z M491.223,865.795c-5.468-13.596-18.721-23.2-34.271-23.2
	c-15.561,0-28.814,9.625-34.271,23.242l-99.665,0.042c35.166-31.122,82.544-50.519,135.09-50.519
	c52.493,0,99.811,19.354,134.985,50.394L491.223,865.795z M574.215,723.347l174.527-104.966
	c7.588,36.526,3.118,68.355-15.821,90.454C702.776,743.97,643.007,746.983,574.215,723.347z"/>
</svg>
