<?xml version="1.0" encoding="utf-8"?>
<!-- Generator: Adobe Illustrator 16.0.0, SVG Export Plug-In . SVG Version: 6.00 Build 0)  -->
<!DOCTYPE svg PUBLIC "-//W3C//DTD SVG 1.1//EN" "http://www.w3.org/Graphics/SVG/1.1/DTD/svg11.dtd">
<svg version="1.1" id="图层_1" xmlns="http://www.w3.org/2000/svg" xmlns:xlink="http://www.w3.org/1999/xlink" x="0px" y="0px"
	 width="1024px" height="1024px" viewBox="0 0 1024 1024" enable-background="new 0 0 1024 1024" xml:space="preserve">
<path fill="#999999" d="M512.124,107.313c-223.028,0-404.479,181.461-404.479,404.5c0,223.049,181.451,404.5,404.479,404.5
	c223.049,0,404.5-181.451,404.5-404.5C916.624,288.774,735.173,107.313,512.124,107.313z M740.75,792.405
	c-3.388-6.671-9.295-12.558-9.295-12.558c-11.36-10.514-24.579-19.581-39.719-27.058c-39.863-19.622-82.123-23.464-103.355-24.001
	l-2.272-18.795c98.296-9.604,136.155-68.058,137.808-70.618l9.646-15.306l-17.577-3.801c-40.214-8.695-51.326-45.977-53.144-53.371
	c2.994-90.219-14.686-155.963-52.546-195.517c-33.026-34.493-72.869-39.616-93.669-39.616c-9.811,0-16.069,1.095-15.883,1.095
	c-54.59,6.279-95.466,43.54-118.248,107.776c-15.47,43.747-17.515,85.345-17.763,92.12c-12.662,80.305-70.185,88.277-72.581,88.566
	l-26.148,2.851l18.713,18.631c63.905,63.802,120.127,70.989,146.111,70.741v11.67c-61.055,2.065-108.106,19.54-140.39,51.802
	l-7.126,15.264c-81.317-66.486-133.367-167.488-133.367-280.469c0-199.72,162.469-362.199,362.179-362.199
	s362.2,162.479,362.2,362.199C874.323,624.876,822.19,725.939,740.75,792.405z"/>
</svg>
