<?xml version="1.0" encoding="utf-8"?>
<!-- Generator: Adobe Illustrator 16.0.0, SVG Export Plug-In . SVG Version: 6.00 Build 0)  -->
<!DOCTYPE svg PUBLIC "-//W3C//DTD SVG 1.1//EN" "http://www.w3.org/Graphics/SVG/1.1/DTD/svg11.dtd">
<svg version="1.1" id="图层_1" xmlns="http://www.w3.org/2000/svg" xmlns:xlink="http://www.w3.org/1999/xlink" x="0px" y="0px"
	 width="1024px" height="1024px" viewBox="0 0 1024 1024" enable-background="new 0 0 1024 1024" xml:space="preserve">
<g id="training_plan">
	<path fill-rule="evenodd" clip-rule="evenodd" fill="#999999" d="M526.332,528.117H257.719c-13.389,0-24.25,10.861-24.25,24.271
		c0,13.389,10.861,24.25,24.25,24.25H481.84C494.419,558.51,509.428,542.197,526.332,528.117z M233.468,633.275
		c0,13.39,10.861,24.251,24.25,24.251h187.686c4.107-16.924,9.953-33.196,17.418-48.541H257.719
		C244.33,608.985,233.468,619.866,233.468,633.275z M491.931,867.844H265.815c-44.67,0-80.888-36.219-80.888-80.889V317.8
		c0-44.67,36.218-80.888,80.888-80.888h0.81c-0.375,2.666-0.81,5.313-0.81,8.097c0,31.261,25.357,56.618,56.618,56.618h194.144
		c31.261,0,56.598-25.357,56.598-56.618c0-2.784-0.415-5.431-0.79-8.097h0.79c44.67,0,80.888,36.218,80.888,80.888v113.255h48.541
		V285.453c0-44.67-52.392-80.888-97.062-80.888h-49.43c-10.21-9.993-24.132-16.174-39.535-16.174h-9.025
		c-4.621-45.361-42.478-80.888-89.063-80.888c-46.586,0-84.443,35.527-89.064,80.888h-6.991c-15.404,0-29.326,6.181-39.556,16.174
		h-49.41c-44.69,0-97.082,36.218-97.082,80.888v550.043c0,44.67,52.392,80.888,97.082,80.888h310.519
		C524.357,902.817,506.841,886.446,491.931,867.844z M418.488,151.6c25.336,0,45.875,20.538,45.875,45.875
		c0,25.356-20.538,45.895-45.875,45.895c-25.337,0-45.875-20.538-45.875-45.895C372.613,172.138,393.151,151.6,418.488,151.6z
		 M705.507,689.439v-79.071h-30.215v79.071c-10.644,6.161-19.215,17.575-19.215,30.747c0,13.192,7.228,24.547,17.853,30.748v21.427
		h31.577v-21.427c10.645-6.201,21.96-17.556,21.96-30.748C727.467,707.015,716.151,695.601,705.507,689.439z M848.088,601.758
		l39.081-39.16l-37.837-37.857L810.23,563.9c-28.516-21.624-67.064-35.744-104.724-39.121V480.03h28.772v-33.71h-94.514v33.71
		h30.136v44.749c-100.044,9.025-174.455,92.994-174.455,195.407c0,108.397,87.898,196.316,196.336,196.316
		c108.396,0,196.296-87.919,196.296-196.316C888.078,675.635,873.069,634.697,848.088,601.758z M691.782,880.798
		c-88.59,0-160.631-72.041-160.631-160.611c0-88.569,72.041-160.61,160.631-160.61s160.61,72.041,160.61,160.61
		C852.393,808.757,780.372,880.798,691.782,880.798z M605.542,390.611c0-13.409-10.861-24.271-24.271-24.271H257.719
		c-13.389,0-24.25,10.861-24.25,24.271c0,13.389,10.861,24.25,24.25,24.25h323.553C594.681,414.862,605.542,404,605.542,390.611z
		 M589.368,489.944v-41.096c-2.567-0.908-5.214-1.619-8.097-1.619H257.719c-13.389,0-24.25,10.861-24.25,24.27
		c0,13.39,10.861,24.251,24.25,24.251H576.65C580.837,493.736,585.043,491.741,589.368,489.944z"/>
</g>
</svg>
