<?xml version="1.0" encoding="utf-8"?>
<!-- Generator: Adobe Illustrator 16.0.0, SVG Export Plug-In . SVG Version: 6.00 Build 0)  -->
<!DOCTYPE svg PUBLIC "-//W3C//DTD SVG 1.1//EN" "http://www.w3.org/Graphics/SVG/1.1/DTD/svg11.dtd">
<svg version="1.1" id="图层_1" xmlns="http://www.w3.org/2000/svg" xmlns:xlink="http://www.w3.org/1999/xlink" x="0px" y="0px"
	 width="1024px" height="1024px" viewBox="0 0 1024 1024" enable-background="new 0 0 1024 1024" xml:space="preserve">
<g id="proteine">
	<path fill-rule="evenodd" clip-rule="evenodd" fill="#999999" d="M657.624,156.028c0-26.802-21.746-48.528-48.548-48.528H431.1
		c-26.822,0-48.548,21.726-48.548,48.528v64.724h275.072V156.028z M654.918,269.3H369.082L204.576,418.953V835.6
		c0,44.677,36.223,80.9,80.9,80.9h453.047c44.678,0,80.9-36.224,80.9-80.9V418.953L654.918,269.3z M787.052,803.229
		c0,44.696-36.223,80.899-80.899,80.899H317.828c-44.677,0-80.9-36.203-80.9-80.899v-16.177H673.8V447.276H241.392l160.042-145.624
		h221.132l164.485,149.673V803.229z M479.628,512h145.624v145.604l-57.633-57.634L447.276,720.313l-110.23-86.964l-91.013,44.479
		l83.942-104.146l114.259,86.963l93.619-90.439L479.628,512z"/>
</g>
</svg>
