<?xml version="1.0" encoding="utf-8"?>
<!-- Generator: Adobe Illustrator 16.0.0, SVG Export Plug-In . SVG Version: 6.00 Build 0)  -->
<!DOCTYPE svg PUBLIC "-//W3C//DTD SVG 1.1//EN" "http://www.w3.org/Graphics/SVG/1.1/DTD/svg11.dtd">
<svg version="1.1" id="图层_1" xmlns="http://www.w3.org/2000/svg" xmlns:xlink="http://www.w3.org/1999/xlink" x="0px" y="0px"
	 width="1024px" height="1024px" viewBox="0 0 1024 1024" enable-background="new 0 0 1024 1024" xml:space="preserve">
<g id="donation">
	<path fill-rule="evenodd" clip-rule="evenodd" fill="#999999" d="M692.795,279.867L644.8,169.498c0,0-23.029-62.374-134.346-62.374
		c-111.316,0-124.747,62.374-124.747,62.374L299.315,347.04c0,0,7.703,139.146,76.792,158.344
		c-11.535,19.198,119.948-148.745,119.948-148.745l-62.374-95.97c0,0-16.314-52.775,75.824-52.775
		c92.119,0,82.52,57.574,82.52,57.574L227.343,759.697L352.11,913.241c0,0,309.972-421.289,340.685-475.031
		C723.487,384.468,692.795,279.867,692.795,279.867z M662.082,578.323l-119,153.545l134.347,184.257l119.019-172.742
		L662.082,578.323z"/>
</g>
</svg>
