<?xml version="1.0" encoding="utf-8"?>
<!-- Generator: Adobe Illustrator 16.0.0, SVG Export Plug-In . SVG Version: 6.00 Build 0)  -->
<!DOCTYPE svg PUBLIC "-//W3C//DTD SVG 1.1//EN" "http://www.w3.org/Graphics/SVG/1.1/DTD/svg11.dtd">
<svg version="1.1" id="图层_1" xmlns="http://www.w3.org/2000/svg" xmlns:xlink="http://www.w3.org/1999/xlink" x="0px" y="0px"
	 width="1024px" height="1024px" viewBox="0 0 1024 1024" enable-background="new 0 0 1024 1024" xml:space="preserve">
<g id="herbal">
	<path fill-rule="evenodd" clip-rule="evenodd" fill="#999999" d="M306.671,916.795h376.906v-30.766H306.671V916.795z
		 M825.2,120.251c-54.737-28.297-122.449-6.734-150.786,47.984c-13.23,25.631-15.561,54.106-8.648,80.053l-66.23,128.176h186.448
		l26.855-48.004c25.157-9.36,47.076-31.792,60.326-57.424C901.502,216.299,879.938,148.567,825.2,120.251z M141.203,391.985
		c-11.098,128.394-7.83,314.407,142.157,475.936h15.867v0.454h397.936v-0.454h22.473c142.314-134.89,142.176-362.53,135.541-475.936
		H141.203z M651.863,672.35H536.938v112.872h-83.845V672.35H338.375v-81.791h114.718V474.665h83.845v115.894h114.926V672.35z"/>
</g>
</svg>
