<?xml version="1.0" encoding="utf-8"?>
<!-- Generator: Adobe Illustrator 16.0.0, SVG Export Plug-In . SVG Version: 6.00 Build 0)  -->
<!DOCTYPE svg PUBLIC "-//W3C//DTD SVG 1.1//EN" "http://www.w3.org/Graphics/SVG/1.1/DTD/svg11.dtd">
<svg version="1.1" id="图层_1" xmlns="http://www.w3.org/2000/svg" xmlns:xlink="http://www.w3.org/1999/xlink" x="0px" y="0px"
	 width="1024px" height="1024px" viewBox="0 0 1024 1024" enable-background="new 0 0 1024 1024" xml:space="preserve">
<g>
	<path fill="#999999" d="M925.857,877.928H178.235c-10.588,0-19.172,8.639-19.172,19.298c0,10.624,8.584,19.274,19.172,19.274
		h747.622c10.588,0,19.166-8.65,19.166-19.274C945.023,886.566,936.445,877.928,925.857,877.928z"/>
	<path fill="#999999" d="M255.193,775.529c30.723,0,59.604-12.068,81.332-33.917l433.767-436.509
		c21.729-21.885,33.688-50.941,33.688-81.874c0-30.92-11.959-60-33.688-81.861C748.563,119.52,719.676,107.5,688.96,107.5
		c-30.728,0-59.604,12.02-81.332,33.869L241.641,509.708L228.22,523.22l-54.357,54.706c-21.723,21.873-33.688,50.941-33.688,81.838
		c0,24.387,7.544,47.56,21.338,67.002l-82.535,83.089l27.106,27.251l82.535-83.064C207.953,767.925,230.969,775.529,255.193,775.529
		z M200.969,605.213l40.678-40.931l108.438,109.125l27.113-27.287L268.753,536.995l365.981-368.339
		c14.475-14.57,33.748-22.583,54.226-22.583s39.739,8.013,54.214,22.583c14.485,14.57,22.462,33.964,22.462,54.574
		c0,20.598-7.977,40.004-22.462,54.586L309.419,714.338c-28.983,29.151-79.467,29.151-108.45,0
		c-14.479-14.582-22.457-33.977-22.457-54.574S186.489,619.783,200.969,605.213z"/>
</g>
</svg>
