<?xml version="1.0" encoding="utf-8"?>
<!-- Generator: Adobe Illustrator 16.0.0, SVG Export Plug-In . SVG Version: 6.00 Build 0)  -->
<!DOCTYPE svg PUBLIC "-//W3C//DTD SVG 1.1//EN" "http://www.w3.org/Graphics/SVG/1.1/DTD/svg11.dtd">
<svg version="1.1" id="图层_1" xmlns="http://www.w3.org/2000/svg" xmlns:xlink="http://www.w3.org/1999/xlink" x="0px" y="0px"
	 width="1024px" height="1024px" viewBox="0 0 1024 1024" enable-background="new 0 0 1024 1024" xml:space="preserve">
<g>
	<polygon fill="#999999" points="707.948,127.492 673.23,162.21 881.555,370.55 916.272,335.816 	"/>
	<path fill="#999999" d="M193.077,718.577c-12.788,12.787-12.788,33.52,0,46.307l23.146,23.146L107.273,896.994l47.026-0.735
		l85.084-85.084l23.146,23.145c12.788,12.788,33.503,12.788,46.291,0l23.146-23.145L216.222,695.432L193.077,718.577z"/>
	<polygon fill="#999999" points="647.976,346.781 694.266,393.072 788.974,301.098 742.667,254.807 	"/>
	<path fill="#999999" d="M602.964,331.852c-31.969-31.969-83.774-31.969-115.743,0L244.179,574.91
		c-31.969,31.952-31.969,83.773,0,115.727l92.582,92.597c31.968,31.953,83.774,31.953,115.743,0l243.042-243.058
		c31.969-31.953,31.969-83.774,0-115.727L602.964,331.852z M649.254,540.176L514.043,675.403
		c-53.612-48.496-128.595-113.089-170.649-153.434l39.657-39.657l86.811,86.811c9.59,9.575,25.127,9.575,34.718,0
		c9.59-9.59,9.59-25.143,0-34.733l-86.795-86.795l34.718-34.718l86.811,86.795c9.575,9.591,25.128,9.591,34.718,0
		c9.575-9.59,9.575-25.127,0-34.718l-86.811-86.811c31.969-31.953,83.774-31.953,115.743,0l46.29,46.307
		C681.223,456.402,681.223,508.223,649.254,540.176z"/>
</g>
</svg>
