<?xml version="1.0" encoding="utf-8"?>
<!-- Generator: Adobe Illustrator 16.0.0, SVG Export Plug-In . SVG Version: 6.00 Build 0)  -->
<!DOCTYPE svg PUBLIC "-//W3C//DTD SVG 1.1//EN" "http://www.w3.org/Graphics/SVG/1.1/DTD/svg11.dtd">
<svg version="1.1" id="图层_1" xmlns="http://www.w3.org/2000/svg" xmlns:xlink="http://www.w3.org/1999/xlink" x="0px" y="0px"
	 width="1024px" height="1024px" viewBox="0 0 1024 1024" enable-background="new 0 0 1024 1024" xml:space="preserve">
<g id="BOOK_副本">
	<path fill-rule="evenodd" clip-rule="evenodd" fill="#999999" d="M317.75,749.28c0-23.097-18.738-41.835-41.834-41.835H164.33
		c-23.112,0-41.851,18.738-41.851,41.835c0,23.128,18.738,41.851,41.851,41.851h111.586
		C299.013,791.131,317.75,772.408,317.75,749.28z M164.33,554.01h111.586c23.097,0,41.834-18.723,41.834-41.835
		c0-23.113-18.738-41.851-41.834-41.851H164.33c-23.112,0-41.851,18.738-41.851,41.851
		C122.479,535.287,141.218,554.01,164.33,554.01z M164.33,316.888h111.586c23.097,0,41.834-18.722,41.834-41.834
		c0-23.113-18.738-41.851-41.834-41.851H164.33c-23.112,0-41.851,18.738-41.851,41.851
		C122.479,298.166,141.218,316.888,164.33,316.888z M859.486,107.667h-41.835v809h41.835c23.112,0,41.851-18.723,41.851-41.851
		V149.517C901.337,126.405,882.599,107.667,859.486,107.667z M206.165,149.517v41.835h69.751c46.225,0,83.685,37.476,83.685,83.701
		c0,46.225-37.46,83.685-83.685,83.685h-69.751v69.751h69.751c46.225,0,83.685,37.46,83.685,83.686
		c0,46.209-37.46,83.686-83.685,83.686h-69.751v69.734h69.751c46.225,0,83.685,37.477,83.685,83.686
		c0,46.225-37.46,83.701-83.685,83.701h-69.751v41.835c0,23.128,18.738,41.851,41.851,41.851h527.785v-809H248.016
		C224.903,107.667,206.165,126.405,206.165,149.517z"/>
</g>
</svg>
