<?xml version="1.0" encoding="utf-8"?>
<!-- Generator: Adobe Illustrator 16.0.0, SVG Export Plug-In . SVG Version: 6.00 Build 0)  -->
<!DOCTYPE svg PUBLIC "-//W3C//DTD SVG 1.1//EN" "http://www.w3.org/Graphics/SVG/1.1/DTD/svg11.dtd">
<svg version="1.1" id="图层_1" xmlns="http://www.w3.org/2000/svg" xmlns:xlink="http://www.w3.org/1999/xlink" x="0px" y="0px"
	 width="1024px" height="1024px" viewBox="0 0 1024 1024" enable-background="new 0 0 1024 1024" xml:space="preserve">
<g>
	<g>
		<g>
			<path fill="#999999" d="M235.588,340.383c-0.025,0.051-0.025,0.102-0.051,0.153c-1.819,3.567-6.054,4.005-19.063,5.998
				c-1.9,0.285-2.231,0.938-0.871,2.094c5.142,4.341,2.874,11.017-4.219,11.017c-4.458,0-16.622-2.329-22.161-2.329
				c-2.92,0,2.747,5.458,4.896,7.699c3.659,3.807,6.064,6.309,5.967,9.687c-0.092,3.108-2.538,5.753-5.911,5.753
				c-1.625,0-3.572-0.673-6.497-2.298c2.344,4.928,5.605,9.738,9.824,14.232c13.004,13.86,32.566,22.818,49.84,22.818
				c38.176,0,48.245-19.639,48.902-27.2c0.703-8.123-3.017-17.086-10.471-25.218C274.035,349.988,255.619,341.896,235.588,340.383z"
				/>
			<path fill="#999999" d="M383.555,383.635c-7.337-2.441-16.056-4.179-24.892-4.179c-28.092,0-39.277,10.339-52.352,11.175
				c-0.479,2.66-1.458,5.503-2.996,8.342c3.281,0.744,6.854,0.968,9.34,0.968c18.237,0,39.685-18.619,75.568-3.852
				C386.612,392.007,385.048,387.854,383.555,383.635z"/>
			<path fill="#999999" d="M667.141,379.456c-8.529,0-16.947,1.738-24.035,4.179c-1.447,4.219-2.956,8.372-4.51,12.454
				c34.665-14.767,55.389,3.852,73.01,3.852c2.395,0,5.85-0.224,9.02-0.968c-1.488-2.838-2.436-5.682-2.885-8.342
				C705.094,389.795,694.295,379.456,667.141,379.456z"/>
			<path fill="#999999" d="M829.823,380.455c-3.373,0-5.818-2.645-5.91-5.753c-0.103-3.378,2.313-5.88,5.962-9.687
				c2.15-2.232,7.816-7.699,4.901-7.699c-3.139,0-8,0.683-12.301,1.284c-4.036,0.565-7.511,1.044-9.854,1.044
				c-5.289,0-6.563-3.19-6.869-4.561c-0.744-3.343,1.732-5.045,4.035-7.659c0,0-0.184-0.708-0.58-0.739
				c-14.441-1.167-18.844-2.441-20.739-6.15c-0.03-0.051-0.03-0.102-0.052-0.153c-20.035,1.513-38.451,9.605-50.191,22.405
				c-7.449,8.132-11.17,17.096-10.467,25.218c0.652,7.562,10.722,27.2,48.898,27.2c17.273,0,36.841-8.958,49.845-22.818
				c4.22-4.495,7.48-9.305,9.824-14.232C833.4,379.782,831.454,380.455,829.823,380.455z"/>
		</g>
		<path fill="#999999" d="M600.322,567.581c3.965-24.77-13.87-40.983-14.191-80.938c0-0.255,0.025-0.535,0.031-0.785
			c-8.465,9.921-27.022,25.07-37.371,32.892c33.87-43.756,92.893-150.351,97.784-194.545c2.659-0.474,5.213-0.693,7.679-0.693
			c23.726,0,39.1,19.995,58.197,19.995c25.875,0,34.885-19.465,53.32-31.552c2.446-1.615,20.281-4.596,38.961-12.219
			c15.766-6.425,31.828-17.126,45.076-17.126c0.917,0,1.814,0.051,2.711,0.153c15.705,1.906,24.785,9.891,24.785,23.898
			c0,17.233-13.452,31.257-31.583,31.257c-2.364,0-4.8-0.234-7.307-0.734c-8.092-1.61-16.897-2.217-24.581-2.217
			c-11.149,0-19.914,1.264-20.658,2.502c-1.844,3.058,18.212,4.016,25.428,4.815c2.323,0.265,2.588,0.097,1.447,2.247
			c-2.09,3.914-9.621,7.46-9.193,9.417c0.072,0.331,0.714,0.463,1.764,0.463c4.371,0,15.756-2.329,22.155-2.329
			c1.661,0,2.996,0.163,3.761,0.561c11.71,6.028-15.42,22.579-8.714,22.579c1.998,0,12.771-7.119,19.007-11.317
			c4.811-2.645,4.983-5.223,4.983,0.489c0,7.134-4.708,15.267-4.311,16.469c0.275,0.831,0.815,1.197,1.56,1.197
			c5.085,0,19.547-16.785,21.605-16.785c4.239,0-4.974,22.915-2.874,22.915c11.485,0,46.706-45.947,46.706-86.584
			c0-25.738-40.744-42.375-66.406-42.375c-36.831,0-46.299,24.046-80.031,29.6c-25.203,4.158-31.583,32.577-59.404,32.577
			c-29.871,0-53.795-31.73-71.003-50.589c-20.724-43.909-81.01-62.656-127.655-61.524c-42.136-1.019-105.759,15.134-127.655,61.524
			c-17.208,18.859-41.132,50.589-71.002,50.589c-27.822,0-34.202-28.418-59.404-32.577c-33.733-5.554-43.196-29.6-80.032-29.6
			c-25.662,0-66.406,16.637-66.406,42.375c0,35.618,28.046,78.116,43.624,85.565c3.745,1.799,4.321,1.554,3.063-3.108
			c-1.671-6.252-6.201-17.544-2.956-18.782c0.031-0.005,0.061-0.005,0.102-0.005c2.063,0,16.52,16.785,21.605,16.785
			c0.744,0,1.284-0.367,1.559-1.197c0.469-1.407-6.247-12.327-3.857-19.939c0.876-2.802,13.789,13.463,23.537,14.298
			c7.195,0.576-20.428-16.54-8.718-22.579c3.582-1.85,21.697,1.768,25.926,1.768c1.044,0,1.687-0.132,1.758-0.463
			c0.27-1.192-6.904-5.391-9.096-9.254c-1.177-2.043-0.942-2.4,0.989-2.986c6.481-1.937,27.633-1.182,25.794-4.24
			c-0.744-1.238-9.514-2.502-20.663-2.502c-13.137,0-30.513,2.951-31.888,2.951c-18.13,0-31.583-14.013-31.583-31.257
			c0-14.008,9.081-21.993,24.791-23.898c0.892-0.102,1.793-0.153,2.71-0.153c13.249,0,29.305,10.701,45.076,17.126
			c18.68,7.623,36.51,10.604,38.961,12.219c18.431,12.087,27.445,31.552,53.32,31.552c19.088,0,34.472-19.995,58.192-19.995
			c2.466,0,5.02,0.219,7.679,0.693c4.362,39.384,69.025,157.016,98.56,197.593c-10.354-7.813-29.682-26.019-38.146-35.94
			c0.005,0.25,0.031,0.53,0.031,0.785c-0.321,39.955-18.156,56.169-14.191,80.938c5.845,36.566,26.441,65.994,70.615,114.657
			c-34.875-14.829-46.646-30.961-52.995-47.548c3.592,14.594,5.208,32.383,2.334,68.256c-1.753,21.973,9.687,58.758,12.525,87.15
			c0.881,8.729-3.266,17.137-0.448,23.135c0.499,1.064,1.101,1.523,1.834,1.523c5.61,0,17.84-25.065,54.457-18.457
			c36.189-6.527,49.224,18.457,54.457,18.457c0.733,0,1.335-0.459,1.829-1.523c2.823-5.998-1.325-14.405-0.448-23.135
			c2.844-28.393,14.283-65.178,12.525-87.15c-2.869-35.873-1.254-53.662,2.338-68.256c-8.188,20.51-24.76,36.643-49.769,46.666
			C575.7,634.828,594.438,604.356,600.322,567.581z"/>
	</g>
</g>
</svg>
