<?xml version="1.0" encoding="utf-8"?>
<!-- Generator: Adobe Illustrator 16.0.0, SVG Export Plug-In . SVG Version: 6.00 Build 0)  -->
<!DOCTYPE svg PUBLIC "-//W3C//DTD SVG 1.1//EN" "http://www.w3.org/Graphics/SVG/1.1/DTD/svg11.dtd">
<svg version="1.1" id="图层_1" xmlns="http://www.w3.org/2000/svg" xmlns:xlink="http://www.w3.org/1999/xlink" x="0px" y="0px"
	 width="1024px" height="1024px" viewBox="0 0 1024 1024" enable-background="new 0 0 1024 1024" xml:space="preserve">
<g>
	<path fill="#999999" d="M524.585,121.988L512,107.5l-12.584,14.488c-11.759,13.511-287.919,332.524-287.919,493.794
		C211.496,781.59,346.299,916.5,512,916.5c165.701,0,300.504-134.91,300.504-300.718
		C812.504,454.513,536.338,135.499,524.585,121.988z M512,883.075c-147.287,0-267.113-119.905-267.113-267.293
		c0-130.395,212.603-392.095,267.113-457.045c54.512,64.95,267.113,326.65,267.113,457.045
		C779.113,763.17,659.281,883.075,512,883.075z"/>
	<path fill="#999999" d="M328.402,584.088l0.006-0.292h-0.022c0-0.202-0.028-0.394-0.028-0.596h-16.482l-16.841-0.606l-0.011,0.606
		h-0.05c0,0.259,0.039,0.517,0.039,0.775l-0.039,2.549c0,119.782,97.353,217.19,217.027,217.19v-33.401
		C411.042,770.313,328.891,683.962,328.402,584.088z"/>
</g>
</svg>
