<?xml version="1.0" encoding="utf-8"?>
<!-- Generator: Adobe Illustrator 16.0.0, SVG Export Plug-In . SVG Version: 6.00 Build 0)  -->
<!DOCTYPE svg PUBLIC "-//W3C//DTD SVG 1.1//EN" "http://www.w3.org/Graphics/SVG/1.1/DTD/svg11.dtd">
<svg version="1.1" id="图层_1" xmlns="http://www.w3.org/2000/svg" xmlns:xlink="http://www.w3.org/1999/xlink" x="0px" y="0px"
	 width="1024px" height="1024px" viewBox="0 0 1024 1024" enable-background="new 0 0 1024 1024" xml:space="preserve">
<g>
	<path fill="#999999" d="M454.839,884.779c-153.073,0-277.606-124.533-277.606-277.606c0-98.481,50.505-187.54,135.061-238.263
		l-16.295-27.217c-92.832,55.659-150.486,157.379-150.486,265.479c0,170.554,138.754,309.327,309.327,309.327
		c86.452,0,169.566-36.56,228.03-100.317l-23.405-21.431C607.004,851.952,532.423,884.779,454.839,884.779z"/>
	<path fill="#999999" d="M856.07,707.017l-83.983,83.963L580.379,599.232H415.178V456.488h174.484v-31.74H415.178v-96.427
		c53.725-7.742,95.183-53.951,95.183-109.778c0-61.229-49.813-111.043-111.043-111.043s-111.042,49.813-111.042,111.043
		c0,55.827,41.458,102.036,95.182,109.778v302.652h183.787l204.843,204.861l106.401-106.381L856.07,707.017z M320.016,218.543
		c0-43.729,35.572-79.322,79.302-79.322s79.302,35.593,79.302,79.322s-35.572,79.321-79.302,79.321S320.016,262.272,320.016,218.543
		z"/>
</g>
</svg>
