<?xml version="1.0" encoding="utf-8"?>
<!-- Generator: Adobe Illustrator 16.0.0, SVG Export Plug-In . SVG Version: 6.00 Build 0)  -->
<!DOCTYPE svg PUBLIC "-//W3C//DTD SVG 1.1//EN" "http://www.w3.org/Graphics/SVG/1.1/DTD/svg11.dtd">
<svg version="1.1" id="图层_1" xmlns="http://www.w3.org/2000/svg" xmlns:xlink="http://www.w3.org/1999/xlink" x="0px" y="0px"
	 width="1024px" height="1024px" viewBox="0 0 1024 1024" enable-background="new 0 0 1024 1024" xml:space="preserve">
<g>
	<rect x="382.356" y="733.323" fill="#999999" width="45.752" height="45.786"/>
	<rect x="595.893" y="733.323" fill="#999999" width="45.752" height="45.786"/>
	<rect x="489.119" y="779.109" fill="#999999" width="45.763" height="45.808"/>
	<rect x="489.119" y="687.526" fill="#999999" width="45.763" height="45.797"/>
	<rect x="595.893" y="244.869" fill="#999999" width="45.752" height="45.797"/>
	<rect x="489.119" y="199.083" fill="#999999" width="45.763" height="45.786"/>
	<rect x="382.356" y="244.869" fill="#999999" width="45.752" height="45.797"/>
	<path fill="#999999" d="M550.129,107.5h-76.257c-109.345,0-198.29,89.012-198.29,198.436v76.325V641.74v76.324
		c0,109.413,88.944,198.436,198.29,198.436h76.257c109.345,0,198.289-89.022,198.289-198.436V641.74V382.261v-76.325
		C748.418,196.512,659.474,107.5,550.129,107.5z M717.913,718.064c0,92.571-75.27,167.897-167.784,167.897h-76.257
		c-92.515,0-167.784-75.326-167.784-167.897V641.74h411.826V718.064z M717.913,611.224H306.087V412.776h411.826V611.224z
		 M717.913,382.261H306.087v-76.325c0-92.571,75.269-167.908,167.784-167.908h76.257c92.515,0,167.784,75.337,167.784,167.908
		V382.261z"/>
	<rect x="489.119" y="290.666" fill="#999999" width="45.763" height="45.797"/>
</g>
</svg>
