<?xml version="1.0" encoding="utf-8"?>
<!-- Generator: Adobe Illustrator 16.0.0, SVG Export Plug-In . SVG Version: 6.00 Build 0)  -->
<!DOCTYPE svg PUBLIC "-//W3C//DTD SVG 1.1//EN" "http://www.w3.org/Graphics/SVG/1.1/DTD/svg11.dtd">
<svg version="1.1" id="图层_1" xmlns="http://www.w3.org/2000/svg" xmlns:xlink="http://www.w3.org/1999/xlink" x="0px" y="0px"
	 width="1024px" height="1024px" viewBox="0 0 1024 1024" enable-background="new 0 0 1024 1024" xml:space="preserve">
<g>
	<path fill="#999999" d="M178.026,203.687c28.957,0,28.957-45.261,0-45.261S149.069,203.687,178.026,203.687z"/>
	<path fill="#999999" d="M99.447,362.105c-28.957,0-28.957,45.248,0,45.248S128.404,362.105,99.447,362.105z"/>
	<path fill="#999999" d="M883.391,158.426c28.963,0,28.963-45.248,0-45.248C854.426,113.178,854.426,158.426,883.391,158.426z"/>
	<path fill="#999999" d="M168.673,763.76c-28.957,0-28.957,45.261,0,45.261S197.63,763.76,168.673,763.76z"/>
	<path fill="#999999" d="M797.324,173.488c28.951,0,28.951-45.248,0-45.248S768.373,173.488,797.324,173.488z"/>
	<path fill="#999999" d="M907.711,492.196c0-212.102-171.221-384.696-381.676-384.696c-210.461,0-381.683,172.594-381.683,384.696
		c0,212.14,171.221,384.721,381.683,384.721C736.49,876.917,907.711,704.336,907.711,492.196z M834.822,661.808H546.65
		c0.947-4.866,1.447-9.883,1.646-14.975h294.199C840.051,651.888,837.506,656.892,834.822,661.808z M526.035,137.661
		c97.271,0,185.434,40.02,249.164,104.56H276.858C340.594,177.681,428.763,137.661,526.035,137.661z M250.503,272.195h551.051
		c7.563,9.608,14.637,19.604,21.201,29.974H229.308C235.866,291.799,242.941,281.804,250.503,272.195z M212.318,332.143h627.42
		c9.609,19.055,17.559,39.083,23.66,59.923h-674.74C194.76,371.227,202.709,351.198,212.318,332.143z M174.857,511.976h696.766
		v-29.975H174.539c0.144-5.029,0.38-10.021,0.73-14.987h696.354v-29.986h-693.06c0.786-5.029,1.672-10.021,2.664-14.975h689.609
		c4.529,22.687,6.939,46.134,6.939,70.144c0,43.863-8,85.866-22.512,124.676h-310.41c-11.406-41.367-49.023-71.865-93.66-71.865
		s-82.248,30.498-93.66,71.865H196.794C184.478,583.94,176.872,548.7,174.857,511.976z M518.548,643.064
		c0,37.437-30.211,67.897-67.354,67.897s-67.354-30.461-67.354-67.897s30.211-67.872,67.354-67.872S518.548,605.628,518.548,643.064
		z M209.561,646.833H354.09c0.193,5.092,0.705,10.108,1.641,14.975H217.229C214.558,656.892,212.006,651.888,209.561,646.833z
		 M526.035,846.731c-54.601,0-106.338-12.604-152.491-35.078h304.97C632.367,834.128,580.629,846.731,526.035,846.731z
		 M721.877,786.546v-4.829H323.386c-34.323-24.471-64.147-54.932-87.895-89.935h131.383c16.809,29.438,48.268,49.341,84.319,49.341
		s67.517-19.903,84.326-49.341h281.047C791.26,729.094,759.088,761.313,721.877,786.546z"/>
	<path fill="#999999" d="M883.391,256.472c28.963,0,28.963-45.248,0-45.248C854.426,211.224,854.426,256.472,883.391,256.472z"/>
	<path fill="#999999" d="M804.811,818.441c-28.951,0-28.951,45.261,0,45.261S833.762,818.441,804.811,818.441z"/>
	<path fill="#999999" d="M198.61,839.182c-28.957,0-28.957,45.285,0,45.285S227.567,839.182,198.61,839.182z"/>
	<path fill="#999999" d="M887.133,871.252c-28.963,0-28.963,45.248,0,45.248C916.098,916.5,916.098,871.252,887.133,871.252z"/>
	<path fill="#999999" d="M338.934,865.587c-28.957,0-28.957,45.26,0,45.26S367.891,865.587,338.934,865.587z"/>
	<path fill="#999999" d="M924.557,275.34c-28.963,0-28.963,45.248,0,45.248C953.508,320.588,953.508,275.34,924.557,275.34z"/>
</g>
</svg>
