<?xml version="1.0" encoding="utf-8"?>
<!-- Generator: Adobe Illustrator 16.0.0, SVG Export Plug-In . SVG Version: 6.00 Build 0)  -->
<!DOCTYPE svg PUBLIC "-//W3C//DTD SVG 1.1//EN" "http://www.w3.org/Graphics/SVG/1.1/DTD/svg11.dtd">
<svg version="1.1" id="图层_1" xmlns="http://www.w3.org/2000/svg" xmlns:xlink="http://www.w3.org/1999/xlink" x="0px" y="0px"
	 width="1024px" height="1024px" viewBox="0 0 1024 1024" enable-background="new 0 0 1024 1024" xml:space="preserve">
<g>
	<path fill="#999999" d="M851.546,283.36h-79.208c-47.68,0-87.945-32.213-87.945-70.364c0-57.177-56.373-105.496-123.105-105.496
		h-98.574c-66.733,0-123.105,48.319-123.105,105.496c0,38.151-40.281,70.364-87.946,70.364h-79.208
		c-67.12,0-117.732,52.101-117.732,121.201v388.848c0,69.025,51.713,123.091,117.732,123.091h679.092
		c66.019,0,117.731-54.065,117.731-123.091V404.562C969.277,335.461,918.666,283.36,851.546,283.36z M374.782,212.996
		c0-38.123,40.267-70.336,87.931-70.336h98.574c47.664,0,87.931,32.213,87.931,70.336c0,26.779,12.444,51.52,32.437,70.364H342.346
		C362.323,264.516,374.782,239.775,374.782,212.996z M934.103,793.409c0,50.135-35.503,87.945-82.557,87.945H172.454
		c-47.069,0-82.557-37.811-82.557-87.945V404.562c0-49.034,35.488-86.025,82.557-86.025h79.208c10.926,0,21.525-1.414,31.692-3.826
		v3.826h439.697v-9.244c15.184,5.895,31.871,9.244,49.287,9.244h79.208c47.054,0,82.557,36.991,82.557,86.025V793.409z"/>
	<path fill="#999999" d="M578.852,591.438c16.985-5.225,24.83-9.14,34.416-18.294c16.539-15.243,24.384-34.833,24.384-61.404
		c0-54.452-37.899-84.938-105.421-84.938H429.443c-29.623,0-36.589,0-54.884-0.894c2.188,17.863,3.483,33.553,3.483,53.589v236.521
		c0,27.881-0.878,40.504-3.915,58.799c17.863-0.863,30.486-1.295,55.762-1.295h107.148c72.315,0,112.819-34.416,112.819-95.389
		c0-28.313-9.154-50.105-27.018-66.658C611.08,600.578,601.076,596.246,578.852,591.438z M435.546,475.566h90.164
		c17.401,0,32.213,4.793,41.813,13.517c6.967,6.52,11.328,18.295,11.328,32.228c0,29.623-19.604,47.471-52.71,47.471h-90.595
		V475.566z M529.193,724.294h-93.647V617.131h92.768c20.037,0,36.604,5.239,47.501,14.812c9.571,8.723,13.933,20.482,13.933,37.899
		C589.748,705.136,567.971,724.294,529.193,724.294z"/>
</g>
</svg>
