<?xml version="1.0" encoding="utf-8"?>
<!-- Generator: Adobe Illustrator 16.0.0, SVG Export Plug-In . SVG Version: 6.00 Build 0)  -->
<!DOCTYPE svg PUBLIC "-//W3C//DTD SVG 1.1//EN" "http://www.w3.org/Graphics/SVG/1.1/DTD/svg11.dtd">
<svg version="1.1" id="图层_1" xmlns="http://www.w3.org/2000/svg" xmlns:xlink="http://www.w3.org/1999/xlink" x="0px" y="0px"
	 width="1024px" height="1024px" viewBox="0 0 1024 1024" enable-background="new 0 0 1024 1024" xml:space="preserve">
<path fill="#999999" d="M705.507,107.5c-75.092,0-143.033,35.507-193.507,100.547c-50.438-64.992-118.282-100.462-193.252-100.462
	c-125.299,0-260.526,105.791-260.526,276.707c0,169.035,150.717,288.349,261.278,375.871c42.754,33.843,73.502,57.368,98.217,76.257
	c40.24,30.771,60.439,46.225,82.411,68.196L512,916.5l11.872-11.884c28.938-28.951,55.086-48.847,124.994-102.04
	c15.999-12.175,34.28-26.086,55.414-42.243c91.383-69.872,261.498-199.904,261.498-377.789
	C965.778,212.66,830.684,107.5,705.507,107.5z M683.888,733.676c-21.11,16.145-39.367,30.031-55.342,42.195
	c-61.97,47.147-90.192,68.621-116.606,93.542c-19.617-18.184-40.508-34.159-73.842-59.65c-24.605-18.815-55.232-42.243-98.276-76.33
	C235.146,650.572,91.773,537.098,91.773,384.292c0-150.183,117.821-243.143,226.975-243.143
	c70.539,0,134.208,37.267,179.292,104.929L512,267.042l13.96-20.964c45.12-67.711,108.886-105.014,179.547-105.014
	c109.032,0,226.719,92.329,226.719,241.479C932.226,531.368,804.039,641.82,683.888,733.676z"/>
</svg>
