<?xml version="1.0" encoding="utf-8"?>
<!-- Generator: Adobe Illustrator 16.0.0, SVG Export Plug-In . SVG Version: 6.00 Build 0)  -->
<!DOCTYPE svg PUBLIC "-//W3C//DTD SVG 1.1//EN" "http://www.w3.org/Graphics/SVG/1.1/DTD/svg11.dtd">
<svg version="1.1" id="图层_1" xmlns="http://www.w3.org/2000/svg" xmlns:xlink="http://www.w3.org/1999/xlink" x="0px" y="0px"
	 width="1024px" height="1024px" viewBox="0 0 1024 1024" enable-background="new 0 0 1024 1024" xml:space="preserve">
<g>
	<polygon fill="#999999" points="408.893,610.711 437.778,627.404 671.281,222.669 642.391,205.987 	"/>
	<path fill="#999999" d="M706.874,127.595c-71.68-41.414-163.672-16.75-205.045,54.974L310.008,515.042
		c-37.344,64.741-58.887,212.938-0.225,267.451l-67.682,117.313l28.885,16.693l67.682-117.313
		C415.18,822.772,532.661,730,570.005,665.271l191.82-332.484C803.199,261.063,778.553,169.008,706.874,127.595z M732.936,316.093
		l-41.705,72.296l-43.333-25.045l-16.677,28.918l43.333,25.034L641.201,475.1l-43.333-25.034l-16.688,28.919l43.332,25.045
		L541.12,648.577C505.252,710.736,390.089,792.574,339.942,763.6c-50.147-28.975-36.906-169.705-1.044-231.864l8.346-14.459
		l43.333,25.034l16.676-28.907l-43.333-25.046l33.37-57.825l43.327,25.034l16.665-28.885l-43.333-25.034l33.364-57.837
		l43.338,25.035l16.66-28.885l-43.333-25.034l33.37-57.837l43.332,25.045l16.677-28.918l-43.333-25.034l16.688-28.918
		c32.191-55.794,103.729-74.968,159.484-42.76C745.946,188.721,765.126,260.299,732.936,316.093z"/>
</g>
</svg>
