<?xml version="1.0" encoding="utf-8"?>
<!-- Generator: Adobe Illustrator 16.0.0, SVG Export Plug-In . SVG Version: 6.00 Build 0)  -->
<!DOCTYPE svg PUBLIC "-//W3C//DTD SVG 1.1//EN" "http://www.w3.org/Graphics/SVG/1.1/DTD/svg11.dtd">
<svg version="1.1" id="图层_1" xmlns="http://www.w3.org/2000/svg" xmlns:xlink="http://www.w3.org/1999/xlink" x="0px" y="0px"
	 width="1024px" height="1024px" viewBox="0 0 1024 1024" enable-background="new 0 0 1024 1024" xml:space="preserve">
<g>
	<rect x="340.424" y="248.216" fill="#999999" width="244.104" height="35.153"/>
	<polygon fill="#999999" points="601.947,599.915 567.069,599.915 567.069,635.109 532.211,635.109 532.211,670.303 
		567.069,670.303 567.069,705.457 601.947,705.457 601.947,670.303 636.825,670.303 636.825,635.109 601.947,635.109 	"/>
	<rect x="340.424" y="336.141" fill="#999999" width="244.104" height="35.174"/>
	<path fill="#999999" d="M828.593,353.697V213.021H723.999v-17.557c0-48.505-39.104-87.965-87.174-87.965H288.127
		c-48.07,0-87.174,39.46-87.174,87.965v509.992c0,4.917,0.652,9.657,1.422,14.357l-1.106-0.217
		c-0.908,4.602-21.922,113.776,21.606,167.338c15.958,19.631,37.88,29.564,65.252,29.564h366.117v-35.193H288.127
		c-16.629,0-29.15-5.431-38.274-16.669c-17.557-21.566-20.698-60.967-19.295-93.652c15.385,13.785,35.411,22.416,57.57,22.416
		h348.698c48.07,0,87.174-39.459,87.174-87.944V564.78h104.594V424.085H723.999v-70.388H828.593z M723.999,248.216h69.735v70.348
		h-69.735V248.216z M689.121,213.021v140.676v70.388V564.78v140.677c0,29.11-23.462,52.751-52.296,52.751H288.127
		c-28.854,0-52.316-23.641-52.316-52.751V195.465c0-29.111,23.462-52.771,52.316-52.771h348.698
		c28.834,0,52.296,23.66,52.296,52.771V213.021z M793.734,459.239v70.348h-69.735v-70.348H793.734z"/>
</g>
</svg>
