<?xml version="1.0" encoding="utf-8"?>
<!-- Generator: Adobe Illustrator 16.0.0, SVG Export Plug-In . SVG Version: 6.00 Build 0)  -->
<!DOCTYPE svg PUBLIC "-//W3C//DTD SVG 1.1//EN" "http://www.w3.org/Graphics/SVG/1.1/DTD/svg11.dtd">
<svg version="1.1" id="图层_1" xmlns="http://www.w3.org/2000/svg" xmlns:xlink="http://www.w3.org/1999/xlink" x="0px" y="0px"
	 width="1204px" height="1204px" viewBox="0 0 1204 1204" enable-background="new 0 0 1204 1204" xml:space="preserve">
<g>
	<path fill="#999999" d="M310.182,552.686c5.588-9.506,9.923-19.749,12.747-30.106c2.563-9.401-11.993-13.386-14.549-4.01
		c-1.91,7.01-4.59,13.905-7.937,20.486c-5.333-8.824-8.875-18.501-11.993-28.301c5.32-1.035,10.699-1.688,16.14-1.748
		c9.724-0.104,9.733-15.192,0-15.087c-6.932,0.074-13.704,0.923-20.375,2.269c-2.307-8.866-4.151-17.854-5.542-26.905
		c-0.625-4.07-5.667-6.262-9.28-5.269c-4.304,1.185-5.893,5.219-5.269,9.279c1.348,8.762,3.039,17.745,5.218,26.664
		c-8.399,2.511-16.696,5.529-25.006,8.508c-0.402-4.449-1.261-8.837-2.878-13.031c-1.399-3.63-4.617-5.153-7.724-5.082
		c0.388-0.027,0.772-0.057,1.14-0.091c5.166-0.493,10.461-0.96,15.396-2.646c9.151-3.127,5.222-17.703-4.011-14.548
		c-9.745,3.33-20.44,1.557-29.965,5.789c-3.759,1.671-4.609,7.072-2.707,10.321c2.248,3.837,6.563,4.376,10.322,2.706
		c2.579-1.146,5.999-1.287,9.02-1.478c-4.261,0.479-7.985,3.941-6.021,9.039c1.787,4.636,2.437,9.367,2.582,14.167
		c-8.697,2.846-17.481,5.297-26.481,6.729c-4.067,0.646-6.267,5.651-5.269,9.279c1.181,4.29,5.223,5.915,9.28,5.269
		c7.473-1.188,14.785-3.04,22.005-5.226c-0.199,6.688-0.104,13.279,0.33,20.042c0.107,1.672,0.219,3.349,0.33,5.028
		c-8.48,3.959-16.969,7.912-24.455,13.643c-3.258,2.493-4.98,6.439-2.707,10.32c1.885,3.217,7.048,5.213,10.321,2.706
		c5.508-4.216,11.56-7.467,17.751-10.47c0.409,10.771,0.236,21.561-1.676,32.126c-1.72,9.511,12.818,13.575,14.549,4.01
		c2.585-14.29,2.531-28.702,1.82-43.116c5.146-2.546,10.168-5.307,14.829-8.701c3.317-2.416,4.943-6.504,2.707-10.321
		c-1.921-3.279-6.991-5.132-10.321-2.706c-2.628,1.914-5.373,3.621-8.188,5.208c-0.406-7.664-0.354-15.154,0.004-22.819
		c3.878-1.358,7.745-2.745,11.611-4.11c5.757-2.034,11.59-4.1,17.497-5.909c3.732,11.766,8.516,23.129,14.782,33.375
		c1.122,1.835,2.305,3.617,3.52,5.375c-4.293,5.941-9.182,11.418-14.601,16.212c-7.301,6.459,3.41,17.089,10.669,10.669
		c4.918-4.352,9.447-9.249,13.558-14.523c9.825,11.328,21.141,21.382,32.099,31.622c7.099,6.634,17.791-4.014,10.669-10.669
		C332.398,575.697,320.308,565.067,310.182,552.686z"/>
	<path fill="#999999" d="M292.736,457.687c0.952,0.402,1.862,0.85,2.764,1.354c0.442,0.258,0.875,0.529,1.3,0.814
		c0.201,0.132,0.342,0.22,0.454,0.288c0.1,0.089,0.243,0.212,0.455,0.389c0.974,0.809,1.865,1.714,2.737,2.631
		c0.34,0.366,0.673,0.738,0.998,1.116c0.036,0.041,1.551,1.935,0.654,0.759c2.488,3.264,6.446,4.977,10.321,2.706
		c3.223-1.887,5.206-7.042,2.707-10.32c-3.991-5.236-8.591-10.15-14.777-12.766c-3.788-1.602-8.045-1.177-10.321,2.707
		C288.155,450.564,288.945,456.084,292.736,457.687z"/>
	<path fill="#999999" d="M406.681,568.854c-2.133-22.677,2.157-49.987-10.5-70.254c7.129-8.733,13.857-17.76,19.528-27.526
		c4.895-8.431-8.147-16.022-13.029-7.615c-12.796,22.041-31.217,40.085-47.1,59.829c-2.575,3.2-3.14,7.527,0,10.668
		c2.672,2.671,8.088,3.209,10.669,0c6.236-7.752,12.844-15.262,19.376-22.837c3.109,7.511,3.889,15.991,4.433,24.013
		c0.761,11.229,0.479,22.513,1.534,33.723C392.498,578.453,407.593,578.542,406.681,568.854z"/>
	<path fill="#999999" d="M422.277,490.633c4.949,1.609,9.964,2.118,15.076,1.006c4.018-0.874,6.313-5.481,5.269-9.279
		c-1.134-4.123-5.266-6.142-9.28-5.269c-0.248,0.054-0.418,0.095-0.551,0.128c-0.135-0.002-0.34,0.002-0.643,0.016
		c-0.691,0.031-1.384-0.029-2.073-0.094c0.936,0.068-1.07-0.265-1.178-0.289c-0.882-0.206-1.748-0.487-2.609-0.767
		c-3.911-1.272-8.227,1.442-9.28,5.269C415.881,485.455,418.371,489.362,422.277,490.633z"/>
	<path fill="#999999" d="M415.733,513.533c0.701,7.721,2.072,15.374,3.419,23.003c1.016,5.749,2.489,11.577,2.616,17.23
		c0.217,9.714,15.305,9.735,15.087,0c-0.302-13.494-4.815-26.796-6.035-40.233C429.949,503.926,414.854,503.841,415.733,513.533z"/>
	<path fill="#999999" d="M445.411,461.464c8.708,2.137,18.953-0.501,26.911,4.055c5.941,3.4,8.045,10.564,9.406,16.796
		c2.794,12.794,3.514,26.47,4.921,39.493c1.684,15.577,2.971,31.229,3.131,46.902c0.071,6.915-0.148,13.844-0.933,20.716
		c-0.557,4.87-1.798,9.78-3.688,12.837c-5.132,8.3,7.923,15.87,13.029,7.614c6.995-11.313,6.695-27.118,6.687-39.92
		c-0.011-16.849-1.556-33.702-3.387-50.437c-1.62-14.798-2.315-30.494-6.094-44.892c-2.303-8.778-7.039-16.129-14.388-21.448
		c-9.584-6.937-20.955-3.657-31.583-6.265C439.974,444.598,435.966,459.146,445.411,461.464z"/>
	<path fill="#999999" d="M596.452,569.077c17.523-10.792,24.513-33.394,23.355-52.976c-1.039-17.567-9.155-32.178-24.226-41.504
		c-5.126-3.171-10.615-4.951-15.97-5.317c8.429-6.753,16.563-14.583,18.914-25.155c2.107-9.479-12.438-13.507-14.549-4.011
		c-2.429,10.929-14.935,18.428-23.206,24.835c-2.331,1.806-2.666,5.142-1.706,7.858c-0.859,2.073-1.673,4.165-2.45,6.273
		c-1.542,1.895-2.915,4.055-4.064,6.506c-1.079,2.299-0.97,4.519-0.158,6.389c-2.125,7.429-3.806,14.987-5.065,22.588
		c-2.555,15.417-4.375,33.74,3.725,47.907C560.365,578.764,582.184,577.864,596.452,569.077z M600.933,500.93
		c7.995,14.23,4.46,37.595-6.114,49.848c-5.604,6.493-13.67,9.996-22.242,9.493c-4.794-0.282-7.397-2.707-9.855-8.06
		c-2.191-4.77-2.487-12.76-2.271-19.481c0.027-0.833,0.073-1.664,0.121-2.495c4.715-0.023,9.541-1.17,14.057-2.033
		c5.873-1.123,12.011-2.25,17.622-4.376c9.005-3.413,5.104-18.003-4.011-14.548c-4.9,1.857-10.203,2.85-15.317,3.914
		c-2.949,0.614-5.913,1.149-8.889,1.61c-0.603,0.093-1.02,0.142-1.53,0.19c0.401-2.177,0.841-4.348,1.311-6.51
		c1.286-5.91,2.871-11.756,4.659-17.532c0.396-1.277,0.812-2.549,1.238-3.815c3.344-3.16,7.611-3.817,13.28-1.959
		C590.525,487.646,597.124,494.147,600.933,500.93z"/>
	<path fill="#999999" d="M624.945,476.318c0.27-3.609,0.703-7.193,1.233-10.763c1.03-0.111,2.071-0.393,3.076-0.829
		c6.782-2.948,15.697-5.309,22.874-2.247c6.693,2.854,10.572,9.045,12.768,15.725c3.551,10.806,2.377,22.302,1.236,33.401
		c-1.291,12.573-3.484,26.121-8.113,38.509c-0.618,1.651-1.621,3.815-3.033,6.177c-0.164,0.276-1.074,1.506-1.306,1.857
		c-0.529,0.521-1.448,1.338-1.512,1.462c-0.095,0.059-0.187,0.125-0.284,0.181c-0.025,0.015-0.038,0.023-0.06,0.037
		c-0.052,0.014-0.104,0.026-0.162,0.039c-0.077-0.004-0.153-0.008-0.228-0.012c-0.008-0.002-0.016-0.004-0.025-0.006
		c0.014-0.016-0.85-0.338-1.112-0.483c-1.368-0.759-0.802-0.371-2.417-1.882c-7.096-6.636-17.788,4.011-10.668,10.669
		c5.111,4.78,11.162,7.839,18.27,6.318c5.963-1.275,10.36-6.734,13.216-11.735c7.501-13.138,9.728-29.367,11.696-44.117
		c1.703-12.764,2.885-25.562,0.582-38.312c-3.682-20.374-19.484-36.369-41.076-33.933c-3.739,0.422-7.285,1.287-10.762,2.434
		c0.929-4.902,1.848-9.807,2.578-14.741c0.602-4.064-0.949-8.091-5.27-9.279c-3.596-0.989-8.676,1.193-9.279,5.269
		c-2.291,15.458-6.142,30.639-7.311,46.262C609.131,486.028,624.225,485.958,624.945,476.318z M651.156,559.954
		C650.906,559.987,650.801,559.991,651.156,559.954L651.156,559.954z"/>
	<path fill="#999999" d="M651.383,512.001c3.215-1.883,5.219-7.051,2.707-10.321c-4.097-5.337-8.857-9.077-15.572-10.508
		c-4.019-0.855-8.143,1.133-9.28,5.269c-1.041,3.786,1.247,8.423,5.269,9.279c0.865,0.185,1.711,0.397,2.557,0.655
		c0.146,0.047,0.291,0.105,0.438,0.157c-0.277-0.077,0.764,0.382,1.004,0.518c0.107,0.063,0.206,0.135,0.312,0.2
		c0.122,0.101,0.745,0.55,0.917,0.708c0.293,0.278,0.576,0.565,0.852,0.862c0.14,0.146,1.458,1.75,0.478,0.474
		C643.561,512.549,647.498,514.276,651.383,512.001z"/>
	<path fill="#999999" d="M572.665,695.956c-17.923-4.489-36.366-5.493-54.708-7.024c-5.755-0.479-10.495-1.817-15.255-4.052
		c5.123-5.829,9.826-11.898,14.053-18c3.541-5.11,5.883-11.736,4.091-17.913c-1.733-5.975-7.236-9.461-12.889-11.101
		c-8.984-2.607-19.317-1.504-28.638,1.31c0.345-3.803-1.322-7.438-5.358-8.547c-3.624-0.997-8.64,1.2-9.28,5.269
		c-1.605,10.197-4.883,19.924-8.555,29.54c-3.475,9.105,11.115,13.006,14.549,4.012c1.637-4.289,3.186-8.603,4.553-12.968
		c0.683-0.117,1.378-0.32,2.083-0.645c6.985-3.208,17.942-5.088,25.058-3.79c0.788,0.145,1.558,0.362,2.325,0.584
		c1.085,0.315-0.019-0.177,1.493,0.678c0.114,0.065,0.188,0.115,0.239,0.149c-0.011,1.149-0.473,2.016-1.444,3.79
		c-1.752,3.203-4.206,6.082-6.382,8.999c-2.809,3.765-5.879,7.511-9.174,11.158c-3.875-2.142-7.851-4.048-12.172-5.352
		c-9.339-2.816-13.301,11.746-4.012,14.549c1.741,0.525,3.422,1.163,5.062,1.881c-16.81,15.013-37.597,26.234-59.677,26.157
		c-9.731-0.034-9.728,15.053,0,15.087c6.176,0.021,12.213-0.676,18.093-1.967c-0.381,0.813-0.643,1.732-0.729,2.769
		c-1.72,20.329,8.9,36.467,28.178,42.877c17.581,5.846,37.15,2.627,54.317-2.929c19.813-6.41,45.734-20.275,43.253-45.018
		c-0.943-9.399-5.933-15.143-12.758-18.563c5.109,0.663,10.196,1.491,15.248,2.585c1.046,0.676,2.331,1.108,3.855,1.177
		c0.858,0.039,1.716,0.077,2.574,0.116C579.222,711.161,580.869,698.011,572.665,695.956z M509.451,703.127
		c-10.719,1.065-22.021,2.77-32.152,6.391c-1.119,0.399-2.213,0.853-3.292,1.335c6.386-4.438,12.429-9.463,18.08-14.875
		C497.518,699.11,503.057,701.988,509.451,703.127z M455.979,746.092c-0.903,0.187-1.683,0.489-2.349,0.879
		c-1.361-2.722-2.242-5.902-2.566-9.58c0.856,0.078,1.777,0.014,2.761-0.247c6.354-1.682,12.104-4.77,17.773-8.02
		c6.076-3.484,11.713-5.881,18.544-7.498c0.16-0.038,0.321-0.073,0.48-0.11c-0.03,0.208-0.062,0.416-0.079,0.634
		c-0.311,4.154-0.369,8.31-0.26,12.462C479.034,739.109,467.775,743.643,455.979,746.092z M505.107,718.712
		c8.471-1.265,17.074-1.837,25.534-1.319c4.298,0.264,10.691,1.274,14.001,4.686c-0.612-0.172-1.27-0.283-1.987-0.307
		c-13.1-0.409-25.331,2.776-37.314,7.05c0.035-2.224,0.124-4.447,0.291-6.672C505.731,720.818,505.525,719.677,505.107,718.712z
		 M467.818,758.682c7.948-2.302,15.731-5.435,23.506-8.609c0.352,3.547,0.753,7.089,1.16,10.622
		C483.636,761.591,474.948,761.161,467.818,758.682z M530.756,749.027c-5.995,3.456-14.384,6.758-23.484,9.037
		c-0.521-4.585-1.014-9.183-1.375-13.786c11.869-4.429,23.941-7.82,36.759-7.419c0.623,0.02,1.205-0.026,1.748-0.124
		C541.324,741.988,535.82,746.107,530.756,749.027z"/>
	<path fill="#999999" d="M597.333,701.935c3.867,2.265,7.845,0.564,10.321-2.708c14.131-18.66,17.368-42.26,17.611-65.059
		c3.871-1.082,7.704-2.347,11.538-3.603c5.92-1.938,12.008-3.924,18.157-4.4c-0.083,0.087-0.168,0.171-0.25,0.26
		c-3.029,3.255-5.799,7.506-6.763,11.898c-2.081,9.485,6.587,12.718,14.251,12.545c3.369-0.076,6.351,0.05,9.637,0.824
		c1.574,0.371,2.975,0.873,4.352,1.64c-0.1,0.128-0.512,0.936-1.143,1.532c-0.957,0.906-1.992,1.714-3.055,2.487
		c-1.223,0.893-2.502,1.702-3.799,2.479c-0.393-0.07-0.785-0.117-1.17-0.117c-4.5,0-7.031,3.466-7.543,7.544
		c-0.732,5.824,5.406,9.22,10.415,8.192c3.513-0.722,6.827-3.044,9.71-5.07c8.34-5.858,14.734-13.723,10.029-24.331
		c-3.441-7.759-14.57-9.891-23.063-10.235c3.859-4.143,7.547-8.057,8.732-13.824c0.844-4.111-1.143-8.022-5.27-9.279
		c-10.365-3.153-20.92-1.541-31.131,1.395c-10.27,2.95-20.389,7.674-31.225,7.892c-9.716,0.195-9.735,15.283,0,15.087
		c0.821-0.016,1.638-0.059,2.451-0.114c-0.439,19.425-3.432,38.705-15.503,54.645C592.138,694.899,594.102,700.042,597.333,701.935z
		"/>
	<path fill="#999999" d="M695.191,685.129c-12.297,2.215-24.182,6.211-35.871,10.691c-0.182-0.235-0.357-0.471-0.544-0.705
		c-2.974-3.724-6.8-5.317-10.892-6.416c2.303-4.409,4.614-8.997,3.78-14.395c-1.62-10.485-15.155-10.379-22.864-9.563
		c-4.089,0.435-7.545,3.104-7.545,7.544c0,3.783,3.446,7.978,7.545,7.544c2.426-0.257,4.829-0.514,7.268-0.516
		c-1.723,4.302-4.634,8.102-5.993,12.592c-1.194,3.947,1.387,8.195,5.269,9.279c2.172,0.607,4.736,0.78,7.1,1.341
		c-0.74,0.298-1.48,0.597-2.219,0.893c-7.031,2.819-13.691,6.478-20.512,9.753c-5.539,2.661-11.785,5.693-18.07,5.382
		c-9.729-0.481-9.682,14.609,0,15.087c14.886,0.737,29.139-9.549,42.136-15.46c2.865-1.304,5.779-2.583,8.728-3.833
		c0.68,2.406,1.085,4.872,1.317,7.123c1.229,11.956-2.111,23.854-11.247,31.982c-7.283,6.479,3.427,17.11,10.667,10.668
		c12.469-11.092,17.171-28.022,15.502-44.255c-0.396-3.864-1.182-7.521-2.374-11.003c10.774-3.943,21.845-7.207,32.829-9.187
		C708.768,697.954,704.701,683.415,695.191,685.129z"/>
	<path fill="#999999" d="M768.969,585.331c-2.102,3.587-0.807,8.197,2.707,10.321c1.695,1.025,3.484,1.862,5.252,2.758
		c0.844,0.427,1.65,0.906,2.439,1.424c0.059,0.053,0.127,0.111,0.207,0.18c0.148,0.134,0.25,0.22,0.33,0.281
		c0.039,0.06,0.076,0.118,0.129,0.194c2.287,3.406,6.605,4.883,10.32,2.707c3.381-1.98,5.002-6.903,2.707-10.321
		c-1.848-2.75-4.037-4.821-6.85-6.573c-2.219-1.381-4.684-2.324-6.922-3.678C775.77,580.496,771.021,581.825,768.969,585.331z"/>
	<path fill="#999999" d="M750.553,628.874c-1.785-2.673-4.82-4.202-8.256-3.257c-3.703,1.019-6.705,5.422-5.27,9.28
		c1.094,2.938,0.26,7.446,0.15,10.815c-0.07,2.09-0.074,4.213-0.195,6.316c-0.145,0.61-0.23,1.268-0.225,1.984
		c-0.004,0.15,0,0.301,0.012,0.451c0.309,5.552,6.219,9.605,11.35,6.514c4.615-2.78,3.914-9.025,4.09-13.699
		c0.021-0.573,0.053-1.16,0.09-1.756c18.314-11.589,37.938-21.931,59.455-25.873c6.713-1.23,15.293-1.677,21.639,1.271
		c3.633,1.688,4.172,4.144,3.908,7.954c-0.018,0.26-0.635,2.058-0.553,1.989c-0.172,0.316-0.438,0.738-0.682,1.127
		c-1.217,1.188-2.07,2.829-2.246,4.923c-0.082,0.97,0.076,1.905,0.277,2.862c0.697,3.278,4.068,5.507,7.275,5.538
		c10.648,0.104,11.736-17.306,10.463-24.27c-2.424-13.269-18.424-16.918-29.641-17.225c-12.654-0.345-25.375,3.397-37.078,7.816
		C773.037,616.197,761.586,622.203,750.553,628.874z"/>
	<path fill="#999999" d="M832.012,662.563c-3.332-7.856-9.605-15.344-17.383-19.044c-9.842-4.683-21.193-1.948-29.877,3.98
		c-1.447,0.987-2.377,2.226-2.895,3.558c-0.434,0.035-0.879,0.096-1.34,0.208c-20.215,4.913-25.412,32.109-13.92,47.25
		c12.34,16.261,33.637,18.737,51.238,10.169c8.17-3.979,14.381-11.129,17.289-19.676
		C838.092,680.295,835.451,670.671,832.012,662.563z M812.451,694.419c-9.813,6.19-22.564,5.779-31.275-2.082
		c-0.217-0.198-0.43-0.402-0.641-0.61c7.887-1.578,15.604-4.297,23.613-4.521c9.709-0.271,9.734-15.358,0-15.087
		c-9.828,0.273-18.988,4.21-28.646,5.337c0.93-4.929,3.908-10.397,9.027-11.642c2.59-0.629,4.16-2.181,4.895-4.05
		c0.953-0.161,1.943-0.556,2.941-1.236c4.609-3.147,9.854-5.476,15.389-3.649c4.652,1.537,7.938,6.93,10.105,10.953
		C823.145,677.645,822.271,688.224,812.451,694.419z"/>
	<path fill="#999999" d="M871.203,715.872c-23.037,0.079-46.215,2.446-69.111,4.839c-21.52,2.249-44.127,2.358-64.111,11.614
		c-8.82,4.086-1.152,17.088,7.615,13.027c18.01-8.341,40.092-8.077,59.51-9.847c21.967-2.002,44.018-4.471,66.098-4.546
		C880.932,730.926,880.936,715.839,871.203,715.872z"/>
	<path fill="#999999" d="M924.223,581.035c-1.736,2.963-1.158,7.026,1.342,9.34c0.967,3.075,3.77,5.363,7.184,5.363
		c4.041,0,7.637-3.431,7.543-7.544c-0.092-4.017-2.127-7.93-5.748-9.866C930.916,576.389,926.357,577.39,924.223,581.035z"/>
	<path fill="#999999" d="M901.227,624.973c23.926-5.438,47.557-12.849,72.127-14.237c2.047,1.313,4.705,1.64,7.457,0.065
		c0.521-0.185,1.037-0.377,1.551-0.58c7.645-2.887,6.979-14.881-2.006-14.817c-28.473,0.198-55.627,8.767-83.141,15.021
		C887.729,612.581,891.752,627.126,901.227,624.973z"/>
	<path fill="#999999" d="M954.73,628.867c-2.707-2.708-6.434-2.615-9.936-2.162c-8.986,1.167-18.838,2.607-28.135,6.519
		c-3.787,1.594-6.467,4.925-5.27,9.278c0.984,3.579,5.482,6.868,9.281,5.269c5.313-2.233,12.154-4.857,17.963-5.117
		c2.07-0.093,4.154-0.53,6.201-0.843c0.385-0.058,0.643-0.098,0.818-0.128c2.568,1.328,5.807,1.324,8.52-1.216
		C957.439,637.412,958.031,632.169,954.73,628.867z M947.328,641.529C948.275,641.523,948.199,641.793,947.328,641.529
		L947.328,641.529z"/>
	<path fill="#999999" d="M938.229,654.085c-7.057,0.682-13.896,2.19-20.896,3.278c-4.07,0.631-6.264,5.662-5.27,9.278
		c1.184,4.301,5.221,5.899,9.279,5.269c5.07-0.785,10.057-2.128,15.162-2.575c1.848-0.161,3.691-0.355,5.537-0.517
		c0.555-0.048,1.109-0.078,1.664-0.113c1.969,1.043,4.408,1.2,6.932-0.236c2-1.139,3.604-2.829,4.178-5.121
		c0.631-2.519,0.064-5.54-1.941-7.341C948.842,652.384,943.145,653.609,938.229,654.085z M945.408,668.619
		C946.996,668.626,946.674,669.018,945.408,668.619L945.408,668.619z"/>
	<path fill="#999999" d="M997.346,684.139c-5.924-8.513-15.738-11.623-25.705-11.623c-9.73,0-9.73,15.088,0,15.088
		c4.844,0,10.24,0.647,13.25,4.974c2.42,3.479,1.145,7.007-2.5,9.642c-5.867,4.243-13.746,6.256-20.625,8.092
		c-8.318,2.22-16.838,3.493-25.439,3.778c-6.486,0.214-13.861,0.021-19.643-3.264c-3.002-1.705-2.605-3.042-1.119-5.927
		c6.904-13.4,27.133-17.884,40.652-17.295c9.73,0.424,9.689-14.665,0-15.088c-20.004-0.87-47.188,7.837-55.248,28.236
		c-2.904,7.346-1.139,15.619,4.934,20.785c8.178,6.956,20.15,7.817,30.424,7.639c11.406-0.198,22.941-2.348,33.863-5.552
		c9.725-2.853,20.965-6.76,27.111-15.31C1002.508,701.071,1002.416,691.426,997.346,684.139z"/>
	<path fill="#999999" d="M212.677,475.258c0.532-0.889,1.955-1.197,2.876-1.46c1.477-0.423,3.014-0.602,4.547-0.623
		c2.43-0.034,2.434-3.807,0-3.771c-3.462,0.049-8.707,0.65-10.681,3.951C208.168,475.447,211.431,477.343,212.677,475.258z"/>
	<path fill="#999999" d="M223.999,607.075c0-6.706,0-13.41,0-20.116c0-2.433-3.772-2.433-3.772,0c0,6.706,0,13.41,0,20.116
		C220.227,609.508,223.999,609.508,223.999,607.075z"/>
	<path fill="#999999" d="M225.752,617.079c0.454-0.922,0.256-2.033-0.677-2.58c-0.839-0.491-2.126-0.244-2.58,0.677
		c-0.586,1.19-1.128,2.359-0.934,3.708c0.137,0.958,1.126,1.46,1.975,1.535c0.731,0.067,1.433-0.474,1.921-0.946
		c0.631-0.612,0.703-1.602,0.262-2.325C225.731,617.125,225.742,617.103,225.752,617.079z"/>
	<path fill="#999999" d="M276.427,603.178c-2.383-0.112-2.414,3.498-0.137,3.751c0.021,0.006,0.04,0.012,0.081,0.021
		c0.205,0.049,0.404,0.124,0.603,0.196c0.167,0.063,0.667,0.314,1.06,0.531c0.993,0.545,1.888,1.206,2.638,2.059
		c0.188,0.214,0.268,0.398,0.339,0.658c-0.027,0.027-0.069,0.073-0.159,0.166c-1.304,1.332-4.227,1.496-5.93,1.737
		c-2.4,0.34-1.375,3.975,1.002,3.637c3.743-0.53,11.145-2.45,8.211-7.788C282.821,605.762,279.191,603.308,276.427,603.178z"/>
	<path fill="#999999" d="M338.734,604.441c-8.148-4.259-14.747-10.716-22.128-16.094c-1.97-1.435-3.849,1.84-1.904,3.257
		c7.386,5.382,13.971,11.831,22.128,16.094C338.983,608.822,340.89,605.567,338.734,604.441z"/>
	<path fill="#999999" d="M471.056,443.938c9.764,3.942,17.685,8.861,23.012,18.244c1.2,2.114,4.459,0.215,3.257-1.903
		c-5.831-10.267-14.572-15.659-25.268-19.978C469.801,439.391,468.83,443.04,471.056,443.938z"/>
	<path fill="#999999" d="M501.606,470.283c0-0.252,0-0.503,0-0.755c0-2.432-3.772-2.432-3.772,0c0,0.252,0,0.503,0,0.755
		C497.834,472.715,501.606,472.715,501.606,470.283z"/>
	<path fill="#999999" d="M502.354,619.091c5.955-8.452,7.111-18.815,11.064-28.163c0.936-2.212-2.313-4.137-3.257-1.903
		c-3.936,9.305-5.151,19.77-11.064,28.163C497.692,619.182,500.965,621.063,502.354,619.091z"/>
	<path fill="#999999" d="M512.795,583.815c2.432,0,2.432-3.771,0-3.771S510.363,583.815,512.795,583.815z"/>
	<path fill="#999999" d="M396.066,583.318c-10.845-5.949-8.126-18.939-11.204-29.048c-0.706-2.319-4.347-1.33-3.636,1.003
		c3.453,11.34,0.774,24.63,12.937,31.303C396.296,587.746,398.198,584.488,396.066,583.318z"/>
	<path fill="#999999" d="M407.184,579.038c-0.957,0-1.687,0.704-1.849,1.597c-0.018,0.084-0.044,0.166-0.071,0.247
		c-0.013,0.039-0.028,0.075-0.043,0.114c-0.028,0.063-0.06,0.139-0.081,0.181c-0.155,0.323-0.332,0.635-0.519,0.941
		c-0.146-0.037-0.298-0.063-0.456-0.063c-1.018,0-1.9,0.857-1.886,1.886c0.016,1.098,0.459,2.584,1.756,2.77
		c1.143,0.164,2.026-0.303,2.755-1.162c1.037-1.22,2.214-2.975,2.278-4.625C409.109,579.896,408.182,579.038,407.184,579.038z
		 M403.813,583.193c-0.004,0.005-0.008,0.009-0.012,0.013C403.775,583.215,403.775,583.212,403.813,583.193z"/>
	<path fill="#999999" d="M546.489,623.98c2.379-0.505,1.37-4.141-1.002-3.636c-2.958,0.628-6.416,2.4-6.193,5.931
		c0.184,2.898,2.6,5.203,5.007,6.513c2.758,1.5,6.124,1.88,8.952,0.368c3.841-2.053,4.641-7.085,4.68-10.993
		c0.01-1.031-0.866-1.883-1.886-1.887c-0.821-0.003-2.006,0.101-2.689-0.452c-1.872-1.517-4.559,1.135-2.667,2.666
		c1.046,0.848,2.18,1.247,3.403,1.426c-0.154,2.214-0.681,4.646-2.537,5.861c-1.512,0.989-3.506,0.655-5.136-0.136
		c-1.553-0.754-2.967-2.021-3.331-3.343c-0.099-0.36-0.048-0.654,0.244-0.979C544.047,624.525,545.398,624.213,546.489,623.98z"/>
	<path fill="#999999" d="M653.557,438.72c15.102-7.314,30.398,15.951,33.439,28.041c0.594,2.358,4.23,1.357,3.639-1.003
		c-3.727-14.802-21.24-38.889-38.981-30.296C649.465,436.522,651.379,439.774,653.557,438.72z"/>
	<path fill="#999999" d="M687.936,476.318c0,0.419-0.02,1.237-0.043,1.402c-0.039,0.289-0.109,0.572-0.189,0.853
		c-0.025,0.076-0.043,0.125-0.055,0.16c-0.049,0.069-0.326,0.449-0.168,0.274c-0.691,0.76-0.752,1.915,0,2.667
		c0.701,0.701,1.975,0.76,2.668,0c1.344-1.476,1.557-3.44,1.559-5.356C691.709,473.886,687.938,473.886,687.936,476.318z"/>
	<path fill="#999999" d="M551.64,573.938c-8.874-13.212-12.697-29.527-10.807-45.316c0.289-2.412-3.487-2.384-3.772,0
		c-1.959,16.371,2.125,33.529,11.321,47.22C549.731,577.849,553,575.963,551.64,573.938z"/>
	<path fill="#999999" d="M563.087,581.804c2.432,0,2.432-3.771,0-3.771C560.655,578.032,560.655,581.804,563.087,581.804z"/>
	<path fill="#999999" d="M631.537,576.518c15.994,12.07,40.453,8.021,47.027-12.19c0.752-2.32-2.889-3.307-3.639-1.004
		c-5.88,18.085-27.6,20.416-41.485,9.938C631.498,571.794,629.621,575.071,631.537,576.518z"/>
	<path fill="#999999" d="M681.773,554.646c2.432,0,2.432-3.771,0-3.771S679.342,554.646,681.773,554.646z"/>
	<path fill="#999999" d="M737.99,442.736c1.193-2.861-0.504-7.456-1.932-9.894c-1.467-2.502-4.418-3.206-7.094-3.17
		c-3.83,0.053-7.426,2.136-11.27,1.18c-2.109-0.525-3.539-1.243-5.027-1.523c-0.197-0.741-0.768-1.402-1.725-1.5
		c-6.15-0.63-11.668,2.895-8.434,9.579c1.395,2.883,3.412,5.451,6.418,6.717c3.014,1.269,5.326,2.787,4.816,6.571
		c-0.336,2.495-1.279,4.929-1.938,7.351c-0.387,1.428,0.934,2.646,2.32,2.32c2.971-0.697,5.008-2.177,6.385-4.922
		c1.404-2.798,1.266-8.475,4.77-9.625C729.738,444.355,735.502,448.703,737.99,442.736z M721.572,443.711
		c-2.611,2.675-2.84,7.264-4.717,10.272c1.018-4.148,1.264-8.258-2.615-11.371c-2.15-1.725-4.844-1.904-6.656-4.172
		c-1.023-1.281-1.744-2.577-2.174-4.16c-0.436-1.618,0.408-2.34,1.607-2.634c0.09,1.187,1.414,2.388,2.867,1.709
		c3.314-1.551,5.346,1.228,8.461,1.488c2.512,0.21,4.836-0.323,7.277-0.862c3.131-0.692,6.486-1.324,7.961,2.311
		c1.256,3.092,1.768,6.287-2.191,6.077C728.125,442.196,724.207,441.016,721.572,443.711z"/>
	<path fill="#999999" d="M512.174,632.503c0.916,2.146,4.083,4.132,5.637,5.809c3.349,3.615,6.664,8.191,6.175,13.354
		c-0.229,2.423,3.545,2.401,3.772,0c0.464-4.915-1.946-9.438-4.904-13.197c-1.441-1.83-3-3.536-4.648-5.18
		c-0.698-0.696-2.66-2.421-2.774-2.689C514.479,628.367,511.231,630.292,512.174,632.503z"/>
	<path fill="#999999" d="M527.213,664.281c2.432,0,2.432-3.771,0-3.771S524.781,664.281,527.213,664.281z"/>
	<path fill="#999999" d="M443.676,703.586c2.23-0.951,0.307-4.2-1.904-3.257c-9.629,4.108-19.37,7.677-29.894,8.46
		c-2.411,0.18-2.427,3.953,0,3.772C423.104,711.726,433.403,707.969,443.676,703.586z"/>
	<path fill="#999999" d="M451.441,699.15c2.432,0,2.432-3.771,0-3.771S449.009,699.15,451.441,699.15z"/>
	<path fill="#999999" d="M562.274,739.342c-3.45,14.884-15.129,21.769-26.17,30.853c-0.349,0.287-0.54,0.612-0.608,0.941
		c-0.173,0.09-0.349,0.183-0.519,0.271c-2.155,1.129-0.249,4.385,1.904,3.258c13.365-7.003,31.726-17.605,29.029-35.323
		C565.625,737.464,562.675,737.612,562.274,739.342z"/>
	<path fill="#999999" d="M527.434,773.419c-1.439,0.706-2.922,1.313-4.38,1.976c-0.722,0.163-1.46,0.266-2.212,0.282
		c-2.428,0.056-2.434,3.827,0,3.771c0.528-0.013,1.057-0.061,1.584-0.127c0.418,0.122,0.891,0.108,1.379-0.13
		c0.132-0.065,0.268-0.125,0.402-0.188c1.836-0.449,3.595-1.23,5.13-2.327C531.308,775.269,529.638,772.34,527.434,773.419z"/>
	<path fill="#999999" d="M696.479,659.995c7.57-12.307-0.697-20.827-9.012-29.778c-1.658-1.785-4.32,0.889-2.668,2.667
		c6.99,7.525,14.965,14.573,8.424,25.208C691.943,660.169,695.207,662.063,696.479,659.995z"/>
	<path fill="#999999" d="M690.156,668.976c2.432,0,2.432-3.771,0-3.771S687.725,668.976,690.156,668.976z"/>
	<path fill="#999999" d="M675.529,734.814c0.318,17.874-13.262,36.469-32.312,35.665c-2.433-0.103-2.423,3.67,0,3.771
		c21.07,0.889,36.437-19.57,36.083-39.437C679.258,732.386,675.486,732.382,675.529,734.814z"/>
	<path fill="#999999" d="M676.746,723.542c-2.432,0-2.432,3.771,0,3.771S679.178,723.542,676.746,723.542z"/>
	<path fill="#999999" d="M842.658,694.864c5.461-10.273,3.139-24.55-1.34-34.761c-0.977-2.224-4.225-0.302-3.258,1.903
		c3.902,8.898,6.102,22.001,1.342,30.953C838.26,695.105,841.516,697.011,842.658,694.864z"/>
	<path fill="#999999" d="M833.654,701.413c-2.432,0-2.432,3.772,0,3.772S836.086,701.413,833.654,701.413z"/>
	<path fill="#999999" d="M730.102,624.564c-6.027,8.431-3.021,20.159-4.281,29.784c-0.314,2.407,3.461,2.376,3.773,0
		c1.16-8.886-1.764-20.15,3.766-27.881C734.775,624.483,731.504,622.604,730.102,624.564z"/>
	<path fill="#999999" d="M839.188,599.841c10.074,2.323,18.932,15.021,14.777,25.173c-0.922,2.252,2.729,3.223,3.637,1.003
		c4.908-11.99-5.514-27.069-17.41-29.812C837.822,595.658,836.818,599.295,839.188,599.841z"/>
	<path fill="#999999" d="M827.619,597.897c0.223,0,0.447,0,0.67,0c1.029,0,1.887-0.857,1.887-1.886c0-1.029-0.857-1.887-1.887-1.887
		c-0.223,0-0.447,0-0.67,0c-1.027,0-1.885,0.857-1.885,1.887C825.734,597.04,826.592,597.897,827.619,597.897z"/>
	<path fill="#999999" d="M765.76,583.078c2.242-0.868,1.27-4.517-1.004-3.638c-11.711,4.535-5.963,20.427,2.902,24.905
		c2.166,1.093,4.076-2.16,1.904-3.257C764.084,598.321,757.232,586.38,765.76,583.078z"/>
	<path fill="#999999" d="M708.172,742.354c-2.396,1.101-3.729,4.004-3.809,6.543c-0.076,2.433,3.695,2.426,3.771,0
		c0.027-0.83,0.482-2.105,1.236-2.876c1.301-1.333,2.965,0.521,3.352,1.725c0.471,1.475,0.076,3.086-0.768,4.335
		c-0.918,1.361-2.381,0.638-3.412-0.118c-1.967-1.438-3.846,1.836-1.904,3.257c6.082,4.452,11.516-2.884,9.615-8.803
		C715.193,743.113,711.523,740.815,708.172,742.354z"/>
	<path fill="#999999" d="M922.334,594.478c2.297,0.825,3.275-2.82,1.004-3.638c-8.607-3.094-5.715-17.78,3.521-17.082
		c2.428,0.184,2.41-3.591,0-3.772C913.162,568.951,909.924,590.015,922.334,594.478z"/>
	<path fill="#999999" d="M962.23,590.455c6.924-1.074,35.539-1.655,28.715,11.311c-1.131,2.149,2.125,4.057,3.258,1.903
		c9.465-17.983-22.912-18.411-32.975-16.853C958.83,587.188,959.852,590.822,962.23,590.455z"/>
	<path fill="#999999" d="M989.893,611.979c2.432,0,2.432-3.771,0-3.771C987.459,608.207,987.459,611.979,989.893,611.979z"/>
	<path fill="#999999" d="M905.791,632.604c-6.371,4.014-7.984,13.021-2.393,18.385c0.582,0.559,1.262,0.633,1.85,0.429
		c0.68-0.156,1.254-0.651,1.348-1.485c0.043-0.2,0.055-0.404,0.021-0.611c0.033-0.245,0.02-0.514-0.061-0.811
		c-0.145-2.748-0.6-5.491-1.219-8.167c0.266-0.61,0.59-1.217,1.023-1.805c0.467-0.637,0.436-1.261,0.135-1.752
		c0.371-0.335,0.764-0.651,1.199-0.925C909.748,634.568,907.857,631.304,905.791,632.604z"/>
	<path fill="#999999" d="M962.688,666.03c2.309-4.993,0.961-10.772-4.48-12.829c-2.279-0.861-3.256,2.785-1.002,3.638
		c3.012,1.138,3.445,4.65,2.225,7.287C958.416,666.317,961.666,668.236,962.688,666.03z"/>
	<path fill="#999999" d="M993.252,716.718c-9.912,10.943-27.078,17.286-41.582,18.223c-2.414,0.156-2.43,3.929,0,3.772
		c15.449-0.998,33.668-7.645,44.25-19.328C997.547,717.587,994.889,714.912,993.252,716.718z"/>
	<path fill="#999999" d="M1003.016,705.7c-1.336,2.603-3.064,4.953-4.693,7.377c-1.361,2.024,1.906,3.91,3.256,1.903
		c1.629-2.422,3.357-4.773,4.695-7.377C1007.383,705.444,1004.127,703.535,1003.016,705.7z"/>
	<path fill="#999999" d="M893.914,741.198c-3.479-0.825-5.834,1.867-7.326,4.711c-5.082-3.153-10.795-0.039-11.838,6.509
		c-0.006,0.036-0.002,0.068-0.006,0.104c-0.158,0.562-0.049,1.193,0.49,1.731c0.264,0.263,0.535,0.504,0.811,0.734
		c0.236,5.724,4.4,9.158,10.059,9.685c6.693,0.625,12.715-3.916,15.084-9.909c0.264-0.669,0.125-1.222-0.215-1.615
		c0.678-0.371,1.143-1.103,0.885-2.069C900.734,746.89,898.504,742.287,893.914,741.198z M885.965,750.229
		c1.064,1.092,2.668,0.446,3.152-0.831c1.002-2.647,2.832-6.039,5.906-3.512c1.029,0.845,1.725,2.025,2.244,3.282
		c-0.064,0.036-0.127,0.064-0.191,0.11c-4.869,3.491-13.072,7.211-18.418,2.954C879.707,748.602,882.646,746.829,885.965,750.229z
		 M887.664,760.9c-3.273,0.295-6.084-1.012-7.268-3.587c5.656,1.656,12.357-0.704,17.352-3.938
		c-0.076,0.115-0.143,0.243-0.199,0.384C895.898,757.938,892.082,760.504,887.664,760.9z"/>
	<path fill="#999999" d="M867.391,745.208c0-2.432-3.773-2.432-3.771,0c0,1.497-0.033,3.078,0.402,4.525
		c0.697,2.323,4.338,1.333,3.637-1.003C867.33,747.641,867.393,746.395,867.391,745.208z"/>
	<path fill="#999999" d="M869.535,742.198c-0.738,0.738-0.695,1.878-0.025,2.634c0.031,0.053,0.063,0.107,0.092,0.164
		c0.008,0.019,0.012,0.031,0.02,0.056c0.014,0.042,0.023,0.063,0.031,0.087c0,0.022,0,0.036,0.002,0.069
		c0.041,1.027,0.826,1.886,1.885,1.886c0.998,0,1.93-0.857,1.887-1.886c-0.047-1.136-0.449-2.172-1.223-3.01
		C871.506,741.443,870.24,741.494,869.535,742.198z"/>
	<path fill="#999999" d="M901.371,734.823c-0.697-0.756-1.963-0.706-2.668,0c-0.746,0.747-0.695,1.912,0,2.666
		c0.004,0.004,0.004,0.004,0.006,0.007c0.072,0.106,0.139,0.216,0.203,0.324c0.184,0.313,0.34,0.64,0.502,0.964
		c0.461,0.919,1.738,1.171,2.582,0.677c0.928-0.544,1.135-1.661,0.676-2.58C902.305,736.146,901.934,735.431,901.371,734.823z"/>
	<path fill="#999999" d="M906.689,733.857c-0.9-0.496-2.051-0.227-2.58,0.677c-0.51,0.869-0.223,2.085,0.676,2.58
		c0.039,0.02,0.104,0.069,0.154,0.11c0.021,0.023,0.041,0.049,0.063,0.073c0.172,0.259,0.311,0.539,0.447,0.816
		c0.461,0.919,1.738,1.17,2.582,0.676c0.928-0.544,1.135-1.661,0.676-2.579C908.232,735.264,907.641,734.382,906.689,733.857z"/>
	<path fill="#999999" d="M732.174,503.55c-2.9,5.281-0.672,10.55,3.299,14.42c2.289,2.229,5.117,3.967,7.729,5.781
		c1.162,0.808,2.35,1.563,3.553,2.311c0.592,0.368,2.135,1.792,2.697,1.67c0.129,1.707,1.85,3.275,3.664,2.055
		c0.209-0.141,0.391-0.285,0.553-0.431c4.459,1.135,9.268-8.063,11.135-10.803c4.34-6.36,8.654-14.056,8.516-21.982
		c-0.113-6.532-6.105-12.72-12.814-10.592c-4.979,1.578-8.225,7.283-9.375,12.672c-1.75-1.711-4.066-2.761-6.91-3.055
		C738.773,495.035,734.561,499.206,732.174,503.55z M748.895,506.284c0.119,0.125,0.244,0.243,0.361,0.37
		c0.008,0.009,0.195,0.229,0.297,0.344c-0.004-0.014-0.006-0.021-0.01-0.036c0.01,0.016,0.021,0.031,0.029,0.046
		c0.002,0.007,0.006,0.013,0.008,0.02c0.004,0.004,0.008,0.008,0.01,0.012c0.049,0.089,0.061,0.15,0.049,0.151
		c0.16,0.381,0.404,0.718,0.715,0.979c-0.135,0.091-0.258,0.194-0.371,0.312c-0.188-0.528-0.404-1.055-0.656-1.582
		c-0.119-0.243-0.266-0.444-0.432-0.612C748.895,506.286,748.895,506.285,748.895,506.284z M749.496,506.759
		c0.002,0.007,0.002,0.014,0.004,0.02c-0.002-0.006-0.002-0.01-0.004-0.016C749.496,506.761,749.496,506.76,749.496,506.759z
		 M749.518,506.856c0.014,0.045,0.033,0.087,0.049,0.131c-0.008-0.01-0.016-0.021-0.025-0.033
		C749.533,506.927,749.525,506.889,749.518,506.856z M742.439,517.074c0.023,0.027,0.043,0.06,0.068,0.086
		c-0.027-0.02-0.053-0.039-0.082-0.059C742.432,517.092,742.436,517.083,742.439,517.074z M745.951,517.482
		c-0.047,0.56-0.063,1.129-0.041,1.712c-0.938-0.554-1.785-1.039-2.439-1.428C744.268,518.055,745.217,517.996,745.951,517.482z
		 M766.361,505.414c0.24-0.663,0.168-1.258-0.105-1.74c0.027-0.067,0.059-0.133,0.086-0.2c0.043-0.106,0.063-0.205,0.09-0.306
		c0.316-0.074,0.617-0.197,0.889-0.371c-0.273,0.915-0.584,1.818-0.949,2.706C766.371,505.473,766.365,505.444,766.361,505.414z"/>
	<path fill="#999999" d="M749.58,507.027c-0.008-0.008-0.018-0.02-0.027-0.029c0.041,0.134,0.074,0.193,0.086,0.192
		C749.617,507.137,749.6,507.082,749.58,507.027z"/>
</g>
</svg>
