<?xml version="1.0" encoding="utf-8"?>
<!-- Generator: Adobe Illustrator 16.0.0, SVG Export Plug-In . SVG Version: 6.00 Build 0)  -->
<!DOCTYPE svg PUBLIC "-//W3C//DTD SVG 1.1//EN" "http://www.w3.org/Graphics/SVG/1.1/DTD/svg11.dtd">
<svg version="1.1" id="图层_1" xmlns="http://www.w3.org/2000/svg" xmlns:xlink="http://www.w3.org/1999/xlink" x="0px" y="0px"
	 width="1204px" height="1204px" viewBox="0 0 1204 1204" enable-background="new 0 0 1204 1204" xml:space="preserve">
<g>
	<path fill="#999999" d="M305.442,546.917c4.818-8.197,8.557-17.03,10.992-25.961c2.209-8.107-10.342-11.543-12.546-3.458
		c-1.647,6.045-3.958,11.991-6.844,17.666c-4.599-7.609-7.652-15.954-10.342-24.404c4.587-0.893,9.227-1.456,13.918-1.507
		c8.385-0.09,8.393-13.101,0-13.01c-5.977,0.064-11.817,0.795-17.571,1.957c-1.989-7.646-3.579-15.397-4.778-23.201
		c-0.54-3.51-4.887-5.4-8.002-4.543c-3.712,1.021-5.082,4.5-4.543,8.002c1.161,7.555,2.621,15.302,4.5,22.993
		c-7.243,2.165-14.398,4.768-21.563,7.336c-0.346-3.837-1.087-7.62-2.481-11.237c-1.207-3.13-3.982-4.444-6.66-4.383
		c0.334-0.023,0.666-0.048,0.982-0.078c4.455-0.425,9.021-0.828,13.277-2.282c7.891-2.697,4.503-15.266-3.459-12.545
		c-8.403,2.872-17.625,1.342-25.839,4.992c-3.242,1.44-3.975,6.099-2.334,8.9c1.938,3.308,5.66,3.773,8.9,2.333
		c2.224-0.988,5.172-1.11,7.778-1.274c-3.674,0.412-6.886,3.398-5.191,7.794c1.541,3.997,2.102,8.078,2.226,12.216
		c-7.5,2.454-15.074,4.568-22.835,5.802c-3.506,0.558-5.404,4.873-4.543,8.001c1.019,3.699,4.504,5.101,8.003,4.543
		c6.445-1.025,12.748-2.622,18.976-4.506c-0.172,5.767-0.09,11.451,0.285,17.282c0.092,1.441,0.188,2.888,0.284,4.335
		c-7.312,3.415-14.633,6.822-21.088,11.764c-2.81,2.151-4.294,5.553-2.334,8.9c1.625,2.774,6.078,4.495,8.9,2.334
		c4.75-3.636,9.969-6.44,15.307-9.029c0.353,9.288,0.204,18.592-1.445,27.703c-1.483,8.201,11.054,11.706,12.546,3.459
		c2.229-12.323,2.183-24.751,1.569-37.18c4.438-2.196,8.769-4.577,12.788-7.503c2.86-2.083,4.262-5.608,2.334-8.9
		c-1.657-2.828-6.028-4.426-8.9-2.334c-2.266,1.65-4.633,3.123-7.061,4.491c-0.35-6.609-0.306-13.068,0.003-19.678
		c3.344-1.171,6.679-2.367,10.013-3.545c4.964-1.753,9.994-3.534,15.087-5.095c3.22,10.146,7.344,19.944,12.748,28.78
		c0.967,1.582,1.989,3.119,3.035,4.635c-3.702,5.123-7.917,9.846-12.591,13.979c-6.296,5.569,2.941,14.736,9.2,9.2
		c4.242-3.752,8.146-7.975,11.691-12.523c8.473,9.769,18.23,18.438,27.68,27.268c6.121,5.72,15.341-3.46,9.2-9.199
		C324.6,566.761,314.173,557.594,305.442,546.917z"/>
	<path fill="#999999" d="M290.398,464.998c0.821,0.347,1.606,0.733,2.383,1.168c0.381,0.222,0.755,0.457,1.122,0.703
		c0.174,0.113,0.295,0.189,0.392,0.248c0.085,0.077,0.209,0.183,0.392,0.334c0.84,0.698,1.608,1.479,2.36,2.269
		c0.293,0.316,0.581,0.637,0.861,0.963c0.031,0.036,1.337,1.668,0.564,0.654c2.146,2.814,5.559,4.292,8.9,2.334
		c2.779-1.627,4.489-6.073,2.334-8.9c-3.441-4.515-7.408-8.752-12.743-11.007c-3.266-1.381-6.938-1.015-8.9,2.334
		C286.448,458.857,287.129,463.616,290.398,464.998z"/>
	<path fill="#999999" d="M392.726,561.052c15.111-9.306,21.138-28.796,20.14-45.681c-0.896-15.149-7.895-27.748-20.891-35.79
		c-4.421-2.735-9.154-4.27-13.771-4.586c7.269-5.823,14.283-12.575,16.31-21.691c1.817-8.174-10.726-11.647-12.546-3.458
		c-2.095,9.424-12.879,15.89-20.011,21.415c-2.01,1.558-2.299,4.434-1.472,6.776c-0.74,1.788-1.441,3.592-2.112,5.41
		c-1.33,1.633-2.513,3.497-3.505,5.61c-0.93,1.982-0.836,3.897-0.136,5.51c-1.833,6.405-3.282,12.923-4.368,19.477
		c-2.203,13.294-3.772,29.095,3.212,41.311C361.607,569.404,380.422,568.628,392.726,561.052z M372.138,553.457
		c-4.134-0.243-6.379-2.334-8.498-6.949c-1.89-4.113-2.145-11.002-1.958-16.799c0.023-0.718,0.063-1.435,0.104-2.151
		c4.066-0.02,8.227-1.009,12.122-1.753c5.064-0.969,10.357-1.94,15.196-3.773c7.765-2.943,4.401-15.524-3.459-12.545
		c-4.226,1.602-8.798,2.458-13.208,3.376c-2.542,0.53-5.099,0.991-7.665,1.388c-0.52,0.081-0.879,0.122-1.319,0.165
		c0.345-1.877,0.724-3.749,1.13-5.613c1.109-5.097,2.476-10.138,4.017-15.119c0.342-1.102,0.7-2.198,1.066-3.291
		c2.884-2.725,6.564-3.292,11.453-1.688c6.498,2.13,12.188,7.736,15.473,13.584c6.895,12.272,3.845,32.419-5.272,42.985
		C386.485,550.871,379.529,553.891,372.138,553.457z"/>
	<path fill="#999999" d="M417.296,481.064c0.233-3.112,0.607-6.203,1.064-9.281c0.888-0.096,1.786-0.338,2.653-0.714
		c5.848-2.542,13.536-4.578,19.724-1.938c5.772,2.461,9.117,7.8,11.01,13.56c3.061,9.318,2.05,19.231,1.066,28.802
		c-1.114,10.843-3.005,22.525-6.997,33.207c-0.533,1.424-1.397,3.291-2.615,5.327c-0.142,0.238-0.927,1.298-1.126,1.601
		c-0.458,0.449-1.249,1.154-1.304,1.261c-0.082,0.051-0.161,0.108-0.246,0.156c-0.021,0.013-0.032,0.02-0.052,0.032
		c-0.043,0.012-0.089,0.023-0.139,0.033c-0.066-0.003-0.132-0.006-0.196-0.01c-0.007-0.002-0.014-0.003-0.021-0.005
		c0.01-0.014-0.734-0.292-0.96-0.417c-1.18-0.655-0.691-0.32-2.084-1.622c-6.119-5.723-15.339,3.458-9.199,9.199
		c4.407,4.122,9.625,6.76,15.753,5.449c5.143-1.1,8.935-5.807,11.396-10.12c6.468-11.329,8.388-25.324,10.085-38.042
		c1.469-11.007,2.488-22.042,0.502-33.037c-3.175-17.569-16.802-31.362-35.42-29.261c-3.225,0.364-6.282,1.11-9.281,2.1
		c0.801-4.228,1.592-8.457,2.224-12.712c0.519-3.504-0.818-6.977-4.543-8.002c-3.101-0.853-7.481,1.03-8.002,4.543
		c-1.975,13.331-5.295,26.42-6.304,39.892C403.659,489.438,416.674,489.376,417.296,481.064z M439.898,553.185
		C439.683,553.213,439.592,553.217,439.898,553.185L439.898,553.185z"/>
	<path fill="#999999" d="M440.094,511.834c2.771-1.624,4.5-6.08,2.334-8.9c-3.533-4.603-7.638-7.828-13.428-9.061
		c-3.465-0.738-7.022,0.977-8.003,4.543c-0.897,3.264,1.075,7.263,4.543,8.001c0.746,0.159,1.476,0.343,2.204,0.564
		c0.128,0.041,0.251,0.092,0.378,0.136c-0.24-0.066,0.659,0.33,0.865,0.446c0.092,0.054,0.179,0.116,0.269,0.173
		c0.105,0.086,0.642,0.474,0.791,0.61c0.253,0.24,0.498,0.488,0.735,0.744c0.12,0.125,1.257,1.509,0.412,0.409
		C433.349,512.307,436.744,513.796,440.094,511.834z"/>
	<path fill="#999999" d="M501.863,647.014c-15.456-3.873-31.359-4.738-47.175-6.059c-4.962-0.414-9.05-1.568-13.155-3.494
		c4.418-5.027,8.473-10.26,12.118-15.521c3.053-4.406,5.073-10.121,3.528-15.447c-1.494-5.152-6.24-8.158-11.115-9.573
		c-7.747-2.247-16.657-1.296-24.694,1.13c0.297-3.279-1.14-6.414-4.621-7.371c-3.125-0.859-7.45,1.036-8.002,4.544
		c-1.384,8.793-4.21,17.18-7.376,25.473c-2.997,7.852,9.584,11.215,12.546,3.459c1.412-3.699,2.747-7.418,3.926-11.182
		c0.588-0.102,1.188-0.277,1.796-0.557c6.024-2.766,15.472-4.387,21.608-3.268c0.68,0.123,1.344,0.313,2.005,0.504
		c0.936,0.271-0.016-0.152,1.288,0.584c0.098,0.057,0.162,0.1,0.206,0.129c-0.009,0.99-0.408,1.738-1.245,3.268
		c-1.511,2.762-3.627,5.244-5.503,7.76c-2.422,3.248-5.069,6.479-7.911,9.621c-3.342-1.844-6.771-3.488-10.497-4.613
		c-8.053-2.43-11.469,10.129-3.459,12.545c1.501,0.453,2.951,1.004,4.365,1.621c-14.496,12.947-32.42,22.625-51.461,22.557
		c-8.392-0.029-8.388,12.98,0,13.012c5.326,0.018,10.532-0.584,15.602-1.697c-0.328,0.701-0.554,1.494-0.629,2.387
		c-1.483,17.531,7.675,31.445,24.298,36.975c15.161,5.041,32.036,2.264,46.839-2.525c17.085-5.529,39.438-17.484,37.298-38.82
		c-0.813-8.105-5.116-13.057-11.001-16.008c4.405,0.572,8.792,1.287,13.148,2.23c0.902,0.584,2.01,0.955,3.325,1.014
		c0.74,0.033,1.479,0.068,2.22,0.1C507.518,660.123,508.938,648.785,501.863,647.014z M432.378,647.029
		c4.684,2.703,9.46,5.184,14.975,6.166c-9.244,0.918-18.989,2.389-27.725,5.51c-0.965,0.346-1.909,0.734-2.839,1.154
		C422.295,656.031,427.506,651.697,432.378,647.029z M401.243,690.244c-0.779,0.162-1.452,0.422-2.026,0.758
		c-1.173-2.346-1.933-5.09-2.212-8.26c0.739,0.066,1.532,0.012,2.381-0.213c5.479-1.449,10.438-4.113,15.326-6.916
		c5.24-3.004,10.101-5.072,15.991-6.467c0.138-0.031,0.277-0.063,0.415-0.094c-0.026,0.18-0.054,0.359-0.068,0.547
		c-0.269,3.58-0.318,7.164-0.225,10.746C421.124,684.225,411.415,688.133,401.243,690.244z M411.452,701.102
		c6.854-1.986,13.566-4.688,20.27-7.424c0.303,3.059,0.65,6.113,1,9.16C425.093,703.609,417.601,703.238,411.452,701.102z
		 M465.725,692.777c-5.169,2.979-12.404,5.826-20.251,7.791c-0.45-3.953-0.874-7.918-1.186-11.887
		c10.234-3.818,20.645-6.744,31.698-6.398c0.537,0.018,1.038-0.021,1.507-0.107C474.837,686.707,470.092,690.26,465.725,692.777z
		 M475.985,669.273c-11.297-0.354-21.844,2.393-32.177,6.078c0.031-1.918,0.107-3.834,0.251-5.752
		c0.086-1.148-0.092-2.133-0.452-2.965c7.305-1.09,14.723-1.584,22.018-1.137c3.707,0.227,9.219,1.098,12.073,4.039
		C477.171,669.389,476.604,669.293,475.985,669.273z"/>
	<path fill="#999999" d="M523.135,652.166c3.335,1.953,6.764,0.488,8.9-2.332c12.185-16.094,14.977-36.443,15.186-56.103
		c3.339-0.932,6.644-2.023,9.95-3.106c5.105-1.672,10.355-3.383,15.657-3.794c-0.071,0.075-0.144,0.147-0.215,0.224
		c-2.612,2.808-5,6.472-5.832,10.261c-1.794,8.177,5.68,10.966,12.289,10.816c2.905-0.064,5.477,0.043,8.311,0.711
		c1.357,0.32,2.563,0.754,3.751,1.416c-0.084,0.109-0.44,0.805-0.984,1.32c-0.826,0.781-1.719,1.477-2.635,2.145
		c-1.055,0.77-2.156,1.469-3.275,2.137c-0.339-0.061-0.677-0.1-1.009-0.1c-3.881,0-6.063,2.988-6.505,6.504
		c-0.631,5.021,4.663,7.949,8.981,7.064c3.03-0.621,5.887-2.623,8.374-4.371c7.191-5.053,12.705-11.834,8.648-20.98
		c-2.967-6.692-12.563-8.531-19.887-8.828c3.327-3.572,6.508-6.947,7.529-11.92c0.728-3.545-0.984-6.919-4.543-8.002
		c-8.938-2.72-18.04-1.329-26.845,1.202c-8.854,2.544-17.582,6.618-26.925,6.806c-8.379,0.168-8.395,13.178,0,13.01
		c0.708-0.014,1.412-0.052,2.114-0.099c-0.38,16.75-2.96,33.375-13.369,47.122C518.655,646.102,520.349,650.535,523.135,652.166z"/>
	<path fill="#999999" d="M607.519,637.676c-10.603,1.91-20.85,5.355-30.931,9.219c-0.156-0.201-0.308-0.406-0.469-0.607
		c-2.564-3.211-5.864-4.586-9.392-5.533c1.985-3.803,3.979-7.758,3.259-12.412c-1.397-9.043-13.068-8.949-19.717-8.246
		c-3.525,0.373-6.505,2.678-6.505,6.506c0,3.262,2.971,6.879,6.505,6.506c2.092-0.223,4.165-0.443,6.267-0.445
		c-1.485,3.709-3.995,6.984-5.167,10.857c-1.03,3.404,1.196,7.066,4.543,8.002c1.873,0.523,4.084,0.672,6.121,1.156
		c-0.638,0.256-1.275,0.514-1.913,0.77c-6.063,2.432-11.806,5.584-17.688,8.41c-4.776,2.293-10.162,4.91-15.582,4.643
		c-8.39-0.416-8.349,12.596,0,13.01c12.836,0.633,25.127-8.236,36.334-13.334c2.471-1.123,4.984-2.227,7.527-3.305
		c0.586,2.074,0.936,4.201,1.136,6.145c1.061,10.309-1.82,20.568-9.698,27.576c-6.281,5.588,2.955,14.756,9.199,9.199
		c10.752-9.563,14.807-24.164,13.367-38.162c-0.342-3.332-1.019-6.484-2.047-9.486c9.29-3.4,18.836-6.215,28.309-7.922
		C619.227,648.734,615.721,636.197,607.519,637.676z"/>
	<path fill="#999999" d="M221.362,480.15c0.458-0.766,1.686-1.032,2.48-1.259c1.274-0.364,2.599-0.519,3.921-0.537
		c2.096-0.03,2.099-3.282,0-3.252c-2.986,0.042-7.508,0.562-9.21,3.408C217.474,480.313,220.287,481.948,221.362,480.15z"/>
	<path fill="#999999" d="M231.125,593.818c0-5.782,0-11.564,0-17.347c0-2.097-3.252-2.097-3.252,0c0,5.782,0,11.565,0,17.347
		C227.872,595.916,231.125,595.916,231.125,593.818z"/>
	<path fill="#999999" d="M232.637,602.445c0.392-0.796,0.221-1.754-0.583-2.226c-0.723-0.423-1.833-0.211-2.225,0.584
		c-0.505,1.027-0.972,2.035-0.805,3.197c0.118,0.826,0.971,1.26,1.703,1.324c0.63,0.057,1.236-0.408,1.657-0.816
		c0.544-0.527,0.606-1.381,0.226-2.004C232.619,602.484,232.628,602.464,232.637,602.445z"/>
	<path fill="#999999" d="M276.335,590.458c-2.055-0.097-2.082,3.016-0.119,3.234c0.018,0.006,0.035,0.011,0.069,0.019
		c0.177,0.042,0.349,0.106,0.52,0.17c0.144,0.053,0.575,0.271,0.914,0.457c0.856,0.47,1.628,1.04,2.274,1.775
		c0.162,0.185,0.231,0.343,0.292,0.567c-0.023,0.023-0.06,0.063-0.137,0.143c-1.124,1.148-3.645,1.291-5.114,1.498
		c-2.07,0.294-1.186,3.428,0.864,3.137c3.227-0.457,9.61-2.113,7.08-6.715C281.849,592.686,278.718,590.569,276.335,590.458z"/>
	<path fill="#999999" d="M330.063,591.546c-7.027-3.672-12.716-9.24-19.082-13.877c-1.698-1.237-3.318,1.587-1.641,2.809
		c6.369,4.641,12.047,10.203,19.081,13.877C330.278,595.325,331.922,592.518,330.063,591.546z"/>
	<path fill="#999999" d="M473.087,586.925c0.158,2.5,2.242,4.486,4.317,5.615c2.378,1.294,5.281,1.622,7.72,0.317
		c3.312-1.77,4.002-6.108,4.035-9.479c0.008-0.889-0.746-1.623-1.626-1.626c-0.708-0.002-1.73,0.086-2.319-0.391
		c-1.614-1.307-3.931,0.98-2.3,2.3c0.902,0.73,1.88,1.075,2.935,1.23c-0.133,1.909-0.587,4.007-2.188,5.054
		c-1.304,0.853-3.023,0.565-4.429-0.117c-1.339-0.649-2.559-1.742-2.872-2.882c-0.085-0.311-0.042-0.563,0.21-0.844
		c0.617-0.686,1.782-0.955,2.722-1.155c2.052-0.436,1.182-3.571-0.864-3.136C475.876,582.353,472.895,583.88,473.087,586.925z"/>
	<path fill="#999999" d="M441.968,448.642c13.022-6.307,26.212,13.755,28.835,24.181c0.512,2.033,3.649,1.17,3.137-0.865
		c-3.212-12.764-18.315-33.535-33.613-26.125C438.44,446.748,440.09,449.552,441.968,448.642z"/>
	<path fill="#999999" d="M471.613,481.064c0,0.361-0.016,1.067-0.036,1.209c-0.034,0.25-0.095,0.494-0.163,0.735
		c-0.023,0.066-0.038,0.107-0.047,0.138c-0.043,0.06-0.281,0.387-0.145,0.237c-0.596,0.655-0.648,1.651,0,2.299
		c0.604,0.605,1.703,0.656,2.3,0c1.159-1.272,1.342-2.966,1.343-4.619C474.867,478.966,471.615,478.967,471.613,481.064z"/>
	<path fill="#999999" d="M344.765,526.166c0.249-2.08-3.007-2.056-3.252,0c-1.69,14.117,1.833,28.913,9.763,40.718
		c1.163,1.731,3.982,0.105,2.809-1.641C346.432,553.85,343.135,539.781,344.765,526.166z"/>
	<path fill="#999999" d="M363.955,572.026c2.097,0,2.097-3.252,0-3.252S361.857,572.026,363.955,572.026z"/>
	<path fill="#999999" d="M422.98,567.468c13.792,10.408,34.884,6.917,40.552-10.513c0.65-2.001-2.491-2.851-3.137-0.865
		c-5.07,15.595-23.8,17.604-35.773,8.568C422.946,563.394,421.329,566.221,422.98,567.468z"/>
	<path fill="#999999" d="M466.3,548.608c2.097,0,2.097-3.252,0-3.252S464.203,548.608,466.3,548.608z"/>
	<path fill="#999999" d="M489.715,453.304c2.599,1.094,4.592,2.403,4.154,5.666c-0.29,2.152-1.104,4.25-1.67,6.339
		c-0.334,1.231,0.804,2.281,2,2.001c2.562-0.602,4.318-1.877,5.506-4.244c1.21-2.413,1.091-7.308,4.112-8.3
		c3.844-1.263,8.813,2.486,10.96-2.659c1.029-2.468-0.435-6.43-1.667-8.532c-1.265-2.158-3.809-2.765-6.117-2.733
		c-3.303,0.045-6.404,1.841-9.718,1.017c-1.819-0.453-3.051-1.072-4.335-1.313c-0.169-0.64-0.662-1.209-1.486-1.293
		c-5.305-0.543-10.062,2.496-7.273,8.26C485.384,449.998,487.124,452.212,489.715,453.304z M488.069,442.543
		c0.078,1.023,1.22,2.059,2.471,1.474c2.86-1.337,4.61,1.059,7.297,1.283c2.165,0.181,4.169-0.278,6.275-0.744
		c2.699-0.597,5.593-1.142,6.864,1.993c1.083,2.666,1.524,5.421-1.889,5.24c-2.818-0.149-6.197-1.167-8.468,1.157
		c-2.254,2.306-2.449,6.263-4.068,8.857c0.878-3.577,1.089-7.12-2.255-9.805c-1.854-1.487-4.177-1.642-5.739-3.598
		c-0.883-1.104-1.504-2.222-1.874-3.587C486.306,443.418,487.034,442.797,488.069,442.543z"/>
	<path fill="#999999" d="M463.14,608.82c0.4-4.238-1.678-8.139-4.229-11.38c-1.242-1.578-2.586-3.05-4.008-4.467
		c-0.602-0.6-2.294-2.088-2.393-2.32c-0.821-1.924-3.622-0.264-2.809,1.643c0.79,1.85,3.521,3.563,4.861,5.01
		c2.888,3.117,5.746,7.062,5.325,11.515C459.689,610.908,462.944,610.891,463.14,608.82z"/>
	<path fill="#999999" d="M462.669,619.699c2.097,0,2.097-3.254,0-3.254S460.572,619.699,462.669,619.699z"/>
	<path fill="#999999" d="M390.634,653.592c1.923-0.82,0.265-3.621-1.642-2.809c-8.303,3.543-16.703,6.619-25.778,7.295
		c-2.079,0.154-2.093,3.408,0,3.252C372.894,660.609,381.775,657.371,390.634,653.592z"/>
	<path fill="#999999" d="M397.33,649.766c2.097,0,2.097-3.252,0-3.252S395.233,649.766,397.33,649.766z"/>
	<path fill="#999999" d="M492.903,684.426c-2.975,12.832-13.046,18.77-22.567,26.602c-0.301,0.25-0.465,0.529-0.524,0.813
		c-0.149,0.08-0.3,0.158-0.447,0.234c-1.858,0.975-0.214,3.781,1.641,2.811c11.525-6.039,27.358-15.182,25.033-30.459
		C495.792,682.805,493.249,682.934,492.903,684.426z"/>
	<path fill="#999999" d="M462.86,713.811c-1.241,0.607-2.52,1.131-3.777,1.703c-0.623,0.141-1.259,0.227-1.907,0.242
		c-2.094,0.049-2.099,3.301,0,3.252c0.456-0.01,0.911-0.051,1.366-0.109c0.361,0.105,0.768,0.096,1.189-0.111
		c0.114-0.057,0.231-0.107,0.347-0.162c1.584-0.387,3.1-1.061,4.424-2.006C466.201,715.404,464.761,712.879,462.86,713.811z"/>
	<path fill="#999999" d="M605.821,614.361c-1.101,1.791,1.713,3.424,2.809,1.641c6.529-10.611-0.602-17.958-7.771-25.677
		c-1.431-1.541-3.726,0.766-2.301,2.299C604.586,599.113,611.463,605.189,605.821,614.361z"/>
	<path fill="#999999" d="M603.178,623.746c2.098,0,2.098-3.252,0-3.252C601.081,620.494,601.081,623.746,603.178,623.746z"/>
	<path fill="#999999" d="M590.565,680.521c0.273,15.412-11.437,31.445-27.863,30.754c-2.098-0.088-2.09,3.164,0,3.252
		c18.169,0.766,31.42-16.875,31.116-34.006C593.781,678.426,590.528,678.422,590.565,680.521z"/>
	<path fill="#999999" d="M591.614,670.799c-2.098,0-2.098,3.254,0,3.254C593.711,674.053,593.711,670.799,591.614,670.799z"/>
	<path fill="#999999" d="M618.713,687.021c-2.065,0.949-3.214,3.453-3.283,5.643c-0.067,2.098,3.185,2.092,3.253,0
		c0.021-0.715,0.415-1.816,1.065-2.48c1.121-1.148,2.556,0.449,2.888,1.486c0.409,1.271,0.068,2.662-0.66,3.74
		c-0.793,1.172-2.054,0.549-2.942-0.104c-1.696-1.24-3.315,1.584-1.642,2.809c5.243,3.84,9.929-2.488,8.29-7.592
		C624.769,687.676,621.604,685.693,618.713,687.021z"/>
	<path fill="#999999" d="M524.66,525.399c0.11,1.472,1.596,2.824,3.16,1.771c0.18-0.121,0.336-0.246,0.476-0.372
		c3.845,0.979,7.991-6.953,9.603-9.315c3.742-5.485,7.462-12.121,7.343-18.956c-0.099-5.633-5.265-10.969-11.051-9.134
		c-4.292,1.361-7.092,6.28-8.083,10.927c-1.509-1.475-3.506-2.38-5.958-2.633c-4.697-0.484-8.33,3.113-10.387,6.858
		c-2.501,4.555-0.58,9.098,2.845,12.434c1.974,1.923,4.411,3.421,6.665,4.986c1.002,0.696,2.026,1.347,3.063,1.992
		C522.844,524.276,524.175,525.504,524.66,525.399z M539.225,504.48c0.037-0.091,0.054-0.176,0.078-0.263
		c0.272-0.063,0.532-0.17,0.767-0.32c-0.235,0.789-0.505,1.568-0.818,2.334c-0.002-0.026-0.007-0.05-0.009-0.077
		c0.208-0.572,0.145-1.084-0.091-1.501C539.174,504.596,539.201,504.539,539.225,504.48z M524.759,507.511
		c-0.007-0.009-0.014-0.018-0.022-0.029c-0.006-0.024-0.013-0.057-0.02-0.085C524.728,507.437,524.746,507.473,524.759,507.511z
		 M524.698,507.314c0.002,0.005,0.002,0.011,0.004,0.017c-0.001-0.005-0.003-0.008-0.004-0.014
		C524.698,507.315,524.698,507.314,524.698,507.314z M524.18,506.904c0.103,0.107,0.211,0.21,0.312,0.319
		c0.008,0.007,0.168,0.197,0.257,0.296c-0.003-0.011-0.007-0.018-0.01-0.03c0.008,0.013,0.019,0.026,0.026,0.039
		c0.001,0.006,0.004,0.011,0.006,0.017c0.003,0.003,0.007,0.007,0.009,0.01c0.042,0.077,0.053,0.129,0.042,0.13
		c0.138,0.329,0.347,0.62,0.615,0.845c-0.115,0.078-0.222,0.167-0.319,0.269c-0.161-0.456-0.347-0.91-0.566-1.364
		c-0.101-0.209-0.228-0.383-0.372-0.528C524.18,506.906,524.18,506.905,524.18,506.904z M518.603,516.233
		c0.003-0.009,0.007-0.016,0.01-0.024c0.021,0.024,0.038,0.051,0.06,0.075C518.648,516.266,518.626,516.25,518.603,516.233z
		 M521.606,518.037c-0.808-0.478-1.54-0.896-2.103-1.231c0.687,0.248,1.506,0.197,2.138-0.246
		C521.603,517.043,521.588,517.534,521.606,518.037z"/>
	<path fill="#999999" d="M524.771,507.545c-0.006-0.007-0.015-0.017-0.022-0.025c0.034,0.116,0.063,0.167,0.074,0.166
		C524.803,507.64,524.788,507.592,524.771,507.545z"/>
	<path fill="#999999" d="M670.177,587.363c0.377,0.531,0.685,1.111,0.984,1.688c0.605,1.167,1.376,5.136,1.549,6.472
		c0.454,3.516,2.613,6.504,6.505,6.504c3.2,0,6.961-2.979,6.505-6.504c-1.211-9.352-4.235-20.267-15.184-21.885
		c-3.505-0.518-6.978,0.816-8.002,4.543c-0.853,3.1,1.029,7.482,4.543,8.002c1.252,0.185,1.977,0.389,2.685,0.795
		C669.355,586.769,670.259,587.578,670.177,587.363z"/>
	<path fill="#999999" d="M701.503,653.371c-3.781,3.832-7.298,8.113-11.228,11.883c-0.92-4.613-1.146-9.422-1.201-14.006
		c-0.09-7.365,0.648-14.768,2.485-21.906c1.146-4.461-2.095-7.738-6.273-8.234c-5.336-0.635-10.506,0.525-15.472,2.436
		c-4.824,1.857-9.666,4.781-14.885,5.371c-3.522,0.398-6.506,2.658-6.506,6.506c0,3.242,2.974,6.904,6.506,6.504
		c5.465-0.617,10.19-2.355,15.217-4.51c2.367-1.016,4.659-1.953,7.002-2.592c-2.438,14.867-1.759,31.158,4.255,44.645
		c1.396,3.129,6.17,4.121,8.9,2.334c7.93-5.193,13.81-12.549,20.397-19.232C716.595,656.592,707.4,647.389,701.503,653.371z"/>
	<path fill="#999999" d="M747.739,590.116c-5.627,1.752-11.28,3.439-16.928,5.142c-0.947-13.525-1.854-27.051-3.691-40.495
		c-0.483-3.521-4.932-5.389-8.003-4.543c-3.754,1.032-5.022,4.491-4.543,8.001c1.834,13.417,2.626,27.175,3.505,40.954
		c-7.235,2.283-14.428,4.693-21.513,7.421c-7.745,2.982-4.382,15.564,3.459,12.545c6.255-2.408,12.596-4.576,18.974-6.623
		c1.819,23.684,4.992,47.121,15.313,68.684c3.62,7.566,14.836,0.963,11.234-6.566c-8.522-17.807-11.176-38.08-13.014-57.529
		c-0.27-2.85-0.512-5.703-0.74-8.555c6.472-1.961,12.954-3.881,19.407-5.89C759.181,600.176,755.772,587.616,747.739,590.116z"/>
	<path fill="#999999" d="M855.099,652.352c-0.46-0.262-0.92-0.527-1.38-0.793c-0.287-0.414-1.394-1.393-1.641-1.658
		c-1.42-1.527-3.052-2.105-4.616-2.023c-5.305-3.209-10.477-6.641-15.183-10.676c-4.084-3.5-7.616-7.439-10.765-11.701
		c4.236-9.445,7.911-19.148,12.5-28.43c3.703-7.493-7.517-14.088-11.235-6.565c-3.491,7.064-6.466,14.375-9.547,21.632
		c-5.227-9.904-8.941-20.337-11.218-31.116c0.957-0.367,1.912-0.739,2.874-1.092c1.127-0.413,2.264-0.794,3.414-1.139
		c0.52-0.156,0.844-0.241,1.018-0.285c6.908-0.313,9.343-11.169,1.725-12.674c-3.611-0.713-7.467,0.475-11.098,1.935
		c-0.646-6.287-0.852-12.658-0.606-19.081c0.32-8.393-12.691-8.362-13.01,0c-0.312,8.176,0.067,16.264,1.121,24.216
		c-4.194,1.683-8.449,3.26-12.825,4.205c-8.199,1.77-4.721,14.311,3.459,12.545c3.998-0.862,7.891-2.278,11.729-3.796
		c3.104,13.417,8.207,26.343,15.344,38.503c0.496,0.844,1.014,1.66,1.531,2.477c-3.245,6.834-7.028,13.598-12.381,18.73
		c-6.066,5.816,3.146,15.004,9.198,9.199c4.896-4.693,8.645-10.471,11.861-16.51c9.096,10.111,20.199,17.842,32.417,24.898
		c0.066,0.035,0.127,0.076,0.193,0.111c0.185,0.107,0.367,0.217,0.554,0.324c0.005-0.014,0.01-0.025,0.016-0.037
		c0.482,0.24,0.985,0.473,1.538,0.691C857.075,667.012,861.341,655.932,855.099,652.352z"/>
	<path fill="#999999" d="M816.26,553.223c0.127,0.045,0.217,0.075,0.289,0.099c0.602,0.279,1.173,0.615,1.74,0.956
		c0.183,0.11,0.948,0.665,1.148,0.792c0.305,0.264,0.602,0.537,0.891,0.817c2.541,2.47,6.666,2.534,9.199,0
		c2.478-2.479,2.542-6.729,0-9.199c-2.815-2.736-6.117-4.708-9.809-6.01c-3.348-1.18-7.113,1.307-8.003,4.543
		C810.725,548.822,812.919,552.045,816.26,553.223z"/>
	<path fill="#999999" d="M837.736,570.363c1.409,5.567,3.025,11.084,4.662,16.587c1.216,4.094,2.102,10.044,4.667,13.589
		c2.075,2.865,5.615,4.257,8.9,2.334c2.834-1.661,4.416-6.022,2.334-8.9c-0.021-0.027-0.032-0.041-0.049-0.063
		c-0.177-0.476-0.344-0.953-0.505-1.435c0.272,0.225,0.615,0.366,1.008,0.366c0.855,0,1.667-0.74,1.626-1.626
		c-0.04-0.878-0.432-1.735-1.262-2.131c-0.664-0.317-1.374-0.362-2.099-0.363c-0.158,0-0.309,0.03-0.454,0.074
		c-0.553-1.765-1.093-3.533-1.621-5.304c-1.646-5.5-3.255-11.022-4.662-16.588C848.224,558.775,835.676,562.226,837.736,570.363z"/>
	<path fill="#999999" d="M901.31,641.633c2.2-9.992,2.822-20.422,2.802-30.631c-0.048-24.441-9.062-48.291-19.791-69.937
		c-3.728-7.518-14.948-0.924-11.235,6.566c9.405,18.972,17.576,40.077,17.996,61.474c0.164,8.359-0.228,16.834-1.563,25.094
		c-0.661,4.078-1.618,8.115-3.02,12.002c-0.413,1.143-1.031,2.287-1.709,3.432c0.011-0.018-1.323,1.768-0.591,0.891
		c-0.956,1.145-0.32,0.529-0.973,0.961c-6.954,4.617-0.445,15.891,6.566,11.236C896.818,658.053,899.58,649.492,901.31,641.633z"/>
	<path fill="#999999" d="M981.992,571.195c4.755-0.164,10.525-0.277,14.965,1.742c2.91,1.324,3.368,2.346,3.876,4.954
		c0.354,1.823-0.764,5.878-1.845,8.826c-2.416,6.588-6.92,12.962-11.264,18.082c-5.394,6.355,3.763,15.605,9.198,9.199
		c10.867-12.805,26.683-37.488,8.729-51.042c-4.736-3.576-11.439-4.232-17.128-4.654c-0.735-0.054-1.472-0.086-2.209-0.113
		c0.978-2.174,1.612-4.504,1.777-6.975c0.606-9.177-5.247-15.842-13.274-19.228c-6.521-2.75-13.724-1.902-20.757,0.379
		c-1.286-7.042-2.873-14.039-4.903-20.971c-2.353-8.034-14.908-4.612-12.545,3.458c2.191,7.487,3.87,15.055,5.205,22.676
		c-3.254,1.609-6.342,3.255-9.154,4.671c-7.496,3.774-0.906,14.997,6.566,11.234c1.522-0.767,3.063-1.57,4.617-2.372
		c0.632,4.965,1.159,9.947,1.618,14.94c-7.017,2.876-13.71,6.529-19.74,10.892c-2.868,2.073-4.257,5.616-2.335,8.9
		c1.662,2.836,6.021,4.416,8.9,2.334c4.519-3.268,9.313-6.013,14.312-8.311c1.416,18.843,2.477,37.749,5.441,56.374
		c-0.034,0.309-0.058,0.627-0.051,0.963c0.042,2.43,0.432,4.676,1.755,6.752c4.107,6.439,13.206,2.148,11.89-5.014
		c-3.87-21.031-4.958-42.449-6.577-63.78c1.897-0.577,3.813-1.106,5.749-1.582C970.458,572.142,976.186,571.395,981.992,571.195z
		 M957.945,561.801c-0.506-5.431-1.096-10.85-1.815-16.249c3.147-1.066,6.374-1.801,9.696-1.94c3.759-0.157,7.943,1.099,9.182,5.011
		c0.864,2.731-0.719,5.49-2.809,7.678c-0.927,0.284-1.842,0.814-2.688,1.662c-0.571,0.571-1.144,1.143-1.715,1.714
		c-0.339,0.057-0.679,0.11-1.018,0.168C963.827,560.359,960.876,561.016,957.945,561.801z"/>
	<path fill="#999999" d="M978.633,516.139c0.099,0.057,0.193,0.1,0.29,0.149c-0.087,1.77,0.525,3.566,1.863,4.905
		c2.49,2.49,6.713,2.528,9.198,0c3.224-3.278,6.682-8.653,3.512-13.195c-3.189-4.569-8.368-4.419-13.31-3.749
		c-1.565,0.213-3.131,1.696-3.888,2.99c-0.879,1.502-1.118,3.333-0.656,5.012C976.09,513.877,977.178,515.288,978.633,516.139z"/>
	<path fill="#999999" d="M663.167,567.6c6.05-2.256,13.643,1.375,16.378,7.059c0.91,1.89,3.714,0.239,2.809-1.642
		c-3.316-6.894-12.738-11.28-20.05-8.553C660.355,565.19,661.199,568.334,663.167,567.6z"/>
	<path fill="#999999" d="M687.021,580.668c0.288,0,0.578,0,0.868,0c0.886,0,1.626-0.74,1.626-1.626s-0.74-1.626-1.626-1.626
		c-0.29,0-0.58,0-0.868,0c-0.888,0-1.626,0.74-1.626,1.626S686.133,580.668,687.021,580.668z"/>
	<path fill="#999999" d="M747.303,610.432c-11.217,1.588-8.796,16.047-6.341,23.686c0.639,1.988,3.781,1.137,3.138-0.865
		c-1.904-5.922-4.964-18.406,4.066-19.684C750.236,613.275,749.353,610.143,747.303,610.432z"/>
	<path fill="#999999" d="M746.759,644.092c-0.002-2.096-3.254-2.096-3.253,0c0.002,3.563,0.038,7.232,1.957,10.361
		c1.095,1.785,3.908,0.152,2.809-1.641C746.662,650.189,746.761,647.066,746.759,644.092z"/>
	<path fill="#999999" d="M697.146,686.309c-2.416,2.793-5.528,5.668-9.522,4.992c-3.979-0.672-5.898-5.225-6.841-8.609
		c-0.563-2.02-3.699-1.162-3.137,0.863c1.299,4.67,3.679,8.811,8.343,10.668c5.131,2.043,10.335-2.004,13.457-5.613
		C700.811,687.031,698.52,684.721,697.146,686.309z"/>
	<path fill="#999999" d="M704.367,679.762c-0.888,0-1.626,0.74-1.626,1.627c0,0.664,0.415,1.246,0.998,1.494
		c0.249,0.582,0.83,0.998,1.496,0.998c0.886,0,1.626-0.74,1.626-1.625c-0.002-0.738-0.099-1.326-0.585-1.91
		C705.819,679.799,705.019,679.762,704.367,679.762z"/>
	<path fill="#999999" d="M768.892,667.648c-0.793,0.043-1.418,0.348-2.021,0.838c-0.252,0.205-0.429,0.611-0.542,0.9
		c-0.019,0.043-0.027,0.064-0.041,0.102c-1.522,0.637-1.363,3.279,0.529,3.117c0.777-0.064,1.271-0.229,1.892-0.711
		c0.196-0.152,0.366-0.488,0.47-0.746c0.948,0.803,2.055,1.883,1.896,2.916c-0.214,1.395-1.879,2.645-2.806,3.57
		c-1.483,1.486,0.816,3.787,2.301,2.301c2.424-2.428,4.909-5.059,2.993-8.588C772.701,669.764,770.797,667.543,768.892,667.648z
		 M769.296,670.82c0.166-0.477-0.019,0.059,0.122,0.051C769.377,670.855,769.337,670.838,769.296,670.82z"/>
	<path fill="#999999" d="M824.974,537.947c3.89,2.047,7.181,5.494,9.825,8.957c1.254,1.643,4.081,0.026,2.809-1.642
		c-2.984-3.908-6.59-7.806-10.992-10.124C824.762,534.162,823.117,536.969,824.974,537.947z"/>
	<path fill="#999999" d="M858.92,576.005c1.577,8.687,14.887,34.821-1.9,35.237c-2.094,0.051-2.1,3.305,0,3.252
		c21.107-0.523,7.03-28.368,5.038-39.354C861.683,573.079,858.547,573.955,858.92,576.005z"/>
	<path fill="#999999" d="M840.492,664.371c-2.919-1.893-6.034-3.467-9.08-5.143c-2.318-1.277-7.416-3.314-8.385-6.027
		c-0.701-1.961-3.846-1.115-3.138,0.863c1.031,2.887,4.171,4.607,6.643,6.115c4.031,2.465,8.353,4.43,12.318,7
		C840.617,668.326,842.246,665.508,840.492,664.371z"/>
	<path fill="#999999" d="M849.213,668.486c-0.289,0-0.579,0-0.867,0c-0.888,0-1.626,0.74-1.626,1.627
		c0,0.885,0.738,1.625,1.626,1.625c0.288,0,0.578,0,0.867,0c0.887,0,1.627-0.74,1.627-1.625
		C850.84,669.227,850.1,668.486,849.213,668.486z"/>
	<path fill="#999999" d="M794.854,637.438c7.959-7.896,0.901-17.107-1.316-25.869c-0.515-2.033-3.652-1.17-3.137,0.865
		c1.827,7.221,8.774,16.135,2.152,22.703C791.063,636.615,793.363,638.914,794.854,637.438z"/>
	<path fill="#999999" d="M906.788,648.477c-5.059,8.58-8.9,18.98-17.632,24.568c-1.76,1.127-0.13,3.943,1.642,2.809
		c9.307-5.957,13.403-16.588,18.799-25.736C910.664,648.307,907.852,646.67,906.788,648.477z"/>
	<path fill="#999999" d="M909.06,639.863c-2.098,0-2.098,3.254,0,3.254C911.156,643.117,911.156,639.863,909.06,639.863z"/>
	<path fill="#999999" d="M998.229,546.516c1.663-6.645-0.62-14.025-6.82-17.449c-1.836-1.015-3.478,1.794-1.642,2.809
		c4.921,2.717,6.643,8.512,5.324,13.775C994.582,547.686,997.72,548.549,998.229,546.516z"/>
	<path fill="#999999" d="M1001.865,553.781c0.886,0,1.626-0.74,1.626-1.626c0-0.289,0-0.578,0-0.867c0-0.886-0.74-1.626-1.626-1.626
		c-0.888,0-1.627,0.74-1.627,1.626c0,0.29,0,0.578,0,0.867C1000.238,553.041,1000.978,553.781,1001.865,553.781z"/>
	<path fill="#999999" d="M1014.592,607.381c-6.434,8.08-16.742,17.313-27.907,15.193c-2.05-0.389-2.924,2.746-0.864,3.139
		c12.441,2.359,23.796-6.896,31.072-16.031C1018.184,608.059,1015.898,605.74,1014.592,607.381z"/>
	<path fill="#999999" d="M938.502,661.77c-3.934-2.305-8.567-0.492-10.139,3.756c-1.784,4.816,1.624,8.744,6.284,9.625
		c2.048,0.387,2.924-2.748,0.864-3.137c-2.853-0.539-5.104-2.223-4.12-5.336c0.777-2.459,3.318-3.359,5.469-2.1
		C938.675,665.641,940.311,662.828,938.502,661.77z"/>
	<path fill="#999999" d="M947.114,622.408c0.164-2.092-3.09-2.076-3.253,0c-0.918,11.654-2.313,24.742,7.415,33.242
		c1.572,1.375,3.883-0.918,2.301-2.301C944.569,645.482,946.269,633.131,947.114,622.408z"/>
	<path fill="#999999" d="M942.886,610.375c-2.098,0-2.098,3.252,0,3.252C944.982,613.627,944.982,610.375,942.886,610.375z"/>
	<path fill="#999999" d="M925.539,593.028c-12.053,1.104-4.6-17.474-0.585-22.377c1.316-1.608-0.971-3.924-2.3-2.299
		c-5.624,6.87-13.129,29.396,2.885,27.928C927.609,596.09,927.628,592.836,925.539,593.028z"/>
</g>
</svg>
